<svg width="60" height="60" viewBox="0 0 60 60" fill="none" xmlns="http://www.w3.org/2000/svg">
<g clip-path="url(#clip0_892_3332)">
<path d="M14.5165 15.4839C16.1172 15.4839 17.4197 14.1814 17.4197 12.5807C17.4197 10.9801 16.1172 9.67749 14.5165 9.67749C12.9159 9.67749 11.6133 10.9801 11.6133 12.5807C11.6133 14.1814 12.9159 15.4839 14.5165 15.4839ZM14.5165 11.613C14.7082 11.6128 14.8956 11.6695 15.0551 11.7758C15.2145 11.8822 15.3388 12.0335 15.4123 12.2105C15.4857 12.3876 15.505 12.5824 15.4676 12.7704C15.4303 12.9584 15.338 13.1311 15.2025 13.2667C15.0669 13.4022 14.8942 13.4945 14.7062 13.5318C14.5182 13.5692 14.3234 13.5499 14.1463 13.4765C13.9693 13.403 13.818 13.2787 13.7116 13.1193C13.6052 12.9598 13.5486 12.7724 13.5488 12.5807C13.5488 12.0465 13.9833 11.613 14.5165 11.613ZM53.2262 34.8388C51.6255 34.8388 50.323 36.1414 50.323 37.742C50.323 39.3427 51.6255 40.6452 53.2262 40.6452C54.8268 40.6452 56.1294 39.3427 56.1294 37.742C56.1294 36.1414 54.8268 34.8388 53.2262 34.8388ZM53.2262 38.7097C52.977 38.6986 52.7417 38.5918 52.5694 38.4115C52.397 38.2312 52.3008 37.9914 52.3008 37.742C52.3008 37.4926 52.397 37.2528 52.5694 37.0725C52.7417 36.8922 52.977 36.7854 53.2262 36.7743C53.4754 36.7854 53.7106 36.8922 53.883 37.0725C54.0554 37.2528 54.1516 37.4926 54.1516 37.742C54.1516 37.9914 54.0554 38.2312 53.883 38.4115C53.7106 38.5918 53.4754 38.6986 53.2262 38.7097Z" fill="#FFB111"/>
<path d="M54.151 31.0384C54.1655 30.6919 54.1935 30.3455 54.1935 30C54.1935 25.589 52.9897 21.301 50.729 17.5452C51.7262 15.7952 52.253 13.8167 52.2581 11.8026V11.6129C52.2581 5.20935 47.0487 0 40.6452 0C36.3503 0 32.6003 2.34968 30.5913 5.82581C26.8067 5.74271 23.0545 6.53874 19.6297 8.15129C18.9958 7.416 18.211 6.82594 17.3286 6.4213C16.4462 6.01667 15.4869 5.80696 14.5161 5.80645C10.7806 5.80645 7.74194 8.84613 7.74194 12.5806C7.74492 14.0456 8.22002 15.4706 9.09677 16.6442L9.49742 17.1784C7.2633 20.742 6.00298 24.8293 5.84226 29.0323H3.87097C2.80355 29.0323 1.93548 29.9003 1.93548 30.9677V50.3226C0.868064 50.3226 0 51.1906 0 52.2581V54.1935C0 55.261 0.868064 56.129 1.93548 56.129H6.46935C7.55903 58.4139 9.88548 60 12.5806 60C15.2758 60 17.6023 58.4139 18.6919 56.129H29.6952C30.7848 58.4139 33.1113 60 35.8064 60C38.5016 60 40.8281 58.4139 41.9177 56.129H44.5161C45.5835 56.129 46.4516 55.261 46.4516 54.1935V51.5284C46.4516 51.2923 46.4226 51.0561 46.3655 50.8239L45.7461 48.3465C47.185 47.1123 48.4738 45.7134 49.5861 44.1784L53.2258 49.0326L58.6452 41.8064C59.5221 40.6326 59.9972 39.2072 60 37.7419C60 34.3219 57.449 31.4923 54.151 31.0384ZM40.6452 1.93548C45.9813 1.93548 50.3226 6.27677 50.3226 11.6129V11.8016C50.3226 13.9597 49.5881 16.0839 48.2545 17.7803L40.6452 27.4665L33.0358 17.7803C31.6988 16.0739 30.9708 13.9694 30.9677 11.8016V11.6129C30.9677 6.27677 35.309 1.93548 40.6452 1.93548ZM14.5161 7.74194C17.1842 7.74194 19.3548 9.91258 19.3548 12.5806C19.353 13.627 19.0136 14.6449 18.3871 15.4829L14.5161 20.6448L10.6452 15.4829C10.0186 14.6449 9.67922 13.627 9.67742 12.5806C9.67742 9.91258 11.8481 7.74194 14.5161 7.74194ZM3.87097 30.9677H11.6129V38.34L16.4516 35.9206L21.2903 38.34V30.9677H29.0323V50.3226H18.6919C17.6023 48.0377 15.2758 46.4516 12.5806 46.4516C9.88548 46.4516 7.55903 48.0377 6.46935 50.3226H3.87097V30.9677ZM13.5484 30.9677H19.3548V35.2084L16.4516 33.7568L13.5484 35.2084V30.9677ZM30.9677 36.7742H40.1013C40.317 36.7742 40.5266 36.8463 40.6967 36.979C40.8667 37.1117 40.9876 37.2975 41.04 37.5068L41.341 38.7097H36.7742C35.7068 38.7097 34.8387 39.5777 34.8387 40.6452V42.5806C34.8387 43.6481 35.7068 44.5161 36.7742 44.5161H42.7926L44.2442 50.3226H41.9177C40.8281 48.0377 38.5016 46.4516 35.8064 46.4516C33.9116 46.4516 32.1987 47.2355 30.9677 48.4945V36.7742ZM42.3087 42.5806H36.7742V40.6452H41.8248L42.3087 42.5806ZM1.93548 54.1935V52.2581H5.88387C5.83839 52.5755 5.80645 52.8968 5.80645 53.2258C5.80645 53.5548 5.83839 53.8761 5.88387 54.1935H1.93548ZM12.5806 58.0645C9.91258 58.0645 7.74194 55.8939 7.74194 53.2258C7.74194 50.5577 9.91258 48.3871 12.5806 48.3871C15.2487 48.3871 17.4194 50.5577 17.4194 53.2258C17.4194 55.8939 15.2487 58.0645 12.5806 58.0645ZM19.2774 54.1935C19.3229 53.8761 19.3548 53.5548 19.3548 53.2258C19.3548 52.8968 19.3229 52.5755 19.2774 52.2581H29.1097C29.0642 52.5755 29.0323 52.8968 29.0323 53.2258C29.0323 53.5548 29.0642 53.8761 29.1097 54.1935H19.2774ZM35.8064 58.0645C33.1384 58.0645 30.9677 55.8939 30.9677 53.2258C30.9677 50.5577 33.1384 48.3871 35.8064 48.3871C38.4745 48.3871 40.6452 50.5577 40.6452 53.2258C40.6452 55.8939 38.4745 58.0645 35.8064 58.0645ZM42.5032 54.1935C42.5487 53.8761 42.5806 53.5548 42.5806 53.2258C42.5806 52.8968 42.5487 52.5755 42.5032 52.2581H44.5161V54.1935H42.5032ZM45.2177 46.2339L42.9184 37.0374C42.7616 36.4091 42.399 35.8513 41.8885 35.4529C41.378 35.0544 40.7489 34.8382 40.1013 34.8387H30.9677V30.9677C30.9677 29.9003 30.0997 29.0323 29.0323 29.0323H7.77677C7.92445 25.4452 8.94313 21.9481 10.7448 18.8429L14.5161 23.8713L19.9355 16.6452C20.8124 15.4713 21.2875 14.0459 21.2903 12.5806C21.2896 11.6171 21.0817 10.6649 20.6806 9.78871C23.5102 8.47625 26.5868 7.78148 29.7058 7.75064C29.2631 8.99033 29.0353 10.2965 29.0323 11.6129V11.8016C29.0323 14.3923 29.9139 16.9413 31.5135 18.9764L40.6452 30.5981L49.5194 19.3035C51.3186 22.5815 52.2606 26.2608 52.2581 30C52.2581 30.3494 52.231 30.7006 52.2155 31.0519C48.959 31.5426 46.4516 34.351 46.4516 37.7419C46.4546 39.2069 46.9297 40.6319 47.8064 41.8055L48.3648 42.5506C47.4527 43.8891 46.3974 45.1241 45.2177 46.2339ZM57.0968 40.6442L53.2258 45.8061L49.3548 40.6442C48.7283 39.8061 48.3889 38.7883 48.3871 37.7419C48.3871 35.0739 50.5577 32.9032 53.2258 32.9032C55.8939 32.9032 58.0645 35.0739 58.0645 37.7419C58.0627 38.7883 57.7233 39.8061 57.0968 40.6442Z" fill="#008E3F"/>
<path fill-rule="evenodd" clip-rule="evenodd" d="M12.579 50.3226C10.9784 50.3226 9.67578 51.6251 9.67578 53.2258C9.67578 54.8264 10.9784 56.129 12.579 56.129C14.1797 56.129 15.4822 54.8264 15.4822 53.2258C15.4822 51.6251 14.1797 50.3226 12.579 50.3226ZM11.9222 53.8953C12.0946 54.0756 12.3298 54.1824 12.579 54.1935C12.8282 54.1824 13.0635 54.0756 13.2358 53.8953C13.4082 53.715 13.5044 53.4752 13.5044 53.2258C13.5044 52.9764 13.4082 52.7366 13.2358 52.5563C13.0635 52.376 12.8282 52.2692 12.579 52.2581C12.3298 52.2692 12.0946 52.376 11.9222 52.5563C11.7498 52.7366 11.6536 52.9764 11.6536 53.2258C11.6536 53.4752 11.7498 53.715 11.9222 53.8953Z" fill="#008E3F"/>
<path fill-rule="evenodd" clip-rule="evenodd" d="M35.8048 50.3226C34.2042 50.3226 32.9016 51.6251 32.9016 53.2258C32.9016 54.8264 34.2042 56.129 35.8048 56.129C37.4055 56.129 38.708 54.8264 38.708 53.2258C38.708 51.6251 37.4055 50.3226 35.8048 50.3226ZM35.148 53.8953C35.3204 54.0756 35.5556 54.1824 35.8048 54.1935C36.054 54.1824 36.2893 54.0756 36.4616 53.8953C36.634 53.715 36.7302 53.4752 36.7302 53.2258C36.7302 52.9764 36.634 52.7366 36.4616 52.5563C36.2893 52.376 36.054 52.2692 35.8048 52.2581C35.5556 52.2692 35.3204 52.376 35.148 52.5563C34.9756 52.7366 34.8794 52.9764 34.8794 53.2258C34.8794 53.4752 34.9756 53.715 35.148 53.8953Z" fill="#008E3F"/>
<path d="M25.162 25.1613H23.2266V27.0968H25.162V25.1613Z" fill="#008E3F"/>
<path d="M29.033 25.1613H27.0975V27.0968H29.033V25.1613Z" fill="#008E3F"/>
<path d="M32.904 25.1613H30.9685V27.0968H32.904V25.1613Z" fill="#008E3F"/>
<path fill-rule="evenodd" clip-rule="evenodd" d="M19.6299 8.15129C18.9961 7.416 18.2112 6.82594 17.3288 6.4213C16.4464 6.01667 15.4872 5.80696 14.5164 5.80645C10.7809 5.80645 7.74219 8.84613 7.74219 12.5806C7.74517 14.0456 8.22027 15.4706 9.09703 16.6442L9.49767 17.1784L10.7451 18.8429L14.5164 23.8713L19.9357 16.6452C20.8127 15.4713 21.2878 14.0459 21.2906 12.5806C21.2899 11.6171 21.0819 10.6649 20.6809 9.78871L19.6299 8.15129ZM19.3551 12.5806C19.3551 9.91258 17.1844 7.74194 14.5164 7.74194C11.8483 7.74194 9.67767 9.91258 9.67767 12.5806C9.67948 13.627 10.0189 14.6449 10.6454 15.4829L14.5164 20.6448L18.3873 15.4829C19.0139 14.6449 19.3533 13.627 19.3551 12.5806Z" fill="#FFB111"/>
<path fill-rule="evenodd" clip-rule="evenodd" d="M50.7293 17.5452C51.7265 15.7952 52.2533 13.8167 52.2583 11.8026V11.6129C52.2583 5.20935 47.049 0 40.6454 0C36.3506 0 32.6006 2.34968 30.5915 5.82581L29.7061 7.75064C29.2633 8.99033 29.0355 10.2965 29.0325 11.6129V11.8016C29.0325 14.3923 29.9141 16.9413 31.5138 18.9764L40.6454 30.5981L49.5196 19.3035L50.7293 17.5452ZM50.3228 11.6129C50.3228 6.27677 45.9815 1.93548 40.6454 1.93548C35.3093 1.93548 30.968 6.27677 30.968 11.6129V11.8016C30.9711 13.9694 31.699 16.0739 33.0361 17.7803L40.6454 27.4665L48.2548 17.7803C49.5883 16.0839 50.3228 13.9597 50.3228 11.8016V11.6129Z" fill="#FFB111"/>
<path fill-rule="evenodd" clip-rule="evenodd" d="M49.5864 44.1784L53.2261 49.0326L58.6454 41.8064C59.5224 40.6326 59.9975 39.2072 60.0003 37.7419C60.0003 34.3219 57.4493 31.4923 54.1512 31.0384L52.2157 31.0519C48.9593 31.5426 46.4519 34.351 46.4519 37.7419C46.4548 39.2069 46.93 40.6319 47.8067 41.8055L48.3651 42.5506L49.5864 44.1784ZM53.2261 45.8061L57.097 40.6442C57.7236 39.8061 58.063 38.7883 58.0648 37.7419C58.0648 35.0739 55.8941 32.9032 53.2261 32.9032C50.558 32.9032 48.3874 35.0739 48.3874 37.7419C48.3892 38.7883 48.7285 39.8061 49.3551 40.6442L53.2261 45.8061Z" fill="#FFB111"/>
<path d="M40.6443 19.3547C44.913 19.3547 48.3862 15.8815 48.3862 11.6128C48.3862 7.34408 44.913 3.87085 40.6443 3.87085C36.3756 3.87085 32.9023 7.34408 32.9023 11.6128C32.9023 15.8815 36.3756 19.3547 40.6443 19.3547ZM40.6443 5.80633C43.8465 5.80633 46.4507 8.41053 46.4507 11.6128C46.4507 14.815 43.8465 17.4192 40.6443 17.4192C37.442 17.4192 34.8378 14.815 34.8378 11.6128C34.8378 8.41053 37.442 5.80633 40.6443 5.80633Z" fill="#FFB111"/>
</g>
<defs>
<clipPath id="clip0_892_3332">
<rect width="60" height="60" fill="white"/>
</clipPath>
</defs>
</svg>
