<svg width="60" height="60" viewBox="0 0 60 60" fill="none" xmlns="http://www.w3.org/2000/svg">
<g clip-path="url(#clip0_892_3369)">
<path d="M56.3962 27.0759L52.7021 20.6775C52.6198 20.535 52.5015 20.4167 52.359 20.3344L43.652 15.3074C43.7105 14.7935 43.7417 14.2714 43.7417 13.7422C43.7417 6.16477 37.5768 0 29.9992 0C22.4217 0 16.2568 6.16477 16.2568 13.7423C16.2568 14.2716 16.2879 14.7936 16.3464 15.3075L7.63939 20.3345C7.49688 20.4168 7.37854 20.5351 7.29626 20.6776L3.60216 27.0761C3.47785 27.2914 3.44416 27.5473 3.50851 27.7874C3.57285 28.0276 3.72997 28.2324 3.94529 28.3567L7.17064 30.2189V46.4238C7.17064 46.5884 7.21396 46.75 7.29625 46.8926C7.37853 47.0351 7.49687 47.1534 7.63939 47.2357L29.5305 59.8744C29.673 59.9567 29.8346 60.0001 29.9992 60.0001C30.1638 60.0001 30.3255 59.9567 30.468 59.8744L52.359 47.2357C52.5015 47.1534 52.6198 47.0351 52.7021 46.8926C52.7844 46.7501 52.8277 46.5884 52.8277 46.4238V30.2187L56.0531 28.3564C56.1597 28.2949 56.2531 28.213 56.3281 28.1153C56.403 28.0176 56.458 27.9062 56.4898 27.7873C56.5217 27.6684 56.5298 27.5443 56.5138 27.4223C56.4977 27.3002 56.4577 27.1825 56.3962 27.0759ZM29.9992 1.875C36.5429 1.875 41.8666 7.19871 41.8666 13.7423C41.8666 20.2861 36.5429 25.6098 29.9992 25.6098C23.4555 25.6098 18.1318 20.2861 18.1318 13.7423C18.1319 7.19871 23.4556 1.875 29.9992 1.875ZM16.714 17.2602C18.272 23.1389 23.6374 27.4847 29.9993 27.4847C36.3612 27.4847 41.7265 23.1389 43.2845 17.2602L50.0152 21.1462L29.9992 32.7027L9.98325 21.1462L16.714 17.2602ZM5.6949 27.2016L8.4515 22.4269L28.7186 34.1283L25.962 38.903L5.6949 27.2016ZM9.04575 31.3013L25.8364 40.9953C26.0517 41.1196 26.3076 41.1533 26.5477 41.0889C26.7879 41.0246 26.9926 40.8675 27.117 40.6522L29.0617 37.2839V57.4388L9.04575 45.8825V31.3013ZM50.9527 45.8825L30.9367 57.4388V37.2839L32.8815 40.6522C33.0058 40.8675 33.2106 41.0246 33.4507 41.0889C33.6909 41.1533 33.9467 41.1196 34.1621 40.9953L50.9527 31.3013V45.8825ZM34.0365 38.903L31.2799 34.1283L51.547 22.4269L54.3036 27.2016L34.0365 38.903ZM26.4338 19.3662C26.6898 19.6235 26.9942 19.8275 27.3295 19.9664C27.6648 20.1053 28.0244 20.1762 28.3873 20.1752C28.7502 20.1762 29.1097 20.1052 29.445 19.9664C29.7803 19.8275 30.0848 19.6236 30.3407 19.3663C31.8734 17.8336 33.4193 16.2655 34.9145 14.749C35.8147 13.836 36.7148 12.923 37.6172 12.0122C38.6869 10.9324 38.6812 9.18293 37.6045 8.1123C37.0809 7.59176 36.3856 7.31016 35.6472 7.30934C34.9099 7.31215 34.2186 7.60207 33.7004 8.12543L28.3801 13.4988L26.2968 11.4156C25.2197 10.3388 23.4672 10.3386 22.3899 11.4157C21.3129 12.4928 21.3129 14.2453 22.3899 15.3226L26.4338 19.3662ZM23.7158 12.7414C23.7981 12.659 23.896 12.5936 24.0037 12.549C24.1114 12.5045 24.2269 12.4817 24.3434 12.4819C24.5706 12.4819 24.798 12.5684 24.971 12.7414L27.7203 15.4909C27.8073 15.578 27.9107 15.647 28.0244 15.6941C28.1382 15.7412 28.2601 15.7655 28.3832 15.7655H28.3856C28.5091 15.7652 28.6313 15.7405 28.7452 15.6928C28.8591 15.6451 28.9625 15.5754 29.0494 15.4876L35.0327 9.44473C35.1139 9.36234 35.2107 9.29691 35.3174 9.25223C35.4241 9.20755 35.5387 9.18451 35.6543 9.18445C35.7708 9.18376 35.8863 9.20616 35.9941 9.25035C36.1018 9.29454 36.1998 9.35965 36.2822 9.44191C36.6272 9.78504 36.6286 10.346 36.2853 10.6925C35.3818 11.6044 34.4805 12.5186 33.5793 13.4326C32.0865 14.9469 30.5429 16.5125 29.0149 18.0405C28.9326 18.1232 28.8348 18.1887 28.7271 18.2333C28.6194 18.2779 28.5039 18.3007 28.3873 18.3004C28.2707 18.3007 28.1552 18.2779 28.0474 18.2333C27.9397 18.1887 27.8419 18.1231 27.7597 18.0404L23.7159 13.9968C23.3698 13.6505 23.3698 13.0875 23.7158 12.7414Z" fill="#008E3F"/>
<path fill-rule="evenodd" clip-rule="evenodd" d="M27.3306 19.9664C26.9952 19.8275 26.6908 19.6235 26.4348 19.3662L22.3909 15.3226C21.314 14.2453 21.314 12.4928 22.3909 11.4157C23.4682 10.3386 25.2208 10.3388 26.2979 11.4156L28.3811 13.4988L33.7014 8.12543C34.2196 7.60207 34.9109 7.31215 35.6482 7.30934C36.3866 7.31016 37.0819 7.59176 37.6055 8.1123C38.6822 9.18293 38.688 10.9324 37.6183 12.0122C36.7164 12.9224 35.8168 13.8348 34.9173 14.7473L34.9156 14.749L34.8954 14.7694C33.4065 16.2796 31.8676 17.8405 30.3418 19.3663C30.0858 19.6236 29.7814 19.8275 29.4461 19.9664C29.1108 20.1052 28.7513 20.1762 28.3884 20.1752C28.0254 20.1762 27.6659 20.1053 27.3306 19.9664ZM24.0047 12.549C23.897 12.5936 23.7992 12.659 23.7168 12.7414C23.3709 13.0875 23.3709 13.6505 23.7169 13.9968L27.7607 18.0404C27.8429 18.1231 27.9407 18.1887 28.0485 18.2333C28.1562 18.2779 28.2717 18.3007 28.3884 18.3004C28.5049 18.3007 28.6204 18.2779 28.7282 18.2333C28.8359 18.1887 28.9337 18.1232 29.0159 18.0405C30.5439 16.5125 32.0875 14.9469 33.5803 13.4326C34.4815 12.5186 35.3828 11.6044 36.2863 10.6925C36.6297 10.346 36.6283 9.78504 36.2833 9.44191C36.2008 9.35965 36.1029 9.29454 35.9951 9.25035C35.8873 9.20616 35.7719 9.18376 35.6554 9.18445C35.5397 9.18451 35.4252 9.20755 35.3184 9.25223C35.2117 9.29691 35.1149 9.36234 35.0337 9.44473L29.0505 15.4876C28.9636 15.5754 28.8602 15.6451 28.7463 15.6928C28.6323 15.7405 28.5101 15.7652 28.3866 15.7655H28.3843C28.2611 15.7655 28.1392 15.7412 28.0255 15.6941C27.9117 15.647 27.8084 15.578 27.7213 15.4909L24.972 12.7414C24.799 12.5684 24.5717 12.4819 24.3445 12.4819C24.2279 12.4817 24.1124 12.5045 24.0047 12.549Z" fill="#FFB111"/>
<path fill-rule="evenodd" clip-rule="evenodd" d="M43.6531 15.3074C43.7116 14.7935 43.7427 14.2714 43.7427 13.7422C43.7427 6.16477 37.5779 0 30.0003 0C22.4227 0 16.2578 6.16477 16.2578 13.7423C16.2578 14.2716 16.289 14.7936 16.3475 15.3075C16.3939 15.6117 16.5325 16.4281 16.7151 17.2602C18.2731 23.1389 23.6384 27.4847 30.0004 27.4847C36.3623 27.4847 41.7276 23.1389 43.2856 17.2602C43.4605 16.6684 43.6035 15.7117 43.6531 15.3074ZM41.8676 13.7423C41.8676 7.19871 36.5439 1.875 30.0003 1.875C23.4566 1.875 18.1329 7.19871 18.1328 13.7423C18.1328 20.2861 23.4565 25.6098 30.0003 25.6098C36.5439 25.6098 41.8676 20.2861 41.8676 13.7423Z" fill="#FFB111"/>
</g>
<defs>
<clipPath id="clip0_892_3369">
<rect width="60" height="60" fill="white"/>
</clipPath>
</defs>
</svg>
