<svg width="60" height="60" viewBox="0 0 60 60" fill="none" xmlns="http://www.w3.org/2000/svg">
<path d="M47.538 2.14957C47.4509 2.06252 47.3476 1.99346 47.2338 1.94635C47.1201 1.89924 46.9981 1.875 46.875 1.875H44.0625C43.9394 1.875 43.8175 1.89924 43.7038 1.94635C43.59 1.99346 43.4867 2.06252 43.3996 2.14957L41.5246 4.02457C41.4375 4.11163 41.3685 4.21498 41.3214 4.32872C41.2743 4.44247 41.25 4.56438 41.25 4.6875C41.25 4.81062 41.2743 4.93253 41.3214 5.04628C41.3685 5.16002 41.4375 5.26337 41.5246 5.35043L41.7992 5.625L40.3125 7.11164L40.038 6.83707C39.8621 6.6613 39.6237 6.56256 39.375 6.56256C39.1264 6.56256 38.888 6.6613 38.7121 6.83707L28.3996 17.1496C28.2591 17.29 28.1668 17.4715 28.1361 17.6677C28.1054 17.864 28.1379 18.0649 28.2288 18.2416C28.3197 18.4182 28.4643 18.5614 28.6419 18.6505C28.8194 18.7396 29.0207 18.77 29.2166 18.7373C31.1176 18.4217 33.0691 18.6537 34.843 19.4062C33.4902 22.1441 31.5719 24.5637 29.2148 26.5053C26.8576 28.4469 24.1154 29.8663 21.1691 30.6697L19.6687 31.0789C18.1782 30.9424 16.676 31.1355 15.2685 31.6445C13.861 32.1536 12.5828 32.9662 11.5246 34.0246L2.1496 43.3996C2.06254 43.4866 1.99348 43.59 1.94637 43.7037C1.89925 43.8175 1.875 43.9394 1.875 44.0625C1.875 44.1856 1.89925 44.3075 1.94637 44.4213C1.99348 44.535 2.06254 44.6384 2.1496 44.7254L5.8996 48.4754C5.98666 48.5625 6.09001 48.6316 6.20376 48.6787C6.3175 48.7258 6.43942 48.75 6.56253 48.75C6.68565 48.75 6.80757 48.7258 6.92131 48.6787C7.03506 48.6316 7.13841 48.5625 7.22546 48.4754L9.37503 46.3259L13.6742 50.625L11.5246 52.7746C11.4375 52.8616 11.3685 52.965 11.3214 53.0787C11.2743 53.1925 11.25 53.3144 11.25 53.4375C11.25 53.5606 11.2743 53.6825 11.3214 53.7963C11.3685 53.91 11.4375 54.0134 11.5246 54.1004L15.2746 57.8504C15.3617 57.9375 15.465 58.0066 15.5788 58.0537C15.6925 58.1008 15.8144 58.125 15.9375 58.125C16.0607 58.125 16.1826 58.1008 16.2963 58.0537C16.4101 58.0066 16.5134 57.9375 16.6005 57.8504L25.9755 48.4754C27.0339 47.4172 27.8466 46.139 28.3556 44.7314C28.8647 43.3239 29.0578 41.8216 28.9212 40.3311L29.3304 38.8309C30.1338 35.8847 31.5532 33.1425 33.4947 30.7854C35.4363 28.4283 37.8559 26.5099 40.5937 25.1571C41.346 26.931 41.5781 28.8824 41.2628 30.7833C41.2301 30.9792 41.2605 31.1805 41.3496 31.358C41.4387 31.5356 41.5819 31.6802 41.7585 31.7711C41.9351 31.862 42.1361 31.8945 42.3323 31.8638C42.5286 31.8331 42.71 31.7409 42.8505 31.6004L53.163 21.2879C53.25 21.2009 53.3191 21.0975 53.3662 20.9838C53.4133 20.87 53.4376 20.7481 53.4376 20.625C53.4376 20.5019 53.4133 20.38 53.3662 20.2662C53.3191 20.1525 53.25 20.0491 53.163 19.9621L52.8884 19.6875L54.375 18.2009L54.6496 18.4754C54.7367 18.5625 54.84 18.6315 54.9538 18.6787C55.0675 18.7258 55.1894 18.75 55.3125 18.75C55.4357 18.75 55.5576 18.7258 55.6713 18.6787C55.7851 18.6315 55.8884 18.5625 55.9755 18.4754L57.8505 16.6004C57.9375 16.5134 58.0066 16.41 58.0537 16.2963C58.1008 16.1825 58.125 16.0606 58.125 15.9375V13.125C58.125 13.0019 58.1008 12.88 58.0537 12.7662C58.0066 12.6525 57.9375 12.5491 57.8505 12.4621L47.538 2.14957ZM21.8371 44.3371C21.1229 45.0513 20.1831 45.4957 19.178 45.5947C18.1728 45.6937 17.1644 45.4411 16.3246 44.8799C15.4848 44.3187 14.8656 43.4838 14.5724 42.5172C14.2792 41.5507 14.3303 40.5124 14.7168 39.5793C15.1033 38.6461 15.8014 37.8759 16.6922 37.3998C17.583 36.9236 18.6113 36.7711 19.6019 36.9682C20.5925 37.1652 21.4842 37.6997 22.1249 38.4804C22.7656 39.2612 23.1159 40.24 23.1159 41.25C23.1153 42.4078 22.6554 43.518 21.8371 44.3371ZM14.3371 45.6629C15.3937 46.7166 16.7923 47.3576 18.2802 47.4701C19.7682 47.5825 21.2472 47.1589 22.4501 46.2759L23.9487 47.7745C22.3453 49.0526 20.3274 49.6954 18.2802 49.5802C16.233 49.465 14.2999 48.5998 12.8501 47.15C11.4002 45.7001 10.5351 43.767 10.4199 41.7198C10.3047 39.6726 10.9474 37.6547 12.2255 36.0513L13.7235 37.5493C12.8389 38.7517 12.4144 40.2313 12.527 41.7198C12.6395 43.2083 13.2817 44.6072 14.3371 45.6629ZM8.68679 39.5141C8.49034 40.663 8.49034 41.837 8.68679 42.9859L6.95089 41.25L8.68679 39.5141ZM6.56253 46.4869L4.13828 44.0625L5.62503 42.5759L8.04917 45L6.56253 46.4869ZM15.9375 55.8619L13.5133 53.4375L15 51.9509L17.4242 54.375L15.9375 55.8619ZM18.75 53.0494L17.0141 51.3134C18.1627 51.5137 19.3373 51.5137 20.4859 51.3134L18.75 53.0494ZM25.2746 46.4488L23.7766 44.9508C24.6615 43.7486 25.0863 42.269 24.9738 40.7804C24.8613 39.2918 24.219 37.8929 23.1634 36.8373C22.1078 35.7817 20.7089 35.1395 19.2203 35.027C17.7318 34.9145 16.2522 35.3392 15.05 36.2242L13.5514 34.7256C15.1548 33.4475 17.1727 32.8047 19.2199 32.92C21.2671 33.0352 23.2001 33.9003 24.65 35.3502C26.0999 36.8 26.965 38.7331 27.0802 40.7803C27.1954 42.8275 26.5526 44.8454 25.2746 46.4488ZM33.5675 27.9193C31.0507 30.4385 29.1392 33.4964 27.977 36.8624C26.9695 34.74 25.2601 33.0306 23.1376 32.0231C26.5036 30.861 29.5615 28.9495 32.0807 26.4328C33.8758 24.6402 35.367 22.5671 36.4957 20.2951C37.0573 20.6671 37.5803 21.0943 38.0569 21.5704L38.4298 21.9432C38.9058 22.4198 39.333 22.9428 39.7049 23.5044C37.433 24.6331 35.36 26.1243 33.5675 27.9193ZM43.2607 28.5386C43.1149 25.5549 41.8657 22.7319 39.7557 20.6174L39.3828 20.2445C37.2684 18.1342 34.4452 16.885 31.4615 16.7394L39.375 8.82586L51.1742 20.625L43.2607 28.5386ZM51.5625 18.3616L41.6384 8.4375L43.125 6.95086L53.0492 16.875L51.5625 18.3616ZM56.25 15.5491L55.3125 16.4866L43.5133 4.6875L44.4508 3.75H46.4867L56.25 13.5132V15.5491Z" fill="#008E3F"/>
<path fill-rule="evenodd" clip-rule="evenodd" d="M42.1875 20.625C42.7438 20.625 43.2875 20.4601 43.75 20.151C44.2126 19.842 44.573 19.4027 44.7859 18.8888C44.9988 18.3749 45.0545 17.8094 44.946 17.2638C44.8374 16.7182 44.5696 16.2171 44.1762 15.8238C43.7829 15.4304 43.2818 15.1626 42.7362 15.054C42.1906 14.9455 41.6251 15.0012 41.1112 15.2141C40.5973 15.427 40.158 15.7874 39.849 16.25C39.54 16.7125 39.375 17.2562 39.375 17.8125C39.3758 18.5582 39.6724 19.2731 40.1997 19.8003C40.727 20.3276 41.4418 20.6242 42.1875 20.625ZM42.7083 17.033C42.5542 16.93 42.3729 16.875 42.1875 16.875C41.939 16.8753 41.7007 16.9742 41.5249 17.1499C41.3492 17.3257 41.2503 17.564 41.25 17.8125C41.25 17.9979 41.305 18.1792 41.408 18.3333C41.511 18.4875 41.6574 18.6077 41.8287 18.6786C42 18.7496 42.1885 18.7682 42.3704 18.732C42.5523 18.6958 42.7193 18.6065 42.8504 18.4754C42.9815 18.3443 43.0708 18.1773 43.107 17.9954C43.1432 17.8135 43.1246 17.625 43.0536 17.4537C42.9827 17.2824 42.8625 17.136 42.7083 17.033Z" fill="#008E3F"/>
<path d="M31.2121 37.2254L39.375 45.3884V51.5625C39.375 51.6856 39.3992 51.8075 39.4464 51.9213C39.4935 52.035 39.5625 52.1384 39.6496 52.2254L44.3371 56.9129C44.4241 57 44.5275 57.069 44.6412 57.1161C44.755 57.1633 44.8769 57.1875 45 57.1875H51.5625C51.6856 57.1875 51.8075 57.1633 51.9213 57.1161C52.035 57.069 52.1384 57 52.2254 56.9129L56.9129 52.2254C57 52.1384 57.069 52.035 57.1161 51.9213C57.1633 51.8075 57.1875 51.6856 57.1875 51.5625V45C57.1875 44.8769 57.1633 44.755 57.1161 44.6412C57.069 44.5275 57 44.4241 56.9129 44.3371L52.2254 39.6496C52.1384 39.5625 52.035 39.4935 51.9213 39.4464C51.8075 39.3992 51.6856 39.375 51.5625 39.375H45.3884L36.2879 30.2746L34.9621 31.6004L43.6743 40.3125L40.3125 43.6743L32.5379 35.8996L31.2121 37.2254ZM45.3884 41.25H51.1743L55.3125 45.3882V51.1741L51.1743 55.3125H45.3884L41.25 51.1743V45.3884L45.3884 41.25ZM6.83707 19.4129C6.92413 19.5 7.02748 19.569 7.14123 19.6161C7.25497 19.6633 7.37688 19.6875 7.5 19.6875H13.6741L22.7746 28.7879L24.1004 27.4621L15.3882 18.75L18.75 15.3882L28.3996 25.0379L29.7254 23.7121L19.6875 13.6741V7.5C19.6875 7.37688 19.6633 7.25497 19.6161 7.14123C19.569 7.02748 19.5 6.92413 19.4129 6.83707L14.7254 2.14957C14.6384 2.06252 14.535 1.99346 14.4213 1.94635C14.3075 1.89924 14.1856 1.875 14.0625 1.875H7.5C7.31458 1.87499 7.13331 1.92997 6.97914 2.03299C6.82496 2.136 6.70479 2.28242 6.63383 2.45373C6.56287 2.62504 6.5443 2.81354 6.58048 2.99541C6.61666 3.17727 6.70595 3.34432 6.83707 3.47543L12.1875 8.82574V10.8616L10.8618 12.1875H8.82586L3.47543 6.83707C3.34432 6.70595 3.17727 6.61666 2.99541 6.58048C2.81354 6.5443 2.62504 6.56287 2.45373 6.63383C2.28242 6.70479 2.136 6.82496 2.03299 6.97914C1.92997 7.13331 1.87499 7.31458 1.875 7.5V14.0625C1.875 14.1856 1.89924 14.3075 1.94635 14.4213C1.99346 14.535 2.06252 14.6384 2.14957 14.7254L6.83707 19.4129ZM3.75 9.76324L7.77457 13.7879C7.86163 13.875 7.96498 13.944 8.07873 13.9911C8.19247 14.0383 8.31438 14.0625 8.4375 14.0625H11.25C11.3731 14.0625 11.495 14.0383 11.6088 13.9911C11.7225 13.944 11.8259 13.875 11.9129 13.7879L13.7879 11.9129C13.875 11.8259 13.944 11.7225 13.9911 11.6088C14.0383 11.495 14.0625 11.3731 14.0625 11.25V8.4375C14.0625 8.31438 14.0383 8.19247 13.9911 8.07873C13.944 7.96498 13.875 7.86163 13.7879 7.77457L9.76324 3.75H13.6741L17.8125 7.88824V13.6741L13.6741 17.8125H7.88824L3.75 13.6743V9.76324Z" fill="#FFB111"/>
<path d="M44.3361 50.3504L46.2111 52.2254C46.2981 52.3125 46.4015 52.3815 46.5152 52.4286C46.629 52.4757 46.7509 52.5 46.874 52.5H49.6865C49.8096 52.5 49.9315 52.4757 50.0453 52.4286C50.159 52.3815 50.2624 52.3125 50.3494 52.2254L52.2244 50.3504C52.3115 50.2633 52.3805 50.16 52.4276 50.0462C52.4747 49.9325 52.499 49.8106 52.499 49.6875V46.875C52.499 46.7519 52.4747 46.6299 52.4276 46.5162C52.3805 46.4025 52.3115 46.2991 52.2244 46.212L50.3494 44.337C50.2624 44.25 50.159 44.1809 50.0453 44.1338C49.9315 44.0867 49.8096 44.0625 49.6865 44.0625H46.874C46.7509 44.0625 46.629 44.0867 46.5152 44.1338C46.4015 44.1809 46.2981 44.25 46.2111 44.337L44.3361 46.212C44.249 46.2991 44.1799 46.4025 44.1328 46.5162C44.0857 46.6299 44.0615 46.7519 44.0615 46.875V49.6875C44.0615 49.8106 44.0857 49.9325 44.1328 50.0462C44.1799 50.16 44.249 50.2633 44.3361 50.3504ZM45.9365 47.2632L47.2622 45.9375H49.2981L50.624 47.2632V49.2991L49.2982 50.625H47.2623L45.9365 49.2992V47.2632ZM18.0859 19.413L19.4117 18.0872L25.5057 24.1806L24.1799 25.5065L18.0859 19.413ZM33.5547 34.8818L34.8804 33.5559L40.9744 39.6493L39.6487 40.9753L33.5547 34.8818Z" fill="#FFB111"/>
</svg>
