<svg width="28" height="28" viewBox="0 0 28 28" fill="none" xmlns="http://www.w3.org/2000/svg">
<path d="M14.0019 0.666016H13.9955C7.01145 0.666016 1.33203 6.34702 1.33203 13.3327C1.33203 16.1035 2.22503 18.6717 3.74345 20.7569L2.16486 25.4626L7.03361 23.9062C9.03653 25.233 11.4258 25.9993 14.0019 25.9993C20.9859 25.9993 26.6654 20.3168 26.6654 13.3327C26.6654 6.3486 20.9859 0.666016 14.0019 0.666016Z" fill="#4CAF50"/>
<path d="M21.0725 18.2121C20.7737 19.036 19.5879 19.7192 18.6421 19.9188C17.995 20.0533 17.1497 20.1606 14.3045 19.0088C10.665 17.5364 8.32128 13.925 8.13861 13.6907C7.96368 13.4564 6.66797 11.7785 6.66797 10.0431C6.66797 8.30768 7.57048 7.46266 7.93427 7.09986C8.23304 6.80207 8.72686 6.66602 9.20056 6.66602C9.35382 6.66602 9.49159 6.67357 9.61544 6.67962C9.97923 6.69474 10.1619 6.7159 10.4018 7.27673C10.7006 7.97965 11.4282 9.71504 11.5149 9.89342C11.6031 10.0718 11.6914 10.3137 11.5675 10.548C11.4514 10.7898 11.3492 10.8972 11.1666 11.1027C10.9839 11.3083 10.8105 11.4655 10.6279 11.6863C10.4607 11.8782 10.2718 12.0838 10.4823 12.4391C10.6929 12.7867 11.4205 13.9462 12.4917 14.8774C13.8741 16.0791 14.9949 16.4631 15.3958 16.6264C15.6946 16.7473 16.0506 16.7186 16.2689 16.4918C16.546 16.2001 16.8881 15.7163 17.2364 15.2402C17.4841 14.8985 17.7968 14.8562 18.125 14.9771C18.4594 15.0905 20.2288 15.9446 20.5926 16.1215C20.9564 16.2998 21.1963 16.3845 21.2846 16.5342C21.3713 16.6838 21.3713 17.3867 21.0725 18.2121Z" fill="#FAFAFA"/>
</svg>
