<svg width="36" height="36" viewBox="0 0 36 36" fill="none" xmlns="http://www.w3.org/2000/svg">
<path d="M31.2263 18.3492C31.7187 18.8202 32.0273 19.4814 32.0273 20.2148C32.0273 21.5356 31.0303 22.6268 29.7497 22.7789C30.2422 23.2495 30.5508 23.911 30.5508 24.6445C30.5508 25.9653 29.5537 27.0565 28.2732 27.2086C28.7656 27.6792 29.0742 28.3407 29.0742 29.0742C29.0742 30.4987 27.9147 31.6582 26.4902 31.6582H24.2754H18.553C16.4367 31.6582 14.3466 31.1034 12.5094 30.0532L12.0938 29.8158V14.3802C13.3592 13.0295 14.3618 11.4437 15.0303 9.70615L16.9221 4.78661C17.1945 4.07897 17.887 3.60352 18.6449 3.60352H18.8003C19.866 3.60352 20.8398 4.09521 21.4729 4.95199C22.1056 5.80913 22.289 6.88444 21.9756 7.90253L20.4921 12.7231C20.457 12.8365 20.4777 12.9557 20.5478 13.0509C20.6187 13.1465 20.7272 13.2012 20.8453 13.2012H30.9199C32.3444 13.2012 33.5039 14.3603 33.5039 15.7852C33.5039 17.1059 32.5069 18.1971 31.2263 18.3492ZM10.6172 14.3086V30.5508C10.6172 31.5685 9.78921 32.3965 8.77148 32.3965H4.3418C3.32408 32.3965 2.49609 31.5685 2.49609 30.5508V14.3086C2.49609 13.2909 3.32408 12.4629 4.3418 12.4629H8.77148C9.78921 12.4629 10.6172 13.2909 10.6172 14.3086ZM8.0332 28.3359C8.0332 27.5216 7.37097 26.8594 6.55664 26.8594C5.74232 26.8594 5.08008 27.5216 5.08008 28.3359C5.08008 29.1503 5.74232 29.8125 6.55664 29.8125C7.37097 29.8125 8.0332 29.1503 8.0332 28.3359Z" fill="white"/>
</svg>
