<svg width="60" height="60" viewBox="0 0 60 60" fill="none" xmlns="http://www.w3.org/2000/svg">
<path d="M55.3906 26.9221V16.7401C55.3906 15.1981 54.1366 13.9441 52.5946 13.9441H52.2046L51.5026 11.0701C51.3244 10.3517 50.869 9.73317 50.2359 9.34973C49.6029 8.9663 48.8437 8.84921 48.1246 9.02408L28.0666 13.9501H7.40257C5.86057 13.9501 4.60657 15.2041 4.60657 16.7461V19.7041L4.22857 19.8001C3.5091 19.9769 2.8891 20.4318 2.50445 21.065C2.1198 21.6982 2.0019 22.4581 2.17657 23.1781L4.60657 33.0781V43.2601C4.60657 44.8021 5.86057 46.0561 7.40257 46.0561H7.79257L8.49457 48.9301C8.67371 49.6478 9.12932 50.2657 9.76209 50.6489C10.3949 51.0322 11.1535 51.1498 11.8726 50.9761L31.9306 46.0501H52.5886C54.1306 46.0501 55.3846 44.7961 55.3846 43.2541V40.2961L55.7626 40.2001C56.4826 40.0261 57.0946 39.5821 57.4846 38.9461C57.8746 38.3041 57.9946 37.5541 57.8206 36.8221L55.3906 26.9221ZM48.5506 10.7761C49.0786 10.6441 49.6186 10.9741 49.7506 11.5081L50.3506 13.9501H35.6206L48.5506 10.7761ZM11.4466 49.2241C10.9126 49.3561 10.3726 49.0261 10.2406 48.4981L9.64057 46.0501H24.3706L11.4466 49.2241ZM6.40657 21.0241H53.5906V24.4921H6.40657V21.0241ZM7.40257 15.7501H52.5946C53.1466 15.7501 53.5906 16.1941 53.5906 16.7461V19.2241H6.40657V16.7461C6.40657 16.1941 6.85057 15.7501 7.40257 15.7501ZM3.92857 22.7521C3.80257 22.2361 4.10857 21.7141 4.60657 21.5581V25.5181L3.92857 22.7521ZM53.5906 43.2541C53.5906 43.8061 53.1406 44.2501 52.5946 44.2501H7.40257C6.85057 44.2501 6.40657 43.8061 6.40657 43.2541V26.2921H53.5906V39.5941V43.2541ZM55.9486 38.0101C55.8226 38.2201 55.6246 38.3761 55.3906 38.4421V34.4821L56.0686 37.2541C56.1346 37.5061 56.0926 37.7761 55.9486 38.0101Z" fill="#008E3F"/>
<path d="M49.4702 29.5561C49.387 29.472 49.288 29.4051 49.1788 29.3595C49.0696 29.3139 48.9525 29.2904 48.8342 29.2904C48.7159 29.2904 48.5987 29.3139 48.4896 29.3595C48.3804 29.4051 48.2813 29.472 48.1982 29.5561L38.9102 38.8441C38.826 38.9273 38.7592 39.0263 38.7136 39.1355C38.668 39.2447 38.6445 39.3618 38.6445 39.4802C38.6445 39.5985 38.668 39.7156 38.7136 39.8248C38.7592 39.934 38.826 40.033 38.9102 40.1162C39.0842 40.2902 39.3182 40.3802 39.5462 40.3802C39.7742 40.3802 40.0082 40.2902 40.1822 40.1162L49.4702 30.8282C49.8242 30.4742 49.8242 29.9101 49.4702 29.5561ZM47.3342 35.2982C45.8522 35.2982 44.6522 36.5041 44.6522 37.9802C44.6522 39.4562 45.8582 40.6621 47.3342 40.6621C48.8102 40.6621 50.0162 39.4562 50.0162 37.9802C50.0162 36.5041 48.8162 35.2982 47.3342 35.2982ZM47.3342 38.8681C46.8482 38.8681 46.4522 38.4722 46.4522 37.9862C46.4522 37.5002 46.8482 37.1042 47.3342 37.1042C47.8202 37.1042 48.2162 37.5002 48.2162 37.9862C48.2162 38.4722 47.8202 38.8681 47.3342 38.8681ZM41.0942 34.4762C42.6002 34.4762 43.8302 33.2462 43.8302 31.7402C43.8302 30.2342 42.6002 29.0042 41.0942 29.0042C39.5882 29.0042 38.3582 30.2282 38.3582 31.7402C38.3582 33.2522 39.5882 34.4762 41.0942 34.4762ZM41.0942 30.8101C41.6102 30.8101 42.0302 31.2302 42.0302 31.7462C42.0302 32.2622 41.6102 32.6822 41.0942 32.6822C40.5782 32.6822 40.1582 32.2622 40.1582 31.7462C40.1582 31.2302 40.5782 30.8101 41.0942 30.8101ZM30.0002 36.4442H10.3922C9.89419 36.4442 9.49219 36.8462 9.49219 37.3442V40.1701C9.49219 40.6681 9.89419 41.0701 10.3922 41.0701H30.0002C30.4982 41.0701 30.9002 40.6681 30.9002 40.1701V37.3442C30.9002 36.8462 30.4982 36.4442 30.0002 36.4442ZM29.1002 39.2701H11.2922V38.2442H29.1002V39.2701Z" fill="#FFB111"/>
</svg>
