<svg width="180" height="126" viewBox="0 0 180 126" fill="none" xmlns="http://www.w3.org/2000/svg">
<g clip-path="url(#clip0_891_3316)">
<path d="M63.1498 103.613L76.6406 103.094L84.1113 103.613H168.747C168.978 103.613 169.207 103.568 169.421 103.479C169.634 103.389 169.828 103.259 169.992 103.094C170.155 102.929 170.285 102.734 170.373 102.518C170.462 102.303 170.508 102.072 170.508 101.839V89.2588H63.9439L63.1498 103.613Z" fill="#34AF6B"/>
<path d="M67.179 24.9444L67.7381 5.55215C67.7381 5.08149 67.9253 4.6301 68.2586 4.29729C68.5918 3.96448 69.0438 3.7775 69.5151 3.7775L76.5562 2.4845H175.41C175.882 2.4845 176.334 2.67147 176.667 3.00428C177 3.33709 177.188 3.78848 177.188 4.25914V89.4422C177.188 89.9129 177 90.3643 176.667 90.6971C176.334 91.0299 175.882 91.2169 175.41 91.2169H67.1484L67.179 24.9444Z" fill="#34AF6B"/>
<path d="M14.1172 63.724C8.81563 63.724 4.51602 68.0648 4.51602 73.4171V106.639C4.51602 107.533 5.23321 108.257 6.11563 108.257L10.7211 108.938H65.6738C66.5563 108.938 67.2734 108.214 67.2734 107.32V24.9444H43.6593L37.411 25.8175C34.8974 25.8175 32.6192 27.2976 31.5821 29.6082L17.1888 62.9999L14.1172 63.724Z" fill="#34AF6B"/>
<path d="M29.5044 34.7831H55.7785C56.815 34.7831 57.6562 35.569 57.6562 36.5373V61.0683C57.6562 62.0401 56.815 62.8225 55.7785 62.8225H16.5234L29.5044 34.7831Z" fill="white"/>
<path d="M20.4662 107.448C20.4662 116.269 26.4892 121.773 35.2266 121.773C42.5138 121.773 47.9605 117.763 50.7656 111.391C51.1395 110.013 51.3287 108.591 51.3281 107.162C51.3281 98.3413 44.2452 91.1906 35.5078 91.1906C34.0569 91.1906 32.6521 91.3907 31.3172 91.7599C24.9834 94.9177 20.4662 100.092 20.4662 107.448Z" fill="#FFB61F"/>
<path d="M29.8301 107.058C29.8301 110.488 32.0903 112.987 35.4881 112.987C37.562 112.987 39.4137 112.336 40.5281 110.749C41.2657 109.701 41.6614 108.448 41.6602 107.162C41.6602 103.732 38.9057 100.951 35.5078 100.951C34.1831 100.951 32.9576 101.376 31.9535 102.095C30.3824 103.221 29.8301 104.965 29.8301 107.058Z" fill="white"/>
<path d="M4.51613 89.2587H9.80855C13.5151 89.2587 16.5195 86.2255 16.5195 82.4835V80.5164C16.5195 80.234 16.4084 79.9632 16.2106 79.7635C16.0128 79.5638 15.7446 79.4517 15.4648 79.4517H4.51613V89.2587Z" fill="#FFB61F"/>
<path d="M91.6386 46.8507C91.6386 64.6472 104.364 77.227 121.992 77.227C135.529 77.227 144.646 68.5585 151.738 58.5598C153.141 54.9306 153.91 50.9813 153.91 46.8507C153.91 29.0541 139.62 14.627 121.992 14.627C117.901 14.627 113.989 15.4039 110.394 16.8201C100.003 23.4938 91.6386 33.1848 91.6386 46.8507Z" fill="white"/>
<path d="M106.133 36.0885C102.345 39.9121 103.338 44.6412 107.125 48.4652L120.601 63.1469C120.784 63.3314 121.001 63.4778 121.24 63.5777C121.479 63.6776 121.735 63.729 121.993 63.729C122.252 63.729 122.508 63.6776 122.747 63.5777C122.985 63.4778 123.202 63.3314 123.385 63.1469L129.176 58.8011L138.558 49.3291C142.345 45.5055 142.345 39.3059 138.558 35.4822C134.771 31.6586 128.63 31.6586 124.842 35.4822L122.49 37.8567C122.359 37.9898 122.18 38.0646 121.993 38.0646C121.807 38.0646 121.628 37.9898 121.496 37.8567L119.144 35.4822C116.304 32.6144 112.083 31.9223 108.581 33.3562C107.414 33.8343 107.079 35.1326 106.133 36.0885Z" fill="#FFB61F"/>
<path d="M131.462 107.448C131.462 116.269 137.485 121.773 146.223 121.773C153.51 121.773 158.957 117.764 161.762 111.391C162.136 110.013 162.325 108.591 162.324 107.163C162.324 98.3414 155.241 91.1907 146.504 91.1907C145.053 91.1907 143.648 91.3909 142.313 91.76C135.98 94.9178 131.462 100.092 131.462 107.448Z" fill="#FFB61F"/>
<path d="M140.826 107.058C140.826 110.488 143.086 112.987 146.484 112.987C148.558 112.987 150.41 112.336 151.524 110.749C152.262 109.701 152.658 108.448 152.656 107.162C152.656 103.732 149.902 100.951 146.504 100.951C145.179 100.951 143.954 101.376 142.95 102.095C141.379 103.221 140.826 104.965 140.826 107.058Z" fill="white"/>
<path d="M57.6752 70.7552C59.1315 70.7552 60.312 71.947 60.312 73.4171C60.312 74.8873 59.1315 76.0791 57.6752 76.0791H50.0456C48.5894 76.0791 47.4089 74.8873 47.4089 73.4171C47.4089 71.947 48.5894 70.7552 50.0456 70.7552H57.6752Z" fill="#008E3F"/>
<path fill-rule="evenodd" clip-rule="evenodd" d="M155.293 107.189C155.293 102.288 151.358 98.3155 146.504 98.3155C141.65 98.3155 137.715 102.288 137.715 107.189C137.715 112.089 141.65 116.062 146.504 116.062C151.358 116.062 155.293 112.089 155.293 107.189ZM146.504 103.639C148.446 103.639 150.02 105.228 150.02 107.189C150.02 109.149 148.446 110.738 146.504 110.738C144.562 110.738 142.988 109.149 142.988 107.189C142.988 105.228 144.562 103.639 146.504 103.639Z" fill="#008E3F"/>
<path fill-rule="evenodd" clip-rule="evenodd" d="M121.992 11.9646C141.075 11.9646 156.547 27.5843 156.547 46.8507C156.547 66.117 141.075 81.7367 121.992 81.7367C102.908 81.7367 87.4368 66.117 87.4368 46.8507C87.4368 26.5595 102.089 11.9646 121.992 11.9646ZM151.273 46.8507C151.273 30.5247 138.163 17.2886 121.992 17.2886C104.982 17.2886 92.7102 29.5193 92.7102 46.8507C92.7102 63.1767 105.821 76.4128 121.992 76.4128C138.163 76.4128 151.273 63.1767 151.273 46.8507Z" fill="#008E3F"/>
<path fill-rule="evenodd" clip-rule="evenodd" d="M44.2969 107.162C44.2969 102.262 40.3619 98.2892 35.5078 98.2892C30.6537 98.2892 26.7188 102.262 26.7188 107.162C26.7188 112.063 30.6537 116.036 35.5078 116.036C40.3619 116.036 44.2969 112.063 44.2969 107.162ZM35.5078 103.613C37.4494 103.613 39.0234 105.202 39.0234 107.162C39.0234 109.123 37.4494 110.712 35.5078 110.712C33.5662 110.712 31.9922 109.123 31.9922 107.162C31.9922 105.202 33.5662 103.613 35.5078 103.613Z" fill="#008E3F"/>
<path fill-rule="evenodd" clip-rule="evenodd" d="M175.605 93.8788C178.032 93.8788 180 91.892 180 89.4422V4.25913C180 1.80936 178.032 -0.17749 175.605 -0.17749H69.0328C66.6063 -0.17749 64.6383 1.80936 64.6383 4.25913V22.2825H36.682C34.9459 22.2815 33.2462 22.7858 31.7866 23.735C30.3265 24.6846 29.1685 26.0391 28.4515 27.6362L13.7656 60.338H12.2379C5.4801 60.338 0 65.8706 0 72.6931V107.32C0 109.681 1.89391 111.6 4.23633 111.6H17.5775C19.5495 119.749 26.8291 125.796 35.5078 125.796C44.1865 125.796 51.4661 119.749 53.4381 111.6H65.6754C68.0178 111.6 69.9117 109.681 69.9117 107.32V106.275H128.069C128.054 106.578 128.047 106.882 128.047 107.189C128.047 117.48 136.311 125.823 146.504 125.823C156.698 125.823 164.961 117.48 164.961 107.189C164.961 106.882 164.954 106.578 164.939 106.275H168.747C171.172 106.275 173.145 104.292 173.145 101.839V93.8788H175.605ZM53.9444 106.277C53.4863 96.3967 45.4072 88.5286 35.5078 88.5286C25.6084 88.5286 17.5293 96.3967 17.0713 106.277H5.27344V91.9207H9.80966C14.9724 91.9207 19.1574 87.6957 19.1574 82.4835V79.4517C19.1574 77.9815 17.9769 76.7897 16.5206 76.7897H5.27344V72.6931C5.27344 68.8109 8.39255 65.6619 12.2379 65.6619H15.4652C15.5564 65.6619 15.6468 65.6572 15.7361 65.6479C15.829 65.6579 15.9233 65.663 16.0188 65.663H55.9177C57.0831 65.663 58.2009 65.1956 59.0251 64.3636C59.8492 63.5315 60.3122 62.4031 60.3122 61.2264V36.409C60.3122 35.2324 59.8492 34.1039 59.0251 33.2719C58.2009 32.4398 57.0832 31.9724 55.9177 31.9724H32.2944L33.2545 29.8343L33.2547 29.8339C33.553 29.1694 34.0348 28.6058 34.6423 28.2108C35.2499 27.8157 35.9574 27.6058 36.68 27.6064H64.6383V106.277H53.9444ZM5.27344 82.1136H13.8839V82.4835C13.8839 84.7553 12.06 86.5967 9.80966 86.5967H5.27344V82.1136ZM29.9034 37.2963L19.5553 60.3391H55.0388V37.2963H29.9034ZM167.871 93.8788V100.951H163.902C162.953 98.2535 161.406 95.8419 159.421 93.8788H167.871ZM133.587 93.8788H69.9117V100.951H129.106C130.055 98.2535 131.603 95.8419 133.587 93.8788ZM146.504 93.8788C153.785 93.8788 159.688 99.8379 159.688 107.189C159.688 114.54 153.785 120.499 146.504 120.499C139.223 120.499 133.32 114.54 133.32 107.189C133.32 99.8379 139.223 93.8788 146.504 93.8788ZM174.727 88.5549V5.14645H69.9117V88.5549H174.727ZM48.6914 107.162C48.6914 99.8116 42.7889 93.8526 35.5078 93.8526C28.2267 93.8526 22.3242 99.8116 22.3242 107.162C22.3242 114.513 28.2267 120.472 35.5078 120.472C42.7889 120.472 48.6914 114.513 48.6914 107.162Z" fill="#008E3F"/>
<path fill-rule="evenodd" clip-rule="evenodd" d="M107.292 37.3645C110.05 34.5802 114.521 34.5802 117.279 37.3645L120.128 40.2409C121.157 41.2805 122.827 41.2805 123.857 40.2409L126.706 37.3646C129.463 34.5805 133.935 34.5805 136.692 37.3646C139.45 40.1487 139.45 44.6628 136.692 47.4468L121.992 62.2878L107.292 47.4468C104.534 44.6628 104.534 40.1486 107.292 37.3645ZM122.464 62.7643C122.465 62.7646 122.465 62.7649 122.465 62.7652L122.465 62.7649L122.464 62.7643ZM121.52 62.7643C121.52 62.7646 121.52 62.7649 121.519 62.7652L121.52 62.7643ZM103.563 33.6001C108.38 28.7364 116.19 28.7364 121.008 33.6C121.008 33.6 121.008 33.6 121.008 33.6L121.992 34.594L122.977 33.6C127.794 28.7368 135.604 28.7368 140.421 33.6C145.238 38.4632 145.238 46.3482 140.421 51.2114L125.249 66.5292C124.821 66.961 124.313 67.3036 123.755 67.5373C123.196 67.7711 122.597 67.8913 121.992 67.8913C121.387 67.8913 120.789 67.7711 120.23 67.5373C119.671 67.3036 119.163 66.9612 118.736 66.5295C118.736 66.5294 118.736 66.5293 118.736 66.5292L103.563 51.2114C98.7461 46.3483 98.7461 38.4633 103.563 33.6001Z" fill="#008E3F"/>
</g>
<defs>
<clipPath id="clip0_891_3316">
<rect width="180" height="126" fill="white" transform="matrix(-1 0 0 1 180 0)"/>
</clipPath>
</defs>
</svg>
