<svg width="160" height="160" viewBox="0 0 160 160" fill="none" xmlns="http://www.w3.org/2000/svg">
<path d="M77.8236 3.3955L8.77141 36.7305C8.34716 36.9354 7.98926 37.2557 7.73881 37.6547C7.48836 38.0538 7.35549 38.5153 7.35547 38.9864V121.013C7.35553 121.484 7.48841 121.946 7.73886 122.345C7.98931 122.744 8.34718 123.064 8.77141 123.269L77.8236 156.605C78.5029 156.933 79.2474 157.103 80.0017 157.103C80.756 157.103 81.5006 156.933 82.1798 156.605L151.232 123.269C151.656 123.064 152.014 122.744 152.265 122.345C152.515 121.946 152.648 121.484 152.648 121.013V38.9868C152.648 38.5156 152.515 38.0541 152.265 37.6551C152.014 37.256 151.656 36.9357 151.232 36.7308L82.1798 3.3955C81.5006 3.06755 80.756 2.89722 80.0017 2.89722C79.2474 2.89722 78.5029 3.06755 77.8236 3.3955Z" fill="#34AF6B"/>
<path d="M7.77203 37.615C7.502 38.0215 7.35716 38.4982 7.35547 38.9862V121.013C7.35549 121.484 7.48836 121.945 7.73881 122.345C7.98926 122.744 8.34716 123.064 8.77141 123.269L77.8236 156.605C78.5028 156.933 79.2474 157.103 80.0017 157.103V72.4847L7.77203 37.615Z" fill="#34AF6B"/>
<path d="M152.23 37.615C152.5 38.0215 152.645 38.4982 152.646 38.9862V121.013C152.646 121.484 152.513 121.945 152.263 122.345C152.012 122.744 151.655 123.064 151.23 123.269L82.1781 156.605C81.4989 156.933 80.7543 157.103 80 157.103V72.4847L152.23 37.615Z" fill="#34AF6B"/>
<path d="M127.754 49.3913L55.2709 14.375L36.1641 23.6363L108.81 58.7072L127.754 49.3913Z" fill="#FFB61F"/>
<path d="M108.809 58.7073V85.876C108.809 86.7995 109.774 87.4054 110.606 87.0039L126.337 79.4095C126.761 79.2047 127.119 78.8844 127.37 78.4853C127.62 78.0863 127.753 77.6247 127.753 77.1535V49.3914L108.809 58.7073Z" fill="#FFB61F"/>
<path d="M153.667 35.3032L81.0208 0.233205C80.703 0.0798761 80.3547 0.000244141 80.0019 0.000244141C79.649 0.000244141 79.3008 0.0798761 78.983 0.233205L6.33641 35.3032C5.93948 35.4949 5.60464 35.7945 5.37032 36.1679C5.13601 36.5412 5.01172 36.9731 5.01172 37.4138V122.585C5.01172 123.026 5.13601 123.458 5.37032 123.831C5.60464 124.205 5.93948 124.504 6.33641 124.696L78.9827 159.767C79.3005 159.92 79.6488 160 80.0017 160C80.3546 160 80.7029 159.92 81.0208 159.767L153.667 124.696C154.064 124.504 154.399 124.205 154.633 123.831C154.867 123.458 154.992 123.026 154.992 122.585V37.4141C154.992 36.9733 154.867 36.5415 154.633 36.1681C154.399 35.7947 154.064 35.495 153.667 35.3032ZM80.0017 4.94633L147.257 37.4141L127.761 46.826C127.638 46.7295 127.505 46.6457 127.364 46.576L60.5658 14.3291L80.0017 4.94633ZM55.2727 16.9791L122.43 49.3998L108.675 56.0401L41.5458 23.6323L55.2727 16.9791ZM111.154 60.0488L124.001 53.8463V78.392L111.154 84.5945V60.0488ZM82.3455 153.922V73.9557L98.5558 66.1301C98.8329 65.9963 99.081 65.8092 99.2859 65.5794C99.4908 65.3497 99.6484 65.0819 99.7497 64.7913C99.8511 64.5007 99.8942 64.193 99.8767 63.8857C99.8591 63.5784 99.7812 63.2776 99.6473 63.0004C99.5135 62.7232 99.3264 62.4751 99.0967 62.2703C98.867 62.0654 98.5992 61.9078 98.3086 61.8064C98.0179 61.7051 97.7102 61.6619 97.4029 61.6795C97.0956 61.6971 96.7948 61.775 96.5177 61.9088L80.0017 69.8823L73.503 66.7448C72.337 66.1813 70.9361 66.6707 70.3733 67.8363C69.8105 69.002 70.2992 70.4032 71.4648 70.966L77.658 73.9557V153.922L9.69922 121.114V41.1479L61.4492 66.1307C61.7663 66.2845 62.114 66.3644 62.4664 66.3645C62.9975 66.3651 63.5131 66.1853 63.9287 65.8546C64.3443 65.5239 64.6353 65.0618 64.7539 64.5441C64.8725 64.0264 64.8117 63.4837 64.5816 63.0051C64.3514 62.5264 63.9655 62.1401 63.487 61.9095L12.7464 37.4138L36.0292 26.1738L106.434 60.1626C106.444 60.177 106.455 60.1898 106.466 60.2038V88.3285C106.466 88.7252 106.567 89.1154 106.759 89.4625C106.951 89.8096 107.228 90.1023 107.564 90.3132C107.9 90.5241 108.284 90.6463 108.68 90.6683C109.076 90.6903 109.472 90.6115 109.829 90.4391L127.364 81.9738C127.761 81.7822 128.096 81.4825 128.33 81.1092C128.565 80.7358 128.689 80.304 128.689 79.8632V51.5835L150.304 41.1485V121.115L82.3455 153.922Z" fill="#008E3F"/>
<path d="M29.0394 112.025L18.3785 106.878C17.8187 106.608 17.1745 106.571 16.5875 106.776C16.0006 106.981 15.519 107.41 15.2488 107.97C14.9785 108.53 14.9417 109.174 15.1464 109.761C15.3511 110.348 15.7806 110.829 16.3403 111.1L27.0013 116.246C27.3183 116.4 27.6661 116.48 28.0185 116.48C28.4596 116.48 28.8918 116.356 29.2654 116.122C29.6391 115.887 29.939 115.552 30.1306 115.155C30.2645 114.878 30.3425 114.577 30.3601 114.269C30.3777 113.962 30.3346 113.654 30.2333 113.364C30.132 113.073 29.9744 112.805 29.7695 112.576C29.5647 112.346 29.3166 112.159 29.0394 112.025ZM38.851 105.638L18.3931 95.7618C17.8347 95.5018 17.1963 95.472 16.6161 95.679C16.0358 95.8859 15.5604 96.313 15.2926 96.8678C15.0248 97.4226 14.9861 98.0605 15.185 98.6435C15.3839 99.2266 15.8043 99.7079 16.3553 99.9834L36.8131 109.86C37.1302 110.013 37.478 110.093 37.8303 110.093C38.3616 110.094 38.8773 109.915 39.2931 109.584C39.7088 109.253 39.9998 108.791 40.1184 108.273C40.2371 107.755 40.1762 107.212 39.946 106.734C39.7157 106.255 39.3296 105.869 38.851 105.638Z" fill="#008E3F"/>
</svg>
