<svg width="60" height="60" viewBox="0 0 60 60" fill="none" xmlns="http://www.w3.org/2000/svg">
<path d="M8.64062 50.0006H17.2853C17.534 50.0006 17.7724 49.9018 17.9482 49.726C18.124 49.5502 18.2228 49.3117 18.2228 49.0631V47.6897H21.7806L24.6541 50.2659C25.9082 51.391 27.5339 52.0127 29.2188 52.0115H34.4688V53.8865C34.4688 55.4187 35.0774 56.888 36.1608 57.9714C37.2441 59.0548 38.7135 59.6634 40.2456 59.6634C41.7777 59.6634 43.2471 59.0548 44.3305 57.9714C45.4139 56.888 46.0225 55.4187 46.0225 53.8865V52.0115H46.2278C47.0782 52.0394 47.9051 51.7297 48.5279 51.1501C49.1507 50.5705 49.519 49.768 49.5522 48.9178V47.3297C49.5517 46.7709 49.391 46.2239 49.0891 45.7537C49.6149 45.51 50.0613 45.1231 50.3772 44.6372C50.6931 44.1514 50.8656 43.5863 50.875 43.0069V41.4244C50.8729 41.0188 50.7883 40.618 50.6261 40.2463C50.4639 39.8746 50.2277 39.5398 49.9319 39.2625C50.2277 38.9851 50.4639 38.6504 50.6261 38.2787C50.7883 37.907 50.8729 37.5061 50.875 37.1006V35.5172C50.8656 34.9379 50.693 34.3729 50.3771 33.8872C50.0612 33.4016 49.6148 33.0148 49.0891 32.7712C49.3911 32.3007 49.5518 31.7535 49.5522 31.1943V29.6109C49.519 28.7607 49.1507 27.9582 48.5279 27.3786C47.9051 26.799 47.0782 26.4893 46.2278 26.5172H46.0188V21.315C47.9123 20.2821 49.4936 18.7593 50.597 16.9059C51.7005 15.0526 52.2857 12.9368 52.2914 10.7798C52.297 8.6228 51.7229 6.50394 50.6292 4.64483C49.5354 2.78572 47.9622 1.25467 46.0741 0.211851C45.9314 0.132949 45.7706 0.0926088 45.6076 0.0948122C45.4446 0.0970156 45.285 0.141686 45.1446 0.224415C45.0041 0.307144 44.8876 0.425072 44.8066 0.56656C44.7257 0.708048 44.683 0.868205 44.6828 1.03123V10.1934L40.2437 12.5784L35.8047 10.1934V1.03123C35.8045 0.868205 35.7618 0.708048 35.6809 0.56656C35.5999 0.425072 35.4834 0.307144 35.3429 0.224415C35.2025 0.141686 35.0429 0.0970156 34.8799 0.0948122C34.7169 0.0926088 34.5561 0.132949 34.4134 0.211851C32.5247 1.25417 30.9509 2.785 29.8567 4.64411C28.7625 6.50323 28.1881 8.62229 28.1937 10.7795C28.1992 12.9367 28.7845 15.0528 29.8883 16.9063C30.9921 18.7597 32.5738 20.2824 34.4678 21.315V21.7837H29.5647C28.4702 21.7841 27.3918 22.0469 26.4199 22.5501C25.448 23.0533 24.611 23.7823 23.9791 24.6759L21.6541 27.9675H18.2228V26.594C18.2228 26.3454 18.124 26.1069 17.9482 25.9311C17.7724 25.7553 17.534 25.6565 17.2853 25.6565H8.64062C8.39198 25.6565 8.15353 25.7553 7.97771 25.9311C7.8019 26.1069 7.70312 26.3454 7.70312 26.594V49.0631C7.70312 49.3117 7.8019 49.5502 7.97771 49.726C8.15353 49.9018 8.39198 50.0006 8.64062 50.0006ZM16.3478 48.1256H9.57812V43.9444H16.3478V48.1256ZM44.1541 53.8809C44.1541 54.9158 43.743 55.9082 43.0112 56.64C42.2795 57.3717 41.287 57.7828 40.2522 57.7828C39.2173 57.7828 38.2249 57.3717 37.4931 56.64C36.7614 55.9082 36.3503 54.9158 36.3503 53.8809V52.0059H38.1006C37.9593 52.3763 37.9101 52.7755 37.9572 53.1691C38.0044 53.5627 38.1465 53.9389 38.3714 54.2654C38.5962 54.5919 38.897 54.8588 39.248 55.0433C39.5989 55.2277 39.9894 55.324 40.3858 55.324C40.7822 55.324 41.1727 55.2277 41.5236 55.0433C41.8745 54.8588 42.1754 54.5919 42.4002 54.2654C42.6251 53.9389 42.7672 53.5627 42.8143 53.1691C42.8615 52.7755 42.8123 52.3763 42.6709 52.0059H44.1541V53.8809ZM40.7922 53.2847C40.7119 53.3648 40.6097 53.4194 40.4984 53.4415C40.3871 53.4636 40.2718 53.4522 40.167 53.4087C40.0622 53.3653 39.9726 53.2918 39.9096 53.1974C39.8466 53.1031 39.813 52.9922 39.813 52.8787C39.813 52.7653 39.8466 52.6544 39.9096 52.56C39.9726 52.4657 40.0622 52.3922 40.167 52.3487C40.2718 52.3053 40.3871 52.2939 40.4984 52.316C40.6097 52.338 40.7119 52.3926 40.7922 52.4728C40.8987 52.5813 40.9581 52.7274 40.9574 52.8795C40.9567 53.0316 40.896 53.1772 40.7884 53.2847H40.7922ZM36.3428 21.6815H44.1456V26.5125H36.3428V21.6815ZM30.0691 10.7531C30.0704 9.21896 30.4183 7.70493 31.0868 6.32409C31.7553 4.94326 32.7271 3.7313 33.9297 2.77873V10.7531C33.9297 10.9226 33.9756 11.0889 34.0626 11.2343C34.1496 11.3797 34.2744 11.4989 34.4237 11.579L39.7994 14.4694C39.9358 14.5427 40.0884 14.5811 40.2433 14.5811C40.3982 14.5811 40.5507 14.5427 40.6872 14.4694L46.0647 11.579C46.2138 11.4988 46.3384 11.3796 46.4253 11.2341C46.5121 11.0887 46.5579 10.9225 46.5578 10.7531V2.77966C47.8965 3.83665 48.9472 5.214 49.6128 6.78443C50.2784 8.35487 50.5374 10.0677 50.3659 11.7648C50.1945 13.4618 49.598 15.0882 48.6318 16.4938C47.6655 17.8993 46.3605 19.0387 44.8375 19.8065H35.65C33.969 18.9668 32.5559 17.6744 31.5699 16.0748C30.5839 14.4752 30.0641 12.6321 30.0691 10.7531ZM22.1397 29.8425C22.2898 29.8425 22.4377 29.8065 22.571 29.7375C22.7043 29.6685 22.819 29.5685 22.9056 29.4459L25.51 25.7606C25.9688 25.1121 26.5765 24.583 27.282 24.2178C27.9875 23.8525 28.7703 23.6618 29.5647 23.6615H34.4678V26.5125H30.5744V28.3875H46.2306C46.5836 28.3606 46.9331 28.4731 47.2041 28.701C47.4751 28.9288 47.6459 29.2538 47.68 29.6062V31.1897C47.6473 31.5431 47.4771 31.8695 47.2059 32.0985C46.9348 32.3276 46.5845 32.4409 46.2306 32.414H40.2437V34.289H47.5563C47.9092 34.2621 48.2586 34.3747 48.5294 34.6026C48.8002 34.8305 48.9709 35.1555 49.0047 35.5078V37.0912C48.9722 37.4446 48.8022 37.771 48.5312 38C48.2602 38.2291 47.9101 38.3424 47.5563 38.3156H40.2437V40.1906H47.5563C47.9101 40.1638 48.2602 40.2771 48.5312 40.5062C48.8022 40.7352 48.9722 41.0616 49.0047 41.415V42.9975C48.9722 43.3508 48.8022 43.6772 48.5312 43.9063C48.2602 44.1353 47.9101 44.2487 47.5563 44.2219H40.2437V46.0969H46.2306C46.5836 46.0699 46.9331 46.1825 47.2041 46.4103C47.4751 46.6382 47.6459 46.9632 47.68 47.3156V48.899C47.6462 49.2515 47.4754 49.5767 47.2044 49.8046C46.9333 50.0325 46.5837 50.145 46.2306 50.1178H29.2216C27.9983 50.1186 26.818 49.6672 25.9075 48.8503L22.765 46.0378C22.5931 45.8839 22.3704 45.7987 22.1397 45.7987H18.2228V29.8425H22.1397ZM16.3478 27.5315V42.0694H9.57812V27.5315H16.3478Z" fill="#008E3F"/>
<path d="M12.9634 44.97C12.7502 44.9698 12.5416 45.0329 12.3642 45.1512C12.1868 45.2696 12.0485 45.4379 11.9667 45.6349C11.885 45.8319 11.8635 46.0487 11.905 46.2579C11.9465 46.4671 12.0491 46.6592 12.1998 46.8101C12.3506 46.961 12.5427 47.0638 12.7518 47.1054C12.961 47.1471 13.1778 47.1258 13.3749 47.0443C13.5719 46.9627 13.7404 46.8245 13.8589 46.6472C13.9774 46.4699 14.0406 46.2614 14.0406 46.0481C14.0406 45.7623 13.9272 45.4882 13.7252 45.2861C13.5232 45.0839 13.2492 44.9702 12.9634 44.97Z" fill="#008E3F"/>
<path fill-rule="evenodd" clip-rule="evenodd" d="M46.0204 26.5172V21.315C47.914 20.2821 49.4953 18.7593 50.5987 16.9059C51.7022 15.0526 52.2874 12.9368 52.293 10.7798C52.2987 8.6228 51.7246 6.50394 50.6309 4.64483C49.5371 2.78572 47.9639 1.25467 46.0758 0.211851C45.9331 0.132949 45.7723 0.0926088 45.6093 0.0948122C45.4463 0.0970156 45.2867 0.141686 45.1462 0.224415C45.0058 0.307144 44.8893 0.425072 44.8083 0.56656C44.7274 0.708048 44.6847 0.868205 44.6845 1.03123V10.1934L40.2454 12.5784L35.8064 10.1934V1.03123C35.8062 0.868205 35.7635 0.708048 35.6826 0.56656C35.6016 0.425072 35.4851 0.307144 35.3446 0.224415C35.2042 0.141686 35.0446 0.0970156 34.8815 0.0948122C34.7185 0.0926088 34.5578 0.132949 34.4151 0.211851C32.5264 1.25417 30.9526 2.785 29.8584 4.64411C28.7642 6.50323 28.1898 8.62229 28.1954 10.7795C28.2009 12.9367 28.7862 15.0528 29.89 16.9063C30.9938 18.7597 32.5755 20.2824 34.4695 21.315V21.7837V23.6615V26.5125H36.3445V21.6815H44.1473V26.5125L46.0204 26.5172ZM31.0885 6.32409C30.42 7.70493 30.0721 9.21896 30.0708 10.7531C30.0658 12.6321 30.5856 14.4752 31.5716 16.0748C32.5576 17.6744 33.9707 18.9668 35.6517 19.8065H44.8392C46.3622 19.0387 47.6672 17.8993 48.6335 16.4938C49.5997 15.0882 50.1962 13.4618 50.3676 11.7648C50.5391 10.0677 50.28 8.35487 49.6145 6.78443C48.9489 5.214 47.8982 3.83665 46.5595 2.77966V10.7531C46.5596 10.9225 46.5138 11.0887 46.427 11.2341C46.3401 11.3796 46.2155 11.4988 46.0664 11.579L40.6889 14.4694C40.5524 14.5427 40.3999 14.5811 40.245 14.5811C40.09 14.5811 39.9375 14.5427 39.8011 14.4694L34.4254 11.579C34.2761 11.4989 34.1513 11.3797 34.0643 11.2343C33.9773 11.0889 33.9314 10.9226 33.9314 10.7531V2.77873C32.7288 3.7313 31.757 4.94326 31.0885 6.32409Z" fill="#FFB111"/>
<path d="M34.4704 52.0115V53.8865C34.4704 55.4187 35.0791 56.888 36.1624 57.9714C37.2458 59.0548 38.7152 59.6634 40.2473 59.6634C41.7794 59.6634 43.2488 59.0548 44.3322 57.9714C45.4156 56.888 46.0242 55.4187 46.0242 53.8865V52.0115L44.1557 52.0059V53.8809C44.1557 54.9158 43.7447 55.9082 43.0129 56.64C42.2812 57.3717 41.2887 57.7828 40.2539 57.7828C39.219 57.7828 38.2266 57.3717 37.4948 56.64C36.7631 55.9082 36.352 54.9158 36.352 53.8809V52.0059L34.4704 52.0115Z" fill="#FFB111"/>
<path fill-rule="evenodd" clip-rule="evenodd" d="M38.1023 52.0059C37.961 52.3763 37.9117 52.7755 37.9589 53.1691C38.0061 53.5627 38.1482 53.9389 38.373 54.2654C38.5979 54.5919 38.8987 54.8588 39.2496 55.0433C39.6006 55.2277 39.9911 55.324 40.3875 55.324C40.7839 55.324 41.1744 55.2277 41.5253 55.0433C41.8762 54.8588 42.1771 54.5919 42.4019 54.2654C42.6268 53.9389 42.7689 53.5627 42.816 53.1691C42.8632 52.7755 42.814 52.3763 42.6726 52.0059H38.1023ZM40.5001 53.4415C40.6114 53.4194 40.7136 53.3648 40.7939 53.2847H40.7901C40.8977 53.1772 40.9584 53.0316 40.9591 52.8795C40.9598 52.7274 40.9004 52.5813 40.7939 52.4728C40.7136 52.3926 40.6114 52.338 40.5001 52.316C40.3888 52.2939 40.2735 52.3053 40.1687 52.3487C40.0639 52.3922 39.9743 52.4657 39.9113 52.56C39.8483 52.6544 39.8147 52.7653 39.8147 52.8787C39.8147 52.9922 39.8483 53.1031 39.9113 53.1974C39.9743 53.2918 40.0639 53.3653 40.1687 53.4087C40.2735 53.4522 40.3888 53.4636 40.5001 53.4415Z" fill="#FFB111"/>
</svg>
