<svg width="28" height="28" viewBox="0 0 28 28" fill="none" xmlns="http://www.w3.org/2000/svg">
<g clip-path="url(#clip0_887_2225)">
<circle cx="14" cy="12" r="10" fill="white"/>
<path d="M16.8009 0H11.2007C5.79654 0 1.40039 4.39615 1.40039 9.80034V14.0005C1.40039 17.7981 3.58797 21.2387 7.00059 22.8593V27.539C7.00059 27.945 7.5081 28.155 7.79511 27.868L11.8623 23.8043H16.8009C22.2051 23.8043 26.6013 19.4082 26.6013 14.0005V9.80034C26.6013 4.39615 22.2051 0 16.8009 0ZM20.4691 18.369L19.0515 19.755C17.5605 21.2146 13.6683 19.5485 10.2382 16.0449C6.80808 12.5378 5.30303 8.61065 6.72058 7.1511L8.13812 5.76505C8.65964 5.25403 9.54517 5.26453 10.1297 5.78605L12.1738 7.87562C12.9018 8.62115 12.5938 9.87069 11.6312 10.1577C10.9662 10.3712 10.5147 11.1027 10.7282 11.7678C11.0817 13.3218 13.0523 15.2644 14.5223 15.6494C15.1839 15.8034 15.9259 15.4429 16.1569 14.7814C16.4614 13.8258 17.718 13.5423 18.4495 14.2913L20.4901 16.3774C21.0011 16.8986 20.9941 17.7845 20.4691 18.369ZM15.2749 6.65023C15.1349 6.65023 14.9949 6.65723 14.8584 6.67473C14.6028 6.70273 14.3718 6.51723 14.3438 6.26172C14.3158 6.00621 14.5013 5.7752 14.7569 5.7472C14.9284 5.7262 15.1034 5.7192 15.2749 5.7192C17.8475 5.7192 19.9405 7.81227 19.9405 10.3849C19.9405 10.5564 19.9335 10.7314 19.9125 10.9029C19.8845 11.1549 19.65 11.3439 19.398 11.3159C19.146 11.2879 18.957 11.0534 18.985 10.8014C18.999 10.6649 19.0095 10.5249 19.0095 10.3849C19.0095 8.32679 17.3329 6.65023 15.2749 6.65023ZM18.075 10.3849C18.075 10.6404 17.8615 10.8504 17.606 10.8504C17.3539 10.8504 17.1404 10.6404 17.1404 10.3849C17.1404 9.35583 16.3039 8.5193 15.2749 8.5193C15.0159 8.5193 14.8059 8.30929 14.8059 8.05028C14.8059 7.79477 15.0159 7.58476 15.2749 7.58476C16.8184 7.58476 18.075 8.84131 18.075 10.3849ZM21.6346 11.8934C21.5751 12.1454 21.3056 12.3029 21.0571 12.2364C20.8156 12.1699 20.6686 11.9179 20.7246 11.6764C20.8261 11.2564 20.8751 10.8224 20.8751 10.3849C20.8751 7.29775 18.362 4.78467 15.2749 4.78467C15.1314 4.78467 14.9844 4.78817 14.8409 4.80217C14.5853 4.81967 14.3613 4.62716 14.3403 4.37165C14.3228 4.11264 14.5153 3.88864 14.7709 3.87113C14.9389 3.85713 15.1069 3.85013 15.2749 3.85013C18.8765 3.85013 21.8096 6.78324 21.8096 10.3849C21.8096 10.8924 21.7501 11.3999 21.6346 11.8934Z" fill="#665CAC"/>
</g>
<defs>
<clipPath id="clip0_887_2225">
<rect width="28" height="28" fill="white"/>
</clipPath>
</defs>
</svg>
