<svg width="34" height="34" viewBox="0 0 34 34" fill="none" xmlns="http://www.w3.org/2000/svg">
<g clip-path="url(#clip0_892_5002)">
<path d="M28.6499 0.125H5.3501C4.80403 0.125 4.36133 0.567705 4.36133 1.11377V32.8862C4.36133 33.4323 4.80403 33.875 5.3501 33.875H9.58645C10.1325 33.875 10.5752 33.4323 10.5752 32.8862V29.1091H23.4249V32.8862C23.4249 33.4323 23.8676 33.875 24.4136 33.875H28.65C29.1961 33.875 29.6388 33.4323 29.6388 32.8862V1.11377C29.6386 0.567705 29.196 0.125 28.6499 0.125ZM14.8818 24.3433H9.58645C9.04038 24.3433 8.59768 23.9006 8.59768 23.3545C8.59768 22.8084 9.04038 22.3657 9.58645 22.3657H14.8818C15.4279 22.3657 15.8706 22.8084 15.8706 23.3545C15.8706 23.9006 15.4279 24.3433 14.8818 24.3433ZM18.059 20.1069H9.58638C9.04032 20.1069 8.59761 19.6642 8.59761 19.1181C8.59761 18.5721 9.04032 18.1294 9.58638 18.1294H18.059C18.6051 18.1294 19.0478 18.5721 19.0478 19.1181C19.0478 19.6642 18.6052 20.1069 18.059 20.1069ZM8.59761 14.8819C8.59761 14.3358 9.04032 13.8931 9.58638 13.8931H14.8818C15.4278 13.8931 15.8705 14.3358 15.8705 14.8819C15.8705 15.4279 15.4278 15.8706 14.8818 15.8706H9.58638C9.04032 15.8706 8.59761 15.4279 8.59761 14.8819ZM18.059 11.6343H9.58638C9.04032 11.6343 8.59761 11.1916 8.59761 10.6455C8.59761 10.0994 9.04032 9.65674 9.58638 9.65674H18.059C18.6051 9.65674 19.0478 10.0994 19.0478 10.6455C19.0478 11.1916 18.6052 11.6343 18.059 11.6343ZM20.1772 6.86841H13.8227C13.2767 6.86841 12.834 6.4257 12.834 5.87964C12.834 5.33357 13.2767 4.89087 13.8227 4.89087H20.1772C20.7233 4.89087 21.166 5.33357 21.166 5.87964C21.166 6.4257 20.7233 6.86841 20.1772 6.86841ZM24.4136 24.3433H22.2954C21.7493 24.3433 21.3066 23.9006 21.3066 23.3545C21.3066 22.8084 21.7493 22.3657 22.2954 22.3657H24.4136C24.9596 22.3657 25.4023 22.8084 25.4023 23.3545C25.4023 23.9006 24.9596 24.3433 24.4136 24.3433ZM24.4136 20.1069H22.2954C21.7493 20.1069 21.3066 19.6642 21.3066 19.1181C21.3066 18.5721 21.7493 18.1294 22.2954 18.1294H24.4136C24.9596 18.1294 25.4023 18.5721 25.4023 19.1181C25.4023 19.6642 24.9596 20.1069 24.4136 20.1069ZM24.4136 15.8706H22.2954C21.7493 15.8706 21.3066 15.4279 21.3066 14.8819C21.3066 14.3358 21.7493 13.8931 22.2954 13.8931H24.4136C24.9596 13.8931 25.4023 14.3358 25.4023 14.8819C25.4023 15.4279 24.9596 15.8706 24.4136 15.8706ZM24.4136 11.6343H22.2954C21.7493 11.6343 21.3066 11.1916 21.3066 10.6455C21.3066 10.0994 21.7493 9.65674 22.2954 9.65674H24.4136C24.9596 9.65674 25.4023 10.0994 25.4023 10.6455C25.4023 11.1916 24.9596 11.6343 24.4136 11.6343Z" fill="white"/>
</g>
<defs>
<clipPath id="clip0_892_5002">
<rect width="33.75" height="33.75" fill="white" transform="translate(0.125 0.125)"/>
</clipPath>
</defs>
</svg>
