<svg width="28" height="28" viewBox="0 0 28 28" fill="none" xmlns="http://www.w3.org/2000/svg">
<g clip-path="url(#clip0_887_2216)">
<path d="M0.667969 13.466C0.667969 7.43202 0.667969 4.41505 2.54249 2.54053C4.417 0.666016 7.43397 0.666016 13.468 0.666016H14.5346C20.5686 0.666016 23.5856 0.666016 25.4601 2.54053C27.3346 4.41505 27.3346 7.43202 27.3346 13.466V14.5327C27.3346 20.5667 27.3346 23.5836 25.4601 25.4582C23.5856 27.3327 20.5686 27.3327 14.5346 27.3327H13.468C7.43397 27.3327 4.417 27.3327 2.54249 25.4582C0.667969 23.5836 0.667969 20.5667 0.667969 14.5327V13.466Z" fill="#0077FF"/>
<path d="M14.7727 19.9994C8.85061 19.9994 5.47278 15.7451 5.33203 8.66602H8.29851C8.39595 13.8619 10.5829 16.0627 12.3151 16.5165V8.66602H15.1085V13.1472C16.8191 12.9543 18.6161 10.9123 19.2224 8.66602H22.0157C21.5501 11.4341 19.6013 13.4762 18.2155 14.3157C19.6013 14.9963 21.8209 16.7775 22.6654 19.9994H19.5905C18.9301 17.8439 17.2846 16.1762 15.1085 15.9493V19.9994H14.7727Z" fill="white"/>
</g>
<defs>
<clipPath id="clip0_887_2216">
<rect width="28" height="28" fill="white"/>
</clipPath>
</defs>
</svg>
