<svg width="60" height="60" viewBox="0 0 60 60" fill="none" xmlns="http://www.w3.org/2000/svg">
<path d="M8.48905 33.1885L7.26271 40.3831C7.18095 40.7101 7.34446 41.0371 7.58973 41.2006C7.835 41.3641 8.16202 41.3641 8.48905 41.2824L14.9478 37.9304L18.0545 39.5655C18.4633 39.8108 18.9538 39.6472 19.1991 39.2385C19.4443 38.8297 19.2808 38.3392 18.872 38.0939L15.3565 36.2135C15.1113 36.05 14.866 36.05 14.6207 36.2135L9.14309 38.9932L10.1242 33.025C10.2059 32.7798 10.0424 32.4527 9.8789 32.2892L5.54583 28.1197L11.514 27.3021C11.7593 27.3021 12.0045 27.0568 12.1681 26.8933L14.866 21.4974L15.8471 23.5413C16.0106 23.9501 16.5011 24.1136 16.9099 23.9501C17.3187 23.7866 17.4822 23.2961 17.3187 22.8873L15.6018 19.3718C15.4383 19.1265 15.193 18.8813 14.866 18.8813C14.539 18.8813 14.2937 19.0448 14.1302 19.3718L10.9417 25.9123L3.7472 26.7298C3.42018 26.8116 3.17491 26.9751 3.09316 27.3021C3.0114 27.6291 3.09316 27.9562 3.33843 28.1197L8.48905 33.1885ZM49.04 25.667L45.8515 19.1265C45.688 18.8813 45.4427 18.636 45.1157 18.636C44.7887 18.636 44.5434 18.7995 44.3799 19.1265L42.663 22.642C42.4995 23.0508 42.663 23.5413 43.0718 23.7049C43.4806 23.8684 43.9711 23.7049 44.1346 23.2961L45.1157 21.2522L47.8136 26.6481C47.8954 26.8933 48.1406 27.0568 48.4677 27.0568L54.4359 27.9562L50.1028 32.1257C49.9393 32.2892 49.8575 32.6162 49.8575 32.8615L50.8386 38.8297L45.5245 36.2135C45.2792 36.05 45.0339 36.05 44.7887 36.2135L41.2732 38.0939C40.8644 38.3392 40.7009 38.8297 40.9461 39.2385C41.1914 39.6472 41.6819 39.8108 42.009 39.5655L45.1157 37.9304L51.4926 41.2824C51.5744 41.3641 51.7379 41.3641 51.9014 41.3641C52.392 41.3641 52.8007 40.8736 52.719 40.3831L51.4926 33.1885L56.725 28.1197C56.9703 27.8744 57.052 27.5474 56.9703 27.3021C56.8885 27.0568 56.5615 26.7298 56.2345 26.7298L49.04 25.667Z" fill="#008E3F"/>
<path d="M20.4249 44.6343C20.6702 44.7978 20.9972 44.8796 21.3242 44.7161L29.9903 40.1377L38.6565 44.7161C38.7382 44.7978 38.9017 44.7978 39.0652 44.7978C39.5558 44.7978 39.9646 44.3073 39.8828 43.8168L38.2477 34.1696L45.2787 27.3021C45.5239 27.0568 45.6057 26.7298 45.524 26.4845C45.4422 26.1575 45.1969 25.994 44.8699 25.9122L35.141 24.5224L30.8079 15.6927C30.6444 15.4475 30.3991 15.2022 30.0721 15.2022C29.7451 15.2022 29.4998 15.3657 29.3363 15.6927L25.0032 24.5224L15.1925 25.9122C14.8655 25.994 14.6202 26.1575 14.5385 26.4845C14.4567 26.8115 14.5385 27.1386 14.7837 27.3021L21.8147 34.1696L20.1796 43.8168C20.0161 44.1438 20.1796 44.4708 20.4249 44.6343ZM17.0729 27.3021L25.5755 26.0757C25.8208 26.0757 26.0661 25.8305 26.2296 25.667L30.0721 17.9819L33.8329 25.667C33.9146 25.9122 34.1599 26.0757 34.4869 26.0757L42.9895 27.3021L36.7761 33.2702C36.6126 33.4338 36.5308 33.7608 36.5308 34.0061L38.0024 42.5087L30.3991 38.5026C30.1538 38.3391 29.9086 38.3391 29.6633 38.5026L22.06 42.5087L23.4499 34.0061C23.5316 33.7608 23.3681 33.4338 23.2046 33.2702L17.0729 27.3021ZM22.616 53.2596L25.7031 49.556L26.9588 50.6025L23.8717 54.306L22.616 53.2596ZM29.1728 51.3383H30.8079V56.1619H29.1728V51.3383ZM32.9949 50.6066L34.2506 49.5601L37.3377 53.2645L36.082 54.3109L32.9949 50.6066ZM22.6642 6.76499L23.92 5.71852L27.0071 9.4237L25.7513 10.4702L22.6642 6.76499ZM29.1728 3.83813H30.8079V8.66173H29.1728V3.83813ZM32.9908 9.43678L36.0779 5.73242L37.3336 6.77889L34.2465 10.4824L32.9908 9.43678Z" fill="#FFB111"/>
</svg>
