<svg width="36" height="36" viewBox="0 0 36 36" fill="none" xmlns="http://www.w3.org/2000/svg">
<path d="M14.6777 19.1074H20.2193V14.6777H8.63343L10.3123 10.9191C10.4884 10.5116 10.8881 10.248 11.3311 10.248H18.1639C17.9502 9.12844 17.9468 8.06864 18.1683 6.92578H11.3311C9.55702 6.92578 7.95901 7.98005 7.26022 9.61017L4.85933 15.2137C3.46066 15.959 2.49609 17.4153 2.49609 19.1074V21.3223C2.49609 22.9546 3.39311 24.3677 4.71094 25.1362V29.0742C4.71094 30.2957 5.7043 31.2891 6.92578 31.2891H10.248C11.4695 31.2891 12.4629 30.2957 12.4629 29.0742V25.752H20.2193V21.3223H14.6777C14.0664 21.3223 13.5703 20.8261 13.5703 20.2148C13.5703 19.6035 14.0664 19.1074 14.6777 19.1074ZM8.58691 22.9834C7.05756 22.9834 5.81836 21.7442 5.81836 20.2148C5.81836 18.6855 7.05756 17.4463 8.58691 17.4463C10.1163 17.4463 11.3555 18.6855 11.3555 20.2148C11.3555 21.7442 10.1163 22.9834 8.58691 22.9834Z" fill="white"/>
<path d="M33.4173 7.45402C32.9599 4.83276 30.7606 2.95789 29.5003 2.57583C29.2877 2.5116 29.0784 2.67993 29.0784 2.90141V8.45735C29.0784 8.87706 28.8414 9.26023 28.466 9.44738L27.3586 10.0011C27.0463 10.1572 26.6797 10.1572 26.3685 10.0011L25.2611 9.44738C24.8857 9.26023 24.6487 8.87595 24.6487 8.45735V2.90141C24.6487 2.67882 24.4383 2.51049 24.2246 2.57583C22.9632 2.96675 20.765 4.87041 20.3109 7.46953C19.9211 9.70209 20.7583 11.8915 22.0795 13.2137C22.2965 13.4308 22.4328 13.711 22.4328 14.0177V29.0753C22.4328 31.5205 24.415 33.5028 26.8602 33.5028C29.3054 33.5028 31.2877 31.5205 31.2877 29.0753L31.291 14.0232C31.291 13.7132 31.4317 13.4275 31.6509 13.2071C32.981 11.8782 33.806 9.67883 33.4173 7.45402ZM26.8691 30.7354C25.9521 30.7354 25.208 29.9912 25.208 29.0742C25.208 28.1573 25.9521 27.4131 26.8691 27.4131C27.786 27.4131 28.5302 28.1573 28.5302 29.0742C28.5302 29.9912 27.786 30.7354 26.8691 30.7354Z" fill="white"/>
</svg>
