<svg width="28" height="28" viewBox="0 0 28 28" fill="none" xmlns="http://www.w3.org/2000/svg">
<g clip-path="url(#clip0_887_2219)">
<path d="M14.0013 27.3327C21.3651 27.3327 27.3346 21.3631 27.3346 13.9993C27.3346 6.63555 21.3651 0.666016 14.0013 0.666016C6.63751 0.666016 0.667969 6.63555 0.667969 13.9993C0.667969 21.3631 6.63751 27.3327 14.0013 27.3327Z" fill="#039BE5"/>
<path d="M6.68292 13.621L19.6899 8.72689C20.2936 8.51405 20.8208 8.87061 20.6252 9.76145L20.6263 9.76036L18.4117 19.9425C18.2475 20.6644 17.808 20.8399 17.193 20.4998L13.8204 18.0742L12.1937 19.6035C12.0139 19.779 11.8621 19.9272 11.5136 19.9272L11.753 16.5777L18.0036 11.067C18.2756 10.8333 17.9429 10.7017 17.5842 10.9343L9.8599 15.6803L6.53003 14.6666C5.80717 14.4428 5.79143 13.9611 6.68292 13.621Z" fill="white"/>
</g>
<defs>
<clipPath id="clip0_887_2219">
<rect width="28" height="28" fill="white"/>
</clipPath>
</defs>
</svg>
