<svg width="60" height="60" viewBox="0 0 60 60" fill="none" xmlns="http://www.w3.org/2000/svg">
<path d="M22.993 23.7937C22.3567 23.9597 21.7382 24.1874 21.1461 24.4734C21.032 24.5258 20.9296 24.6006 20.845 24.6933C20.7603 24.786 20.6952 24.8948 20.6534 25.0132C20.6116 25.1316 20.594 25.2572 20.6017 25.3825C20.6093 25.5078 20.6421 25.6303 20.6979 25.7427C20.7538 25.8551 20.8317 25.9552 20.927 26.0369C21.0223 26.1187 21.1331 26.1804 21.2527 26.2185C21.3723 26.2567 21.4984 26.2704 21.6234 26.2589C21.7484 26.2474 21.8698 26.2109 21.9805 26.1515C25.5055 24.389 34.4961 24.389 38.0211 26.1515C38.1317 26.2109 38.2532 26.2474 38.3782 26.2589C38.5032 26.2704 38.6293 26.2567 38.7489 26.2185C38.8685 26.1804 38.9792 26.1187 39.0745 26.0369C39.1698 25.9552 39.2477 25.8551 39.3036 25.7427C39.3595 25.6303 39.3923 25.5078 39.3999 25.3825C39.4076 25.2572 39.39 25.1316 39.3482 25.0132C39.3064 24.8948 39.2412 24.786 39.1566 24.6933C39.072 24.6006 38.9696 24.5258 38.8555 24.4734C38.27 24.1909 37.6596 23.9634 37.032 23.7937C38.8562 22.3396 40.1832 20.3543 40.8294 18.1127C41.4755 15.8711 41.4089 13.4841 40.6386 11.2821C39.8683 9.08011 38.4326 7.17202 36.53 5.82197C34.6275 4.47192 32.3524 3.7467 30.0195 3.7467C27.6867 3.7467 25.4115 4.47192 23.509 5.82197C21.6065 7.17202 20.1707 9.08011 19.4005 11.2821C18.6302 13.4841 18.5635 15.8711 19.2097 18.1127C19.8558 20.3543 21.1828 22.3396 23.007 23.7937H22.993ZM30.0008 5.62496C32.0915 5.62561 34.1221 6.32514 35.7697 7.61234C37.4172 8.89954 38.5872 10.7005 39.0937 12.729C39.6001 14.7575 39.4139 16.8971 38.5648 18.8077C37.7156 20.7182 36.2521 22.2901 34.407 23.2734C31.4805 22.889 28.5163 22.889 25.5898 23.2734L25.5102 23.2312C23.6807 22.2338 22.2356 20.6554 21.4032 18.7452C20.5708 16.8351 20.3985 14.702 20.9134 12.683C21.4284 10.6639 22.6013 8.87399 24.247 7.59586C25.8926 6.31773 27.9171 5.62425 30.0008 5.62496Z" fill="#008E3F"/>
<path d="M40.8294 18.1127C40.1832 20.3543 38.8562 22.3396 37.032 23.7937C36.2577 23.6287 34.9594 23.3781 34.407 23.2734C36.2521 22.2901 37.7156 20.7182 38.5648 18.8077C39.4139 16.8971 39.6001 14.7575 39.0937 12.729C38.5872 10.7005 37.4172 8.89954 35.7697 7.61234C34.1221 6.32514 32.0915 5.62561 30.0008 5.62496C27.9171 5.62425 25.8926 6.31773 24.247 7.59586C22.6013 8.87399 21.4284 10.6639 20.9134 12.683C20.3985 14.702 20.5708 16.8351 21.4032 18.7452C22.2356 20.6554 23.6807 22.2338 25.5102 23.2312L25.5898 23.2734C24.4617 23.4922 23.3979 23.7114 23.007 23.7937C21.1828 22.3396 19.8558 20.3543 19.2097 18.1127C18.5635 15.8711 18.6302 13.4841 19.4005 11.2821C20.1707 9.08011 21.6065 7.17202 23.509 5.82197C25.4115 4.47192 27.6867 3.7467 30.0195 3.7467C32.3524 3.7467 34.6275 4.47192 36.53 5.82197C38.4326 7.17202 39.8683 9.08011 40.6386 11.2821C41.4089 13.4841 41.4755 15.8711 40.8294 18.1127Z" fill="#FFB111"/>
<path d="M29.3359 20.4937C29.5109 20.6697 29.7486 20.7692 29.9968 20.7702C30.1205 20.7703 30.243 20.7459 30.3573 20.6985C30.4715 20.651 30.5752 20.5814 30.6625 20.4937L35.4906 15.6608C35.6652 15.4852 35.7632 15.2476 35.7632 14.9999C35.7632 14.7522 35.6652 14.5146 35.4906 14.339L30.6625 9.50616C30.5754 9.41899 30.472 9.34984 30.3582 9.30266C30.2444 9.25549 30.1224 9.2312 29.9992 9.2312C29.876 9.2312 29.754 9.25549 29.6402 9.30266C29.5264 9.34984 29.423 9.41899 29.3359 9.50616L24.5031 14.339C24.3285 14.5146 24.2305 14.7522 24.2305 14.9999C24.2305 15.2476 24.3285 15.4852 24.5031 15.6608L29.3359 20.4937ZM30.0015 11.4937L33.5031 14.9999L30.0015 18.5062L26.4953 14.9999L30.0015 11.4937Z" fill="#FFB111"/>
<path d="M54.0245 26.4563C53.9152 26.369 53.7877 26.3072 53.6514 26.2756C53.5152 26.244 53.3736 26.2432 53.237 26.2734C52.5621 26.4026 51.8676 26.3898 51.1979 26.2359C50.401 26.0109 49.9464 25.4578 49.3745 24.7547C49.0584 24.3493 48.7138 23.9671 48.3432 23.6109C47.6475 22.9542 46.8455 22.4201 45.9714 22.0313L48.9479 16.4063C49.0078 16.2916 49.0433 16.1657 49.0522 16.0366C49.061 15.9076 49.0431 15.7781 48.9995 15.6563C48.9561 15.5342 48.8879 15.4224 48.7991 15.328C48.7104 15.2336 48.603 15.1586 48.4839 15.1078C46.9641 14.5532 45.3007 14.5334 43.7682 15.0516C43.532 15.1299 43.3366 15.2988 43.225 15.5212C43.1133 15.7436 43.0946 16.0013 43.1729 16.2375C43.2512 16.4737 43.4202 16.6691 43.6426 16.7808C43.865 16.8924 44.1226 16.9111 44.3589 16.8328C45.1208 16.5805 45.9294 16.5004 46.726 16.5984L43.8057 22.1297C43.738 22.2575 43.7008 22.3992 43.697 22.5437C43.6932 22.6882 43.7228 22.8317 43.7837 22.9629C43.8445 23.0941 43.9348 23.2094 44.0476 23.2999C44.1604 23.3903 44.2926 23.4535 44.4339 23.4844C45.4169 23.7641 46.3186 24.2752 47.0635 24.975C47.37 25.2781 47.6565 25.6006 47.9214 25.9406C48.5776 26.7422 49.3276 27.6516 50.687 28.0406C51.2779 28.1995 51.8898 28.2659 52.501 28.2375V33.1875C52.0901 34.9561 51.224 36.5866 49.9885 37.9172C49.1438 38.7243 48.1985 39.419 47.176 39.9844C46.1682 40.5891 45.376 41.0719 45.0667 41.8594C44.2839 43.8 41.1104 50.5406 40.187 52.5H36.9057L36.0948 47.6578C36.0836 47.5958 36.0679 47.5347 36.0479 47.475C36.5664 47.2708 37.0666 47.023 37.5432 46.7344C37.6479 46.6691 37.7386 46.5839 37.8104 46.4836C37.8821 46.3832 37.9333 46.2698 37.9612 46.1496C37.989 46.0295 37.993 45.9051 37.9727 45.7834C37.9525 45.6617 37.9085 45.5453 37.8432 45.4406C37.778 45.336 37.6928 45.2452 37.5924 45.1735C37.4921 45.1018 37.3786 45.0505 37.2585 45.0227C37.1383 44.9948 37.0139 44.9909 36.8923 45.0111C36.7706 45.0314 36.6541 45.0754 36.5495 45.1406C33.0995 47.2969 25.5245 47.2969 22.0745 45.1406C21.9698 45.0754 21.8534 45.0314 21.7317 45.0111C21.6101 44.9909 21.4856 44.9948 21.3655 45.0227C21.2453 45.0505 21.1319 45.1018 21.0315 45.1735C20.9312 45.2452 20.846 45.336 20.7807 45.4406C20.7155 45.5453 20.6715 45.6617 20.6512 45.7834C20.631 45.9051 20.6349 46.0295 20.6628 46.1496C20.6906 46.2698 20.7419 46.3832 20.8136 46.4836C20.8853 46.5839 20.9761 46.6691 21.0807 46.7344C21.5574 47.023 22.0576 47.2708 22.576 47.475C22.556 47.5347 22.5404 47.5958 22.5292 47.6578L21.7089 52.5H18.3432C17.251 50.6859 13.1635 43.7766 11.1807 39.0141C9.09948 34.0219 10.5057 28.5516 12.8823 25.9453C14.2691 24.3943 15.9156 23.0968 17.7479 22.1109C17.8657 22.0591 17.9716 21.9836 18.0589 21.8891C18.1463 21.7946 18.2132 21.6832 18.2556 21.5617C18.298 21.4402 18.3149 21.3112 18.3053 21.1829C18.2957 21.0546 18.2598 20.9296 18.1999 20.8158C18.1399 20.7019 18.0571 20.6016 17.9567 20.5212C17.8562 20.4407 17.7403 20.3818 17.6161 20.3481C17.492 20.3143 17.3622 20.3065 17.2348 20.3252C17.1075 20.3438 16.9854 20.3884 16.876 20.4563C14.8543 21.5404 13.0366 22.9679 11.5042 24.675C11.1229 25.0989 10.7794 25.5553 10.4776 26.0391C8.82292 25.2609 8.01667 24.0609 8.30261 22.7344C8.44721 22.0957 8.81749 21.5306 9.3454 21.1431C9.8733 20.7555 10.5233 20.5716 11.176 20.625C11.4247 20.6449 11.671 20.5652 11.8609 20.4034C12.0508 20.2417 12.1687 20.0111 12.1885 19.7625C12.2084 19.5139 12.1287 19.2675 11.967 19.0776C11.8052 18.8877 11.5747 18.7699 11.326 18.75C10.219 18.661 9.11713 18.9748 8.22312 19.6337C7.32911 20.2926 6.70314 21.2522 6.46042 22.3359C6.08073 24.0891 6.75104 26.3344 9.59636 27.6984C8.77412 29.5938 8.3374 31.6339 8.31165 33.6998C8.2859 35.7656 8.67163 37.816 9.44636 39.7313C11.7901 45.3563 16.801 53.5734 17.012 53.9203C17.0951 54.0587 17.2126 54.1733 17.353 54.2529C17.4935 54.3326 17.6521 54.3746 17.8135 54.375H22.501C22.7251 54.3781 22.9428 54.3008 23.1148 54.1572C23.2867 54.0136 23.4016 53.8132 23.4385 53.5922L24.376 48.0516C27.6291 48.8391 31.023 48.8391 34.276 48.0516L35.2135 53.5922C35.2487 53.8038 35.3554 53.997 35.5158 54.1394C35.6761 54.2819 35.8805 54.365 36.0948 54.375H40.7823C40.9598 54.3754 41.1338 54.3254 41.284 54.2308C41.4341 54.1362 41.5544 54.0009 41.6307 53.8406C41.8042 53.475 45.8495 44.8781 46.787 42.5391C47.1847 42.1637 47.6347 41.8479 48.1229 41.6016C49.2781 40.9593 50.3461 40.1716 51.301 39.2578C52.8399 37.6409 53.9038 35.6316 54.376 33.45C54.3807 33.3938 54.3807 33.3374 54.376 33.2813V27.1875C54.3759 27.0471 54.3443 26.9084 54.2835 26.7819C54.2226 26.6553 54.1341 26.544 54.0245 26.4563Z" fill="#008E3F"/>
<path d="M44.0625 30C44.5803 30 45 29.5803 45 29.0625C45 28.5447 44.5803 28.125 44.0625 28.125C43.5447 28.125 43.125 28.5447 43.125 29.0625C43.125 29.5803 43.5447 30 44.0625 30Z" fill="#008E3F"/>
</svg>
