<svg width="36" height="36" viewBox="0 0 36 36" fill="none" xmlns="http://www.w3.org/2000/svg">
<g clip-path="url(#clip0_892_5012)">
<path fill-rule="evenodd" clip-rule="evenodd" d="M25.5443 7.68822C28.6168 8.40117 29.792 10.1978 31.2655 12.6705H25.5443V7.68822ZM7.58872 12.8782C8.19029 12.8782 8.62693 13.1685 8.62693 13.8472C8.62693 14.4195 8.16379 14.8838 7.59169 14.8854H1.31946C0.74601 14.8854 0.28125 15.3504 0.28125 15.9236C0.28125 16.497 0.74601 16.9618 1.31946 16.9618H10.6633C11.2422 16.9618 11.7056 17.4263 11.7056 18C11.7056 18.5734 11.2408 19.0382 10.6674 19.0382H1.31946C0.74601 19.0382 0.28125 19.503 0.28125 20.0764C0.28125 20.6499 0.74601 21.1146 1.31946 21.1146H3.60352V24.2292C3.60352 24.8027 4.06828 25.2675 4.64172 25.2675H6.72868C7.10071 27.1 8.71993 28.4513 10.6287 28.4513C12.5375 28.4513 14.1567 27.1 14.5288 25.2675H25.0704C25.4424 27.1 27.0616 28.4513 28.9704 28.4513C30.8792 28.4513 32.4984 27.1 32.8704 25.2675H34.6805C35.254 25.2675 35.7188 24.8027 35.7188 24.2292V18C35.7188 14.9538 32.5057 14.7515 32.5027 14.7469H24.5061C23.9327 14.7469 23.4679 14.2822 23.4679 13.7087V7.47949H4.64172C4.06828 7.47949 3.60352 7.94425 3.60352 8.5177V10.8018H2.35767C1.78422 10.8018 1.31946 11.2665 1.31946 11.84C1.31946 12.4134 1.78422 12.8782 2.35767 12.8782H7.58872ZM30.3163 23.1256C31.0595 23.8688 31.0595 25.0744 30.3163 25.8177C29.1207 27.0132 27.067 26.1626 27.067 24.4715C27.067 22.7806 29.1207 21.93 30.3163 23.1256ZM11.9746 23.1256C12.7178 23.8688 12.7178 25.0744 11.9746 25.8177C10.779 27.0132 8.72534 26.1626 8.72534 24.4715C8.72534 22.7806 10.779 21.93 11.9746 23.1256Z" fill="white"/>
</g>
<defs>
<clipPath id="clip0_892_5012">
<rect width="35.4375" height="35.4375" fill="white" transform="translate(0.28125 0.28125)"/>
</clipPath>
</defs>
</svg>
