<svg width="18" height="19" viewBox="0 0 18 19" fill="none" xmlns="http://www.w3.org/2000/svg">
<path d="M14.7206 7.45813L5.0625 1.87813C4.78642 1.71479 4.47202 1.62745 4.15125 1.625C3.64701 1.625 3.16342 1.82531 2.80686 2.18186C2.45031 2.53842 2.25 3.02201 2.25 3.52625V15.5019C2.25006 15.8365 2.33976 16.165 2.50977 16.4532C2.67979 16.7414 2.9239 16.9788 3.21673 17.1407C3.50957 17.3027 3.84043 17.3832 4.17492 17.3739C4.50941 17.3647 4.83532 17.266 5.11875 17.0881L14.7881 10.9794C15.0888 10.7912 15.3356 10.5284 15.5044 10.2165C15.6733 9.90458 15.7585 9.55425 15.7517 9.19963C15.7449 8.84502 15.6463 8.49821 15.4656 8.19301C15.2849 7.88781 15.0283 7.63462 14.7206 7.45813Z" fill="currentColor"/>
</svg>
