<svg xmlns="http://www.w3.org/2000/svg" xmlns:xlink="http://www.w3.org/1999/xlink" viewBox="0 0 293.31 31.93"><defs><linearGradient id="Безымянный_градиент_118" x1="566.02" y1="377.79" x2="567.02" y2="377.79" gradientTransform="matrix(0 -32.42 -32.42 0 12337.48 18380.67)" gradientUnits="userSpaceOnUse"><stop offset="0" stop-color="#00a651"/><stop offset="1" stop-color="#00904c"/></linearGradient><linearGradient id="Безымянный_градиент_119" x1="565.92" y1="378.48" x2="566.92" y2="378.48" gradientTransform="matrix(0 -31.44 -31.44 0 11990.73 17825.35)" gradientUnits="userSpaceOnUse"><stop offset="0" stop-color="#00904c"/><stop offset="1" stop-color="#00a651"/></linearGradient><linearGradient id="Безымянный_градиент_120" x1="574.46" y1="314.62" x2="575.46" y2="314.62" gradientTransform="matrix(0 17.73 17.73 0 -5491.49 -10177.96)" gradientUnits="userSpaceOnUse"><stop offset="0" stop-color="#fff"/><stop offset="1" stop-color="#d1d3d4"/></linearGradient><linearGradient id="Безымянный_градиент_120-2" x1="574.46" y1="314.62" x2="575.46" y2="314.62" gradientTransform="matrix(0 17.73 17.73 0 -5481.96 -10177.96)" xlink:href="#Безымянный_градиент_120"/><linearGradient id="Безымянный_градиент_120-3" x1="574.46" y1="314.93" x2="575.46" y2="314.93" gradientTransform="matrix(0 17.72 17.72 0 -5489.24 -10172.37)" xlink:href="#Безымянный_градиент_120"/><linearGradient id="Безымянный_градиент_120-4" x1="574.46" y1="314.56" x2="575.46" y2="314.56" gradientTransform="matrix(0 17.72 17.72 0 -5485.63 -10171.97)" xlink:href="#Безымянный_градиент_120"/><linearGradient id="Безымянный_градиент_120-5" x1="574.46" y1="314.7" x2="575.46" y2="314.7" gradientTransform="matrix(0 17.72 17.72 0 -5494.19 -10173.11)" xlink:href="#Безымянный_градиент_120"/><linearGradient id="Безымянный_градиент_120-6" x1="574.46" y1="314.56" x2="575.46" y2="314.56" gradientTransform="matrix(0 17.72 17.72 0 -5479.06 -10171.97)" xlink:href="#Безымянный_градиент_120"/><linearGradient id="Безымянный_градиент_120-7" x1="574.46" y1="314.7" x2="575.46" y2="314.7" gradientTransform="matrix(0 17.72 17.72 0 -5476.73 -10173.11)" xlink:href="#Безымянный_градиент_120"/><linearGradient id="Безымянный_градиент" x1="566.02" y1="377.79" x2="567.02" y2="377.79" gradientTransform="matrix(0 -32.42 -32.42 0 12262.88 18380.67)" gradientUnits="userSpaceOnUse"><stop offset="0" stop-color="#ffcb05"/><stop offset="1" stop-color="#f58220"/></linearGradient><linearGradient id="Безымянный_градиент_128" x1="565.92" y1="378.48" x2="566.92" y2="378.48" gradientTransform="matrix(0 -31.44 -31.44 0 11916.13 17825.35)" gradientUnits="userSpaceOnUse"><stop offset="0" stop-color="#f58220"/><stop offset="1" stop-color="#ffcb05"/></linearGradient><linearGradient id="Безымянный_градиент_106" x1="565.47" y1="381.66" x2="566.47" y2="381.66" gradientTransform="matrix(0 -27.38 -27.38 0 10464.01 15511.86)" gradientUnits="userSpaceOnUse"><stop offset="0" stop-color="#d1d3d4"/><stop offset="1" stop-color="#fff"/></linearGradient><linearGradient id="Безымянный_градиент_130" x1="565.92" y1="378.48" x2="566.92" y2="378.48" gradientTransform="matrix(0 -31.44 -31.44 0 11916.13 17825.37)" gradientUnits="userSpaceOnUse"><stop offset="0" stop-color="#f7933d"/><stop offset="1" stop-color="#ffd140"/></linearGradient><linearGradient id="Безымянный_градиент_131" x1="565.47" y1="381.66" x2="566.47" y2="381.66" gradientTransform="matrix(0 -27.38 -27.38 0 10464.17 15511.86)" gradientUnits="userSpaceOnUse"><stop offset="0" stop-color="#d8d9da"/><stop offset="1" stop-color="#fff"/></linearGradient><linearGradient id="Безымянный_градиент_100" x1="565.92" y1="378.04" x2="566.92" y2="378.04" gradientTransform="matrix(0 -31.44 -31.44 0 11914.5 17825.37)" gradientUnits="userSpaceOnUse"><stop offset="0" stop-color="#f9a058"/><stop offset="1" stop-color="#ffd661"/></linearGradient><linearGradient id="Безымянный_градиент_100-2" x1="565.92" y1="378.01" x2="566.92" y2="378.01" gradientTransform="matrix(0 -31.44 -31.44 0 11909.86 17825.37)" xlink:href="#Безымянный_градиент_100"/><linearGradient id="Безымянный_градиент_101" x1="566.02" y1="377.79" x2="567.02" y2="377.79" gradientTransform="matrix(0 -32.42 -32.42 0 12300.01 18380.67)" gradientUnits="userSpaceOnUse"><stop offset="0" stop-color="#00aeef"/><stop offset="1" stop-color="#0066b3"/></linearGradient><linearGradient id="Безымянный_градиент_102" x1="565.92" y1="378.48" x2="566.92" y2="378.48" gradientTransform="matrix(0 -31.44 -31.44 0 11953.25 17825.35)" gradientUnits="userSpaceOnUse"><stop offset="0" stop-color="#0066b3"/><stop offset="1" stop-color="#00aeef"/></linearGradient><linearGradient id="Безымянный_градиент_103" x1="565.92" y1="378.48" x2="566.92" y2="378.48" gradientTransform="matrix(0 -31.44 -31.44 0 11953.25 17825.37)" gradientUnits="userSpaceOnUse"><stop offset="0" stop-color="#1e74bb"/><stop offset="1" stop-color="#00b6f1"/></linearGradient><linearGradient id="Безымянный_градиент_104" x1="565.92" y1="378.04" x2="566.92" y2="378.04" gradientTransform="matrix(0 -31.44 -31.44 0 11951.84 17825.37)" gradientUnits="userSpaceOnUse"><stop offset="0" stop-color="#4a81c2"/><stop offset="1" stop-color="#00bef3"/></linearGradient><linearGradient id="Безымянный_градиент_104-2" x1="565.92" y1="378.01" x2="566.92" y2="378.01" gradientTransform="matrix(0 -31.44 -31.44 0 11947.2 17825.37)" xlink:href="#Безымянный_градиент_104"/><linearGradient id="Безымянный_градиент_106-2" x1="562.83" y1="401.57" x2="563.83" y2="401.57" gradientTransform="matrix(0 -15.68 -15.68 0 6350.24 8850.01)" xlink:href="#Безымянный_градиент_106"/><linearGradient id="Безымянный_градиент_106-3" x1="564.35" y1="390.3" x2="565.35" y2="390.3" gradientTransform="matrix(0 -20.79 -20.79 0 8168.38 11760.98)" xlink:href="#Безымянный_градиент_106"/><linearGradient id="Безымянный_градиент_106-4" x1="564.55" y1="388.81" x2="565.55" y2="388.81" gradientTransform="matrix(0 -21.73 -21.73 0 8501.4 12294.18)" xlink:href="#Безымянный_градиент_106"/><linearGradient id="Безымянный_градиент_109" x1="565.92" y1="378.48" x2="566.92" y2="378.48" gradientTransform="matrix(0 -31.44 -31.44 0 11990.73 17825.37)" gradientUnits="userSpaceOnUse"><stop offset="0" stop-color="#039a5d"/><stop offset="1" stop-color="#00af62"/></linearGradient><linearGradient id="Безымянный_градиент_110" x1="565.92" y1="378.04" x2="566.92" y2="378.04" gradientTransform="matrix(0 -31.44 -31.44 0 11989.31 17825.37)" gradientUnits="userSpaceOnUse"><stop offset="0" stop-color="#4aa370"/><stop offset="1" stop-color="#37b777"/></linearGradient><linearGradient id="Безымянный_градиент_110-2" x1="565.92" y1="378.01" x2="566.92" y2="378.01" gradientTransform="matrix(0 -31.44 -31.44 0 11984.67 17825.37)" xlink:href="#Безымянный_градиент_110"/><linearGradient id="Безымянный_градиент_112" x1="574.46" y1="314.56" x2="575.46" y2="314.56" gradientTransform="matrix(0 17.72 17.72 0 -5483.69 -10174.25)" gradientUnits="userSpaceOnUse"><stop offset="0" stop-color="#fff"/><stop offset="1" stop-color="#d8d9da"/></linearGradient><linearGradient id="Безымянный_градиент_112-2" x1="574.46" y1="314.59" x2="575.46" y2="314.59" gradientTransform="matrix(0 17.72 17.72 0 -5485.5 -10171.97)" xlink:href="#Безымянный_градиент_112"/><linearGradient id="Безымянный_градиент_112-3" x1="574.46" y1="314.61" x2="575.46" y2="314.61" gradientTransform="matrix(0 17.72 17.72 0 -5489.27 -10173.11)" xlink:href="#Безымянный_градиент_112"/><linearGradient id="Безымянный_градиент_112-4" x1="574.46" y1="314.59" x2="575.46" y2="314.59" gradientTransform="matrix(0 17.72 17.72 0 -5480.22 -10171.97)" xlink:href="#Безымянный_градиент_112"/><linearGradient id="Безымянный_градиент_112-5" x1="574.46" y1="314.61" x2="575.46" y2="314.61" gradientTransform="matrix(0 17.72 17.72 0 -5478.75 -10173.11)" xlink:href="#Безымянный_градиент_112"/><linearGradient id="Безымянный_градиент_112-6" x1="574.46" y1="314.78" x2="575.46" y2="314.78" gradientTransform="matrix(0 17.72 17.72 0 -5486.61 -10172.66)" xlink:href="#Безымянный_градиент_112"/><clipPath id="clip-path"><path id="SVGID" class="cls-1" d="M78.87 0a4.27 4.27 0 0 0-4.27 4.27v23.88a4.27 4.27 0 0 0 2.14 3.7h1.35a3.79 3.79 0 0 1-3-3.7V4.27A3.78 3.78 0 0 1 78.87.49h23.88a3.78 3.78 0 0 1 3.78 3.78v23.88a3.78 3.78 0 0 1-3 3.7h1.35a4.28 4.28 0 0 0 2.15-3.7V4.27A4.28 4.28 0 0 0 102.75 0Z"/></clipPath><clipPath id="clip-path-2"><path id="SVGID-2" data-name="SVGID" class="cls-1" d="M75.09 28.15a3.79 3.79 0 0 0 3 3.7h25.43a3.78 3.78 0 0 0 3-3.7V11.6a61.63 61.63 0 0 1-9 1.43l4.83 12.63a.46.46 0 0 1-.26.59.51.51 0 0 1-.17 0 .45.45 0 0 1-.42-.29l-4.89-12.85-2.12.13.07.38a.46.46 0 0 1-.35.54h-.09a.47.47 0 0 1-.45-.37l-.11-.53c-.9 0-1.82.05-2.75.05s-1.85 0-2.76-.05l-.11.53a.46.46 0 0 1-.44.37h-.1a.47.47 0 0 1-.35-.54l.08-.38-2.13-.13L80.08 26a.45.45 0 0 1-.42.29.41.41 0 0 1-.16 0 .45.45 0 0 1-.26-.59L84.06 13a61.27 61.27 0 0 1-9-1.43v16.58Z"/></clipPath><clipPath id="clip-path-3"><path id="SVGID-3" data-name="SVGID" class="cls-1" d="M84.86 25.93v2a.59.59 0 0 0 .59.59h1.18a.6.6 0 0 0 .59-.59v-2Z"/></clipPath><clipPath id="clip-path-4"><path id="SVGID-4" data-name="SVGID" class="cls-1" d="M94.39 25.93v2a.6.6 0 0 0 .59.59h1.18a.59.59 0 0 0 .59-.59v-2Z"/></clipPath><clipPath id="clip-path-5"><path id="SVGID-5" data-name="SVGID" class="cls-1" d="M86.2 19.69s.57-1.06.79-1.55a1 1 0 0 1 .81-.52h6a1 1 0 0 1 .81.52c.22.49.79 1.55.79 1.55s.37.71-.76.69-6.55 0-7.69 0c-1.06 0-.71-.69-.71-.69m4.93-3.11h-4c-.57 0-1 .81-1.37 1.38l-1.32 2.66h-.17a.58.58 0 0 0-.59.59V25a.58.58 0 0 0 .59.59h13.08A.58.58 0 0 0 98 25v-3.79a.58.58 0 0 0-.59-.59h-.17L95.9 18c-.33-.57-.79-1.38-1.36-1.38Z"/></clipPath><clipPath id="clip-path-6"><path id="SVGID-6" data-name="SVGID" class="cls-1" d="M87.05 13.62a.47.47 0 0 0 .35.54h.1a.46.46 0 0 0 .44-.37l.11-.53h-.92Z"/></clipPath><clipPath id="clip-path-7"><path id="SVGID-7" data-name="SVGID" class="cls-1" d="M79.24 25.66a.45.45 0 0 0 .26.59.41.41 0 0 0 .16 0 .45.45 0 0 0 .42-.29L85 13.11l-1-.08Z"/></clipPath><clipPath id="clip-path-8"><path id="SVGID-8" data-name="SVGID" class="cls-1" d="m93.56 13.27.11.53a.47.47 0 0 0 .45.37h.09a.46.46 0 0 0 .35-.54l-.07-.38h-.93"/></clipPath><clipPath id="clip-path-9"><path id="SVGID-9" data-name="SVGID" class="cls-1" d="M96.61 13.11 101.53 26a.45.45 0 0 0 .42.29.51.51 0 0 0 .17 0 .46.46 0 0 0 .26-.59L97.55 13l-.94.08"/></clipPath><clipPath id="clip-path-10"><path id="SVGID-10" data-name="SVGID" class="cls-1" d="M4.27 0A4.28 4.28 0 0 0 0 4.27v23.88a4.28 4.28 0 0 0 2.15 3.7H3.5a3.78 3.78 0 0 1-3-3.7V4.27A3.78 3.78 0 0 1 4.27.49h23.88a3.78 3.78 0 0 1 3.78 3.78v23.88a3.78 3.78 0 0 1-3 3.7h1.35a4.28 4.28 0 0 0 2.15-3.7V4.27A4.28 4.28 0 0 0 28.15 0Z"/></clipPath><clipPath id="clip-path-11"><path id="SVGID-11" data-name="SVGID" class="cls-1" d="M14.93 13.72a6.91 6.91 0 0 0 1.79-.24 4.5 4.5 0 0 0 .48-.16h-1c-1.11 0-2.21 0-3.29-.06a4 4 0 0 0 2 .46m8.74-.72a7.51 7.51 0 0 1-2.38 3.93c-2.4 2.25-2.25 6-2.25 6v8.94h9.88a3.78 3.78 0 0 0 3-3.7V11.6a60.12 60.12 0 0 1-8.25 1.4M.49 28.15a3.78 3.78 0 0 0 3 3.7h9.72v-9.52c-.12-3-2.46-4.28-3.7-6.22a7.19 7.19 0 0 1-1.16-3.19A59.55 59.55 0 0 1 .49 11.6v16.55Z"/></clipPath><clipPath id="clip-path-12"><path id="SVGID-12" data-name="SVGID" class="cls-1" d="M9.51 16.11c1.24 1.94 3.58 3.24 3.7 6.22v9.52H19v-8.94s-.15-3.77 2.25-6a7.51 7.51 0 0 0 2.4-3.91c-2.07.21-4.23.33-6.45.36a4.5 4.5 0 0 1-.48.16 6.91 6.91 0 0 1-1.79.24 4 4 0 0 1-2-.46c-1.56-.07-3.09-.18-4.57-.34a7.19 7.19 0 0 0 1.16 3.19"/></clipPath><clipPath id="clip-path-13"><path id="SVGID-13" data-name="SVGID" class="cls-1" d="M23.47 3.21a1.09 1.09 0 1 1 1.09 1.09 1.09 1.09 0 0 1-1.09-1.09m3.05.79a1.89 1.89 0 1 1 1.89 1.89A1.89 1.89 0 0 1 26.52 4M4.27.49A3.78 3.78 0 0 0 .49 4.27v7.33a59.55 59.55 0 0 0 7.86 1.32 8.36 8.36 0 0 1 2.14-6.07 51.45 51.45 0 0 0 1.68 5.57 2 2 0 0 0 .75.84c1.08 0 2.18.06 3.29.06h1a4.59 4.59 0 0 0 2.7-2.8c.22-1.11-1.55-6-1.55-6a7.9 7.9 0 0 1 5.3 6.1 5.79 5.79 0 0 1 0 2.31 60.12 60.12 0 0 0 8.28-1.36v-7.3A3.78 3.78 0 0 0 28.15.49Z"/></clipPath><clipPath id="clip-path-14"><path id="SVGID-14" data-name="SVGID" class="cls-1" d="M8.35 12.92c1.48.16 3 .27 4.57.34a2 2 0 0 1-.75-.84 51.45 51.45 0 0 1-1.68-5.57 8.36 8.36 0 0 0-2.14 6.07m11.55-2.4a4.59 4.59 0 0 1-2.7 2.8c2.22 0 4.38-.15 6.45-.36a5.79 5.79 0 0 0 0-2.31 7.9 7.9 0 0 0-5.3-6.1s1.77 4.86 1.55 6"/></clipPath><clipPath id="clip-path-15"><path id="SVGID-15" data-name="SVGID" class="cls-1" d="M26.52 4a1.89 1.89 0 1 0 1.89-1.89A1.88 1.88 0 0 0 26.52 4"/></clipPath><clipPath id="clip-path-16"><path id="SVGID-16" data-name="SVGID" class="cls-1" d="M23.47 3.21a1.09 1.09 0 1 0 1.09-1.1 1.09 1.09 0 0 0-1.09 1.1"/></clipPath><clipPath id="clip-path-17"><path id="SVGID-17" data-name="SVGID" class="cls-1" d="M41.39 0a4.28 4.28 0 0 0-4.27 4.27v23.88a4.28 4.28 0 0 0 2.15 3.7h1.35a3.78 3.78 0 0 1-3-3.7V4.27A3.78 3.78 0 0 1 41.39.49h23.88a3.78 3.78 0 0 1 3.78 3.78v23.88a3.79 3.79 0 0 1-3 3.7h1.34a4.26 4.26 0 0 0 2.15-3.7V4.27A4.28 4.28 0 0 0 65.27 0Z"/></clipPath><clipPath id="clip-path-18"><path id="SVGID-18" data-name="SVGID" class="cls-1" d="M37.61 28.15a3.78 3.78 0 0 0 3 3.7h25.44a3.79 3.79 0 0 0 3-3.7V11.6a68.2 68.2 0 0 1-15.72 1.72 68.33 68.33 0 0 1-15.72-1.72v16.55Z"/></clipPath><clipPath id="clip-path-19"><path id="SVGID-19" data-name="SVGID" class="cls-1" d="M60.8 3.21a1.1 1.1 0 1 1 1.1 1.09 1.1 1.1 0 0 1-1.1-1.09m3.06.79a1.89 1.89 0 1 1 1.89 1.89A1.89 1.89 0 0 1 63.86 4M41.39.49a3.78 3.78 0 0 0-3.78 3.78v7.33a68.33 68.33 0 0 0 15.72 1.72 68.2 68.2 0 0 0 15.72-1.72V4.27A3.78 3.78 0 0 0 65.27.49Z"/></clipPath><clipPath id="clip-path-20"><path id="SVGID-20" data-name="SVGID" class="cls-1" d="M63.86 4a1.89 1.89 0 1 0 1.89-1.89A1.88 1.88 0 0 0 63.86 4"/></clipPath><clipPath id="clip-path-21"><path id="SVGID-21" data-name="SVGID" class="cls-1" d="M60.8 3.21a1.1 1.1 0 1 0 1.1-1.1 1.09 1.09 0 0 0-1.1 1.1"/></clipPath><clipPath id="clip-path-22"><path id="SVGID-22" data-name="SVGID" class="cls-1" d="M53.46 20.84h.29V25h-.83v-4.18h.54ZM46.67 22l3.76-2.17a4.52 4.52 0 0 0 .58.39 4.18 4.18 0 0 0 .64.31v4.35a8.82 8.82 0 0 1-5-2.88M55 20.53a4.18 4.18 0 0 0 .64-.31 3.92 3.92 0 0 0 .58-.39L60 22a8.76 8.76 0 0 1-5 2.88Zm-9.52-.27 3.64-2.1a5.13 5.13 0 0 0 .41.72L45.9 21a6.37 6.37 0 0 1-.41-.72m11.63-1.38a5.2 5.2 0 0 0 .42-.72l3.64 2.1q-.2.38-.42.72Zm-4-.81h-.54l-.08-.05h-.16l-.08-.06-.06-.05-.09-.07h-.05l-.09-.1-.11-.13-.11-.16a1.88 1.88 0 0 1 .69-2.56 2 2 0 0 1 .51-.21h.78a1.89 1.89 0 0 1 .51.21 1.87 1.87 0 0 1 .76 2.24l-.1.16-.1.13-.09.1-.08.07-.07.05-.08.06H54.33l-.09.05L54 18h-.86Zm-8.62-1.88a8.77 8.77 0 0 1 .5-2.87l3.77 2.17v.31a4.33 4.33 0 0 0 0 .72V16.88L45 19.09a8.83 8.83 0 0 1-.48-2.88m13.41.7a2.54 2.54 0 0 0 0-.29v-.05a4.33 4.33 0 0 0 0-.72v-.31l3.77-2.17a8.68 8.68 0 0 1 0 5.75Zm-12.45-4.75q.2-.37.42-.72l3.64 2.1-.23.35-.08.17-.08.14v.06Zm12 2-.07-.14-.09-.17c-.07-.12-.15-.23-.23-.35l3.64-2.1a6.44 6.44 0 0 1 .42.72l-3.64 2.1Zm-10.82-3.74a8.82 8.82 0 0 1 5-2.88v4.36l-.3.13h-.07l-.29.17-.17.11-.11.07-.23.17Zm9.55 2.16h-.05l-.23-.17-.11-.07-.17-.11-.22-.12h-.08l-.29-.13H55V7.54a8.82 8.82 0 0 1 5 2.88l-3.77 2.18Zm-3.29-5.19h.83v4.21h-.83Zm-9.08 8.82a9.5 9.5 0 1 0 9.49-9.5 9.5 9.5 0 0 0-9.49 9.5"/></clipPath><clipPath id="clip-path-23"><path id="SVGID-23" data-name="SVGID" class="cls-1" d="M43.59 16.21A9.75 9.75 0 1 1 53.33 26a9.76 9.76 0 0 1-9.74-9.74m-2.85 0A12.59 12.59 0 1 0 53.33 3.62a12.61 12.61 0 0 0-12.59 12.59"/></clipPath><clipPath id="clip-path-24"><path id="SVGID-24" data-name="SVGID" class="cls-1" d="M40.49 16.21a12.84 12.84 0 1 1 12.84 12.84 12.85 12.85 0 0 1-12.84-12.84m-.32 0A13.16 13.16 0 1 0 53.33 3.05a13.16 13.16 0 0 0-13.16 13.16"/></clipPath><clipPath id="clip-path-25"><path id="SVGID-25" data-name="SVGID" class="cls-1" d="M90.35 12.44V7.82a.47.47 0 0 1 .46-.46.46.46 0 0 1 .45.46v4.62a.45.45 0 0 1-.45.45.46.46 0 0 1-.46-.45m-3.91-6.37a1 1 0 0 1 1-1h2.13a1.21 1.21 0 0 1 1.2-1.11A1.19 1.19 0 0 1 92 5h2.14a1 1 0 0 1 1 1v.39h-8.7Zm11.84-2.86a1.1 1.1 0 1 1 1.09 1.09 1.09 1.09 0 0 1-1.09-1.09m3 .79a1.89 1.89 0 1 1 1.89 1.89A1.89 1.89 0 0 1 101.33 4M78.87.49a3.78 3.78 0 0 0-3.78 3.78v7.33a61.27 61.27 0 0 0 9 1.43l2-5.32a.45.45 0 0 1 .42-.29.33.33 0 0 1 .17 0 .45.45 0 0 1 .26.58L85 13.11l2.12.13 1.14-5.56a.46.46 0 0 1 .45-.36h.09a.46.46 0 0 1 .35.54l-1.11 5.41c.91 0 1.83.05 2.76.05s1.85 0 2.75-.05l-1.1-5.41a.47.47 0 0 1 .35-.54h.1a.45.45 0 0 1 .44.36l1.15 5.56 2.12-.13L94.67 8a.45.45 0 0 1 .26-.58.35.35 0 0 1 .17 0 .45.45 0 0 1 .42.29l2 5.32a61.63 61.63 0 0 0 9-1.43V4.27a3.78 3.78 0 0 0-3.77-3.78Z"/></clipPath><clipPath id="clip-path-26"><path id="SVGID-26" data-name="SVGID" class="cls-1" d="M101.33 4a1.89 1.89 0 1 0 1.89-1.89A1.89 1.89 0 0 0 101.33 4"/></clipPath><clipPath id="clip-path-27"><path id="SVGID-27" data-name="SVGID" class="cls-1" d="M98.28 3.21a1.1 1.1 0 1 0 1.09-1.1 1.09 1.09 0 0 0-1.09 1.1"/></clipPath><clipPath id="clip-path-28"><path id="SVGID-28" data-name="SVGID" class="cls-1" d="M90.35 7.82v4.62a.46.46 0 0 0 .46.45.45.45 0 0 0 .45-.45V7.82a.46.46 0 0 0-.45-.46.47.47 0 0 0-.46.46"/></clipPath><clipPath id="clip-path-29"><path id="SVGID-29" data-name="SVGID" class="cls-1" d="m88.27 7.68-1.14 5.56h.92l1.11-5.41a.46.46 0 0 0-.35-.54h-.09a.46.46 0 0 0-.45.36"/></clipPath><clipPath id="clip-path-30"><path id="SVGID-30" data-name="SVGID" class="cls-1" d="m86.09 7.71-2 5.32 1 .08L86.94 8a.45.45 0 0 0-.26-.58.33.33 0 0 0-.17 0 .45.45 0 0 0-.42.29"/></clipPath><clipPath id="clip-path-31"><path id="SVGID-31" data-name="SVGID" class="cls-1" d="M92.8 7.32a.47.47 0 0 0-.35.54l1.11 5.41h.93l-1.15-5.59a.45.45 0 0 0-.44-.36h-.1"/></clipPath><clipPath id="clip-path-32"><path id="SVGID-32" data-name="SVGID" class="cls-1" d="M94.93 7.46a.45.45 0 0 0-.26.58l1.94 5.07.94-.08-2-5.32a.45.45 0 0 0-.42-.29.35.35 0 0 0-.17 0"/></clipPath><clipPath id="clip-path-33"><path id="SVGID-33" data-name="SVGID" class="cls-1" d="M89.61 5h-2.13a1 1 0 0 0-1 1v.39h8.73v-.32a1 1 0 0 0-1-1H92a1.19 1.19 0 0 0-1.19-1.11A1.21 1.21 0 0 0 89.61 5"/></clipPath><style>.cls-1{fill:none}.cls-34{fill:#e6e7e8}.cls-69{fill:#231f20}</style></defs><g id="Слой_2" data-name="Слой 2"><g id="Слой_1-2" data-name="Слой 1"><g style="clip-path:url(#clip-path)"><path style="fill:url(#Безымянный_градиент_118)" d="M74.6 0h32.42v31.85H74.6z"/></g><g style="clip-path:url(#clip-path-2)"><path style="fill:url(#Безымянный_градиент_119)" d="M75.09 4.27h31.44v27.58H75.09z"/></g><g style="clip-path:url(#clip-path-3)"><path style="fill:url(#Безымянный_градиент_120)" d="M84.86 25.93h2.36v2.56h-2.36z"/></g><g style="clip-path:url(#clip-path-4)"><path style="fill:url(#Безымянный_градиент_120-2)" d="M94.39 25.93h2.36v2.56h-2.36z"/></g><g style="clip-path:url(#clip-path-5)"><path style="fill:url(#Безымянный_градиент_120-3)" d="M83.63 16.58h14.35v9.01H83.63z"/></g><g style="clip-path:url(#clip-path-6)"><path style="fill:url(#Безымянный_градиент_120-4)" d="M87 13.24h1.05v.93H87z"/></g><g style="clip-path:url(#clip-path-7)"><path style="fill:url(#Безымянный_градиент_120-5)" d="M79.14 13.03H85v13.25h-5.86z"/></g><g style="clip-path:url(#clip-path-8)"><path style="fill:url(#Безымянный_градиент_120-6)" d="M93.56 13.24h1.05v.93h-1.05z"/></g><g style="clip-path:url(#clip-path-9)"><path style="fill:url(#Безымянный_градиент_120-7)" d="M96.61 13.03h5.86v13.25h-5.86z"/></g><g style="clip-path:url(#clip-path-10)"><path style="fill:url(#Безымянный_градиент)" d="M0 0h32.42v31.85H0z"/></g><g style="clip-path:url(#clip-path-11)"><path style="fill:url(#Безымянный_градиент_128)" d="M.49 4.27h31.44v27.58H.49z"/></g><g style="clip-path:url(#clip-path-12)"><path style="fill:url(#Безымянный_градиент_106)" d="M8.35 12.92h15.31v18.93H8.35z"/></g><g style="clip-path:url(#clip-path-13)"><path style="fill:url(#Безымянный_градиент_130)" d="M.49.49h31.44v12.84H.49z"/></g><g style="clip-path:url(#clip-path-14)"><path style="fill:url(#Безымянный_градиент_131)" d="M7.99 4.55h15.82v8.76H7.99z"/></g><g style="clip-path:url(#clip-path-15)"><path style="fill:url(#Безымянный_градиент_100)" d="M26.52 2.11h3.78v3.78h-3.78z"/></g><g style="clip-path:url(#clip-path-16)"><path style="fill:url(#Безымянный_градиент_100-2)" d="M23.47 2.11h2.19V4.3h-2.19z"/></g><path class="cls-34" d="M23.73 10.64a8 8 0 0 0-5.35-6.17h-.16l.05.15S20 9.43 19.82 10.5a4.58 4.58 0 0 1-3.12 2.9 7.12 7.12 0 0 1-1.77.24c-.79 0-2.18-.16-2.68-1.26a49.16 49.16 0 0 1-1.68-5.55v-.15l-.11.11s-4.17 4.42-1 9.37a13 13 0 0 0 1.37 1.69c1.1 1.21 2.23 2.46 2.32 4.49v9.59h.17v-9.6c-.09-2.09-1.24-3.36-2.36-4.59a12.93 12.93 0 0 1-1.36-1.67c-2.81-4.39.24-8.32.86-9a49.49 49.49 0 0 0 1.65 5.42c.54 1.19 2 1.36 2.84 1.36a6.93 6.93 0 0 0 1.81-.25 4.74 4.74 0 0 0 3.24-3c.21-1-1.18-5-1.49-5.85a7.86 7.86 0 0 1 5.07 6c.45 2.21-.35 4.29-2.35 6.16-2.4 2.24-2.28 6.05-2.28 6.09v9.01h.18v-9S19 19.15 21.33 17c2.05-1.92 2.86-4.05 2.4-6.32"/><g style="clip-path:url(#clip-path-17)"><path style="fill:url(#Безымянный_градиент_101)" d="M37.12 0h32.41v31.85H37.12z"/></g><g style="clip-path:url(#clip-path-18)"><path style="fill:url(#Безымянный_градиент_102)" d="M37.61 4.27h31.44v27.58H37.61z"/></g><g style="clip-path:url(#clip-path-19)"><path style="fill:url(#Безымянный_градиент_103)" d="M37.61.49h31.44v12.84H37.61z"/></g><g style="clip-path:url(#clip-path-20)"><path style="fill:url(#Безымянный_градиент_104)" d="M63.86 2.11h3.78v3.78h-3.78z"/></g><g style="clip-path:url(#clip-path-21)"><path style="fill:url(#Безымянный_градиент_104-2)" d="M60.8 2.11h2.19V4.3H60.8z"/></g><path class="cls-34" d="M53.33 29.23a13 13 0 1 1 13-13 13 13 0 0 1-13 13m0-26.36a13.34 13.34 0 1 0 13.34 13.34A13.34 13.34 0 0 0 53.33 2.87"/><g style="clip-path:url(#clip-path-22)"><path style="fill:url(#Безымянный_градиент_106-2)" d="M43.84 6.71h18.99V25.7H43.84z"/></g><g style="clip-path:url(#clip-path-23)"><path style="fill:url(#Безымянный_градиент_106-3)" d="M40.74 3.62h25.18V28.8H40.74z"/></g><g style="clip-path:url(#clip-path-24)"><path style="fill:url(#Безымянный_градиент_106-4)" d="M40.17 3.05h26.32v26.32H40.17z"/></g><g style="clip-path:url(#clip-path-25)"><path style="fill:url(#Безымянный_градиент_109)" d="M75.09.49h31.44v12.84H75.09z"/></g><g style="clip-path:url(#clip-path-26)"><path style="fill:url(#Безымянный_градиент_110)" d="M101.33 2.11h3.78v3.78h-3.78z"/></g><g style="clip-path:url(#clip-path-27)"><path style="fill:url(#Безымянный_градиент_110-2)" d="M98.28 2.11h2.19V4.3h-2.19z"/></g><g style="clip-path:url(#clip-path-28)"><path style="fill:url(#Безымянный_градиент_112)" d="M90.35 7.36h.91v5.53h-.91z"/></g><g style="clip-path:url(#clip-path-29)"><path style="fill:url(#Безымянный_градиент_112-2)" d="M87.13 7.32h2.09v5.96h-2.09z"/></g><g style="clip-path:url(#clip-path-30)"><path style="fill:url(#Безымянный_градиент_112-3)" d="M84.06 7.43h2.97v5.68h-2.97z"/></g><g style="clip-path:url(#clip-path-31)"><path style="fill:url(#Безымянный_градиент_112-4)" d="M92.4 7.32h2.08v5.96H92.4z"/></g><g style="clip-path:url(#clip-path-32)"><path style="fill:url(#Безымянный_градиент_112-5)" d="M94.58 7.43h2.97v5.68h-2.97z"/></g><g style="clip-path:url(#clip-path-33)"><path style="fill:url(#Безымянный_градиент_112-6)" d="M86.44 3.93h8.73v2.53h-8.73z"/></g><path class="cls-34" d="M87.22 25.93h-2.36v2a.59.59 0 0 0 .59.59h1.18a.6.6 0 0 0 .59-.59Zm-.17.17v1.8a.41.41 0 0 1-.42.41h-1.18a.41.41 0 0 1-.45-.41v-1.8ZM96.75 25.93h-2.36v2a.6.6 0 0 0 .59.59h1.18a.59.59 0 0 0 .59-.59Zm-.17.17v1.8a.41.41 0 0 1-.42.41H95a.41.41 0 0 1-.41-.41v-1.8ZM86.91 20.37c-1.06 0-.71-.68-.71-.68s.57-1.06.79-1.55a1 1 0 0 1 .81-.52h6a1 1 0 0 1 .81.52c.22.49.79 1.55.79 1.55s.35.68-.71.68h-7.78Zm7.63-3.79h-7.46c-.57 0-1 .81-1.37 1.38l-1.32 2.66h-.17a.58.58 0 0 0-.59.59V25a.58.58 0 0 0 .59.58h13.17A.58.58 0 0 0 98 25v-3.79a.58.58 0 0 0-.59-.59h-.17L95.9 18c-.33-.57-.79-1.38-1.36-1.38m-7.63 4H94.73c.44 0 .73-.11.86-.33a.62.62 0 0 0 0-.61s-.56-1.06-.78-1.54a1.15 1.15 0 0 0-1-.62h-6a1.15 1.15 0 0 0-1 .62c-.21.48-.77 1.52-.78 1.54a.68.68 0 0 0 0 .61c.13.22.42.33.86.33m7.63-3.8c.46 0 .91.76 1.2 1.27l1.32 2.66.05.09h.27a.42.42 0 0 1 .42.42V25a.41.41 0 0 1-.42.41H84.22a.41.41 0 0 1-.42-.41v-3.79a.42.42 0 0 1 .42-.42h.28v-.09l1.36-2.7c.3-.51.74-1.27 1.21-1.27h7.46ZM90.81 7.36a.47.47 0 0 0-.46.46v4.62a.46.46 0 0 0 .46.45.45.45 0 0 0 .45-.45V7.82a.46.46 0 0 0-.45-.46m0 .17a.29.29 0 0 1 .28.29v4.62a.29.29 0 0 1-.57 0V7.82a.29.29 0 0 1 .29-.29M88.72 7.32a.46.46 0 0 0-.45.36l-1.22 5.94a.47.47 0 0 0 .35.54h.09a.47.47 0 0 0 .45-.37l1.22-5.94a.47.47 0 0 0-.35-.54Zm0 .17.18.12v.22l-1.22 5.94a.28.28 0 0 1-.28.22l-.18-.12v-.22l1.22-5.94a.28.28 0 0 1 .28-.22M86.52 7.42a.46.46 0 0 0-.43.29l-6.85 18a.45.45 0 0 0 .26.59h.16a.45.45 0 0 0 .42-.29L86.94 8a.45.45 0 0 0-.26-.58Zm0 .18h.1a.28.28 0 0 1 .16.36l-6.86 18a.27.27 0 0 1-.26.18h-.1a.29.29 0 0 1-.17-.37l6.86-17.99a.28.28 0 0 1 .27-.18M92.9 7.32h-.1a.47.47 0 0 0-.35.54l1.22 5.94a.47.47 0 0 0 .45.37h.09a.46.46 0 0 0 .35-.54l-1.22-5.95a.45.45 0 0 0-.44-.36m0 .17a.28.28 0 0 1 .27.22l1.23 5.94v.22l-.19.12a.28.28 0 0 1-.28-.22l-1.31-5.94v-.22l.18-.12ZM95.1 7.42h-.17a.45.45 0 0 0-.26.58l6.86 18a.45.45 0 0 0 .42.29h.17a.46.46 0 0 0 .26-.59L95.52 7.71a.45.45 0 0 0-.42-.29m0 .18a.28.28 0 0 1 .26.18l6.86 17.94a.3.3 0 0 1-.16.37h-.11a.28.28 0 0 1-.26-.18L94.83 8v-.23l.17-.15ZM90.81 3.93A1.21 1.21 0 0 0 89.61 5h-2.13a1 1 0 0 0-1 1v.39h8.73v-.32a1 1 0 0 0-1-1H92a1.21 1.21 0 0 0-1.2-1.11m0 .17a1 1 0 0 1 1 1v.16h2.29a.87.87 0 0 1 .86.86v.22h-8.33v-.3a.86.86 0 0 1 .86-.86h2.29v-.16a1 1 0 0 1 1-1"/><path class="cls-69" d="M137.12 10.52c0-2.66-1.2-5.41-6.87-5.41h-6.42v10.77h6.6c5.67 0 6.69-2.71 6.69-5.36M142.48 31h-4.87l-7.13-11.21h-6.65V31h-4.12V1.44h10.9c6.46 0 10.63 3.1 10.63 8.94a8.55 8.55 0 0 1-6.6 8.73ZM169.54 16.19c0-10.15-5.14-11.43-9.62-11.43s-9.61 1.24-9.61 11.43 5.14 11.42 9.61 11.42 9.62-1.28 9.62-11.42m4.11 0c0 12.53-7.48 15.14-13.73 15.14s-13.73-2.61-13.73-15.14S153.68 1 159.92 1s13.73 2.61 13.73 15.15M198.81 23.23c0 5.05-4 8.1-10.68 8.1a19.54 19.54 0 0 1-8.77-2.17v-4.25a16.34 16.34 0 0 0 8.42 2.48c3.14 0 6.91-.71 6.91-4.16 0-7.66-15.72-4.08-15.72-13.73 0-4.08 2.7-8.42 10.32-8.42a16.63 16.63 0 0 1 7.61 1.86V7a13.82 13.82 0 0 0-7.13-1.95c-3.05 0-6.69.75-6.69 4.43 0 5.14 15.73 3.28 15.73 13.73M223.3 23.23c0 5.05-4 8.1-10.68 8.1a19.54 19.54 0 0 1-8.77-2.17v-4.25a16.34 16.34 0 0 0 8.42 2.48c3.14 0 6.91-.71 6.91-4.16 0-7.66-15.73-4.08-15.73-13.73 0-4.08 2.71-8.42 10.32-8.42a16.65 16.65 0 0 1 7.62 1.86V7a13.85 13.85 0 0 0-7.13-1.95c-3.06 0-6.69.75-6.69 4.43 0 5.14 15.73 3.28 15.73 13.73M253.06 1.44l-11.34 29.54h-4.12L226.26 1.44h4.39l8.99 24.36 9.03-24.36h4.39zM257.92 1.44H262v29.54h-4.08zM293.31 30.98h-5.09l-11.25-13.29-3.5 3.72v9.57h-4.07V1.44h4.07v14.3l13.55-14.3h5.18l-12.53 13.37 13.64 16.17z"/></g></g></svg>