<svg version="1.1" id="Слой_1" xmlns="http://www.w3.org/2000/svg" xmlns:xlink="http://www.w3.org/1999/xlink" x="0" y="0" viewBox="0 0 293.3 44.4" style="enable-background:new 0 0 293.3 44.4" xml:space="preserve"><style>.st32{fill:#e6e7e8}.st67{fill:#fff}</style><g id="Слой_2_1_"><g id="Слой_1-2"><defs><path id="SVGID_1_" d="M75.1 28.1V4.3c0-2.1 1.7-3.8 3.8-3.8h23.9c2.1 0 3.8 1.7 3.8 3.8v23.9c0 2.1-1.7 3.8-3.8 3.8H78.9c-2.1-.1-3.8-1.8-3.8-3.9M78.9 0c-2.4 0-4.3 1.9-4.3 4.3v23.9c0 2.4 1.9 4.3 4.3 4.3h23.9c2.3 0 4.2-1.9 4.3-4.3V4.3c0-2.4-1.9-4.3-4.3-4.3H78.9z"/></defs><clipPath id="SVGID_2_"><use xlink:href="#SVGID_1_" style="overflow:visible"/></clipPath><g style="clip-path:url(#SVGID_2_)"><linearGradient id="SVGID_3_" gradientUnits="userSpaceOnUse" x1="183.107" y1="65.666" x2="184.107" y2="65.666" gradientTransform="rotate(-90 1964.36 4002.46) scale(32.42)"><stop offset="0" style="stop-color:#00a651"/><stop offset="1" style="stop-color:#00904c"/></linearGradient><path style="fill:url(#SVGID_3_)" d="M74.6 0H107v32.4H74.6z"/></g><defs><path id="SVGID_4_" d="m97.6 13 4.8 12.6c.1.2 0 .5-.3.6h-.2c-.2 0-.4-.1-.4-.3l-4.9-12.8-2.1.1.1.4c0 .2-.1.5-.3.5h-.1c-.2 0-.4-.1-.4-.4l-.1-.5c-.9 0-1.8.1-2.8.1s-1.8 0-2.8-.1l-.1.5c0 .2-.2.4-.4.4h-.1c-.2-.1-.4-.3-.3-.5l.1-.4-2.3-.1L80.1 26c-.1.2-.2.3-.4.3h-.2c-.2-.1-.4-.3-.3-.6L84.1 13c-3-.3-6-.7-9-1.4v16.6c0 2.1 1.7 3.8 3.8 3.8h23.9c2.1 0 3.8-1.7 3.8-3.8V11.6c-3.1.7-6.1 1.2-9 1.4"/></defs><clipPath id="SVGID_5_"><use xlink:href="#SVGID_4_" style="overflow:visible"/></clipPath><g style="clip-path:url(#SVGID_5_)"><linearGradient id="SVGID_6_" gradientUnits="userSpaceOnUse" x1="182.538" y1="65.26" x2="183.538" y2="65.26" gradientTransform="rotate(-90 1905.36 3866.34) scale(31.44)"><stop offset="0" style="stop-color:#00904c"/><stop offset="1" style="stop-color:#00a651"/></linearGradient><path style="fill:url(#SVGID_6_)" d="M75.1 11.6h31.4v20.3H75.1z"/></g><defs><path id="SVGID_7_" d="M84.9 25.9v2c0 .3.3.6.6.6h1.2c.3 0 .6-.3.6-.6v-2h-2.4z"/></defs><clipPath id="SVGID_8_"><use xlink:href="#SVGID_7_" style="overflow:visible"/></clipPath><g style="clip-path:url(#SVGID_8_)"><linearGradient id="SVGID_9_" gradientUnits="userSpaceOnUse" x1="234.763" y1="96.761" x2="235.763" y2="96.761" gradientTransform="rotate(90 2978.39 -1176.77) scale(17.73)"><stop offset="0" style="stop-color:#fff"/><stop offset="1" style="stop-color:#d1d3d4"/></linearGradient><path style="fill:url(#SVGID_9_)" d="M84.9 25.9h2.4v2.6h-2.4z"/></g><defs><path id="SVGID_10_" d="M94.4 25.9v2c0 .3.3.6.6.6h1.2c.3 0 .6-.3.6-.6v-2h-2.4z"/></defs><clipPath id="SVGID_11_"><use xlink:href="#SVGID_10_" style="overflow:visible"/></clipPath><g style="clip-path:url(#SVGID_11_)"><linearGradient id="SVGID_12_" gradientUnits="userSpaceOnUse" x1="234.763" y1="96.761" x2="235.763" y2="96.761" gradientTransform="matrix(0 17.73 -17.73 0 1811.15 -4155.16)"><stop offset="0" style="stop-color:#fff"/><stop offset="1" style="stop-color:#d1d3d4"/></linearGradient><path style="fill:url(#SVGID_12_)" d="M94.4 25.9h2.4v2.6h-2.4z"/></g><defs><path id="SVGID_13_" d="M86.2 19.7s.6-1 .8-1.5c.2-.3.5-.5.8-.5h6c.3 0 .6.2.8.5.2.5.8 1.5.8 1.5s.4.7-.8.7h-7.7c-1 0-.7-.7-.7-.7m5-3.1h-4c-.6 0-1 .8-1.4 1.4l-1.3 2.7h-.2c-.3 0-.6.2-.6.6V25c0 .3.2.6.6.6h13.1c.3 0 .6-.2.6-.5v-3.8c0-.3-.2-.6-.6-.6h-.2L95.9 18c-.3-.6-.8-1.4-1.4-1.4h-3.3z"/></defs><clipPath id="SVGID_14_"><use xlink:href="#SVGID_13_" style="overflow:visible"/></clipPath><g style="clip-path:url(#SVGID_14_)"><linearGradient id="SVGID_15_" gradientUnits="userSpaceOnUse" x1="234.779" y1="96.429" x2="235.779" y2="96.429" gradientTransform="rotate(90 2976.39 -1176.86) scale(17.72)"><stop offset="0" style="stop-color:#fff"/><stop offset="1" style="stop-color:#d1d3d4"/></linearGradient><path style="fill:url(#SVGID_15_)" d="M83.6 16.6h14.3v9H83.6z"/></g><defs><path id="SVGID_16_" d="M87.1 13.6c0 .2.1.5.3.5h.1c.2 0 .4-.2.4-.4l.1-.5h-.9v.4z"/></defs><clipPath id="SVGID_17_"><use xlink:href="#SVGID_16_" style="overflow:visible"/></clipPath><g style="clip-path:url(#SVGID_17_)"><linearGradient id="SVGID_18_" gradientUnits="userSpaceOnUse" x1="234.779" y1="96.822" x2="235.779" y2="96.822" gradientTransform="matrix(0 17.72 -17.72 0 1803.21 -4152.86)"><stop offset="0" style="stop-color:#fff"/><stop offset="1" style="stop-color:#d1d3d4"/></linearGradient><path style="fill:url(#SVGID_18_)" d="M87 13.2h1.1v.9H87z"/></g><defs><path id="SVGID_19_" d="M79.2 25.7c-.1.2 0 .5.2.6h.2c.2 0 .4-.1.4-.3l5-12.9-1-.1-4.8 12.7z"/></defs><clipPath id="SVGID_20_"><use xlink:href="#SVGID_19_" style="overflow:visible"/></clipPath><g style="clip-path:url(#SVGID_20_)"><linearGradient id="SVGID_21_" gradientUnits="userSpaceOnUse" x1="234.779" y1="96.636" x2="235.779" y2="96.636" gradientTransform="matrix(0 17.72 -17.72 0 1794.46 -4153.97)"><stop offset="0" style="stop-color:#fff"/><stop offset="1" style="stop-color:#d1d3d4"/></linearGradient><path style="fill:url(#SVGID_21_)" d="M79.1 13H85v13.2h-5.9z"/></g><defs><path id="SVGID_22_" d="m93.6 13.3.1.5c0 .2.2.4.4.4h.1c.2-.1.4-.3.3-.5l-.1-.4h-.8"/></defs><clipPath id="SVGID_23_"><use xlink:href="#SVGID_22_" style="overflow:visible"/></clipPath><g style="clip-path:url(#SVGID_23_)"><linearGradient id="SVGID_24_" gradientUnits="userSpaceOnUse" x1="234.779" y1="96.822" x2="235.779" y2="96.822" gradientTransform="matrix(0 17.72 -17.72 0 1809.77 -4152.86)"><stop offset="0" style="stop-color:#fff"/><stop offset="1" style="stop-color:#d1d3d4"/></linearGradient><path style="fill:url(#SVGID_24_)" d="M93.6 13.2h1.1v.9h-1.1z"/></g><defs><path id="SVGID_25_" d="m96.6 13.1 4.9 12.9c.1.2.2.3.4.3h.2c.2-.1.3-.4.3-.6L97.6 13l-1 .1"/></defs><clipPath id="SVGID_26_"><use xlink:href="#SVGID_25_" style="overflow:visible"/></clipPath><g style="clip-path:url(#SVGID_26_)"><linearGradient id="SVGID_27_" gradientUnits="userSpaceOnUse" x1="234.779" y1="96.636" x2="235.779" y2="96.636" gradientTransform="rotate(90 2982.95 -1171.02) scale(17.72)"><stop offset="0" style="stop-color:#fff"/><stop offset="1" style="stop-color:#d1d3d4"/></linearGradient><path style="fill:url(#SVGID_27_)" d="M96.6 13h5.9v13.2h-5.9z"/></g><defs><path id="SVGID_28_" d="M.5 28.1V4.3C.5 2.2 2.2.5 4.3.5h23.9C30.3.5 32 2.2 32 4.3v23.9c0 2.1-1.7 3.8-3.8 3.8H4.3C2.2 31.9.5 30.2.5 28.1M4.3 0C1.9 0 0 1.9 0 4.3v23.9c0 2.4 1.9 4.3 4.3 4.3h23.9c2.4 0 4.3-1.9 4.3-4.3V4.3c0-2.4-1.9-4.3-4.3-4.3H4.3z"/></defs><clipPath id="SVGID_29_"><use xlink:href="#SVGID_28_" style="overflow:visible"/></clipPath><g style="clip-path:url(#SVGID_29_)"><linearGradient id="SVGID_30_" gradientUnits="userSpaceOnUse" x1="183.107" y1="65.666" x2="184.107" y2="65.666" gradientTransform="rotate(-90 1927.06 4039.76) scale(32.42)"><stop offset="0" style="stop-color:#ffcb05"/><stop offset="1" style="stop-color:#f58220"/></linearGradient><path style="fill:url(#SVGID_30_)" d="M0 0h32.4v32.4H0z"/></g><defs><path id="SVGID_31_" d="M14.9 13.7c.6 0 1.2-.1 1.8-.2l.5-.2h-1c-1.1 0-2.2 0-3.3-.1.6.4 1.3.5 2 .5M.5 28.1c0 2.1 1.7 3.8 3.8 3.8h9v-9.6c-.1-3-2.5-4.3-3.7-6.2-.6-1-1-2-1.2-3.2-2.7-.3-5.3-.7-7.9-1.3v16.5zM23.6 13c-.4 1.5-1.2 2.9-2.4 3.9-2.4 2.3-2.3 6-2.3 6v9H28c2.1 0 3.8-1.7 3.8-3.8V11.6c-2.6.7-5.4 1.1-8.2 1.4"/></defs><clipPath id="SVGID_32_"><use xlink:href="#SVGID_31_" style="overflow:visible"/></clipPath><g style="clip-path:url(#SVGID_32_)"><linearGradient id="SVGID_33_" gradientUnits="userSpaceOnUse" x1="182.538" y1="65.26" x2="183.538" y2="65.26" gradientTransform="rotate(-90 1868.06 3903.64) scale(31.44)"><stop offset="0" style="stop-color:#f58220"/><stop offset="1" style="stop-color:#ffcb05"/></linearGradient><path style="fill:url(#SVGID_33_)" d="M.5 11.6h31.4v20.3H.5z"/></g><defs><path id="SVGID_34_" d="M8.4 12.9c.1 1.1.5 2.2 1.2 3.2 1.2 1.9 3.6 3.2 3.7 6.2v9.6H19v-9s-.1-3.8 2.3-6c1.2-1 2-2.4 2.4-3.9-2.1.2-4.2.3-6.4.4l-.5.2c-.6.2-1.2.2-1.8.2-.7 0-1.4-.1-2-.5-1.6-.1-3.2-.2-4.6-.4z"/></defs><clipPath id="SVGID_35_"><use xlink:href="#SVGID_34_" style="overflow:visible"/></clipPath><g style="clip-path:url(#SVGID_35_)"><linearGradient id="SVGID_36_" gradientUnits="userSpaceOnUse" x1="179.749" y1="63.917" x2="180.749" y2="63.917" gradientTransform="rotate(-90 1608.42 3342.46) scale(27.38)"><stop offset="0" style="stop-color:#d1d3d4"/><stop offset="1" style="stop-color:#fff"/></linearGradient><path style="fill:url(#SVGID_36_)" d="M8.4 12.9h15.3v19H8.4z"/></g><defs><path id="SVGID_37_" d="M23.5 3.2c0-.6.5-1.1 1.1-1.1s1.1.5 1.1 1.1-.5 1.1-1.1 1.1-1.1-.5-1.1-1.1m3 .8c0-1 .8-1.9 1.9-1.9 1 0 1.9.8 1.9 1.9s-.8 1.9-1.9 1.9c-1 0-1.9-.9-1.9-1.9M4.3.5C2.2.5.5 2.2.5 4.3v7.3c2.6.6 5.2 1.1 7.9 1.3-.2-2.2.6-4.4 2.1-6.1.5 1.9 1 3.7 1.7 5.6.2.3.4.6.8.8 1.1.1 2.2.1 3.3.1h1c1.3-.5 2.3-1.5 2.7-2.8.2-1.1-1.5-6-1.5-6 2.8.9 4.8 3.2 5.3 6.1.2.8.2 1.5 0 2.3 2.8-.3 5.6-.7 8.3-1.4V4.3c0-2.1-1.7-3.8-3.8-3.8h-24z"/></defs><clipPath id="SVGID_38_"><use xlink:href="#SVGID_37_" style="overflow:visible"/></clipPath><g style="clip-path:url(#SVGID_38_)"><linearGradient id="SVGID_39_" gradientUnits="userSpaceOnUse" x1="182.538" y1="65.26" x2="183.538" y2="65.26" gradientTransform="rotate(-90 1868.07 3903.65) scale(31.44)"><stop offset="0" style="stop-color:#f7933d"/><stop offset="1" style="stop-color:#ffd140"/></linearGradient><path style="fill:url(#SVGID_39_)" d="M.5.5h31.4v12.8H.5z"/></g><defs><path id="SVGID_40_" d="M8.4 12.9c1.5.2 3 .3 4.6.3-.3-.2-.6-.5-.8-.8-.7-1.8-1.2-3.7-1.7-5.6-1.5 1.7-2.3 3.9-2.1 6.1m11.5-2.4c-.4 1.3-1.4 2.3-2.7 2.8 2.2 0 4.4-.1 6.4-.4.2-.8.2-1.5 0-2.3-.5-2.9-2.5-5.2-5.3-6.1 0 .1 1.8 4.9 1.6 6"/></defs><clipPath id="SVGID_41_"><use xlink:href="#SVGID_40_" style="overflow:visible"/></clipPath><g style="clip-path:url(#SVGID_41_)"><linearGradient id="SVGID_42_" gradientUnits="userSpaceOnUse" x1="179.749" y1="63.907" x2="180.749" y2="63.907" gradientTransform="matrix(0 -27.38 27.38 0 -1733.88 4950.89)"><stop offset="0" style="stop-color:#d8d9da"/><stop offset="1" style="stop-color:#fff"/></linearGradient><path style="fill:url(#SVGID_42_)" d="M8 4.6h15.8v8.8H8z"/></g><defs><path id="SVGID_43_" d="M26.5 4c0 1 .8 1.9 1.9 1.9 1 0 1.9-.8 1.9-1.9s-.8-1.9-1.9-1.9c-1 0-1.9.9-1.9 1.9"/></defs><clipPath id="SVGID_44_"><use xlink:href="#SVGID_43_" style="overflow:visible"/></clipPath><g style="clip-path:url(#SVGID_44_)"><linearGradient id="SVGID_45_" gradientUnits="userSpaceOnUse" x1="182.538" y1="65.7" x2="183.538" y2="65.7" gradientTransform="matrix(0 -31.44 31.44 0 -2037.21 5771.72)"><stop offset="0" style="stop-color:#f9a058"/><stop offset="1" style="stop-color:#ffd661"/></linearGradient><path style="fill:url(#SVGID_45_)" d="M26.5 2.1h3.8v3.8h-3.8z"/></g><defs><path id="SVGID_46_" d="M23.5 3.2c0 .6.5 1.1 1.1 1.1s1.1-.5 1.1-1.1c0-.6-.5-1.1-1.1-1.1-.6 0-1.1.5-1.1 1.1"/></defs><clipPath id="SVGID_47_"><use xlink:href="#SVGID_46_" style="overflow:visible"/></clipPath><g style="clip-path:url(#SVGID_47_)"><linearGradient id="SVGID_48_" gradientUnits="userSpaceOnUse" x1="182.538" y1="65.726" x2="183.538" y2="65.726" gradientTransform="matrix(0 -31.44 31.44 0 -2041.85 5771.72)"><stop offset="0" style="stop-color:#f9a058"/><stop offset="1" style="stop-color:#ffd661"/></linearGradient><path style="fill:url(#SVGID_48_)" d="M23.5 2.1h2.2v2.2h-2.2z"/></g><path class="st32" d="M23.7 10.6c-.5-2.9-2.6-5.2-5.4-6.2h-.2v.2s1.7 4.8 1.6 5.9c-.5 1.4-1.7 2.5-3.1 2.9-.6.2-1.2.2-1.8.2-.8 0-2.2-.2-2.7-1.3-.7-1.8-1.2-3.7-1.7-5.6l-.1.1s-4.2 4.4-1 9.4c.4.6.9 1.2 1.4 1.7 1.1 1.2 2.2 2.5 2.3 4.5V32h.2v-9.6c-.1-2.1-1.2-3.4-2.4-4.6-.5-.5-1-1.1-1.4-1.7-2.8-4.4.2-8.3.9-9 .4 1.8 1 3.6 1.6 5.4.5 1.2 2 1.4 2.8 1.4.6 0 1.2-.1 1.8-.3 1.5-.4 2.7-1.5 3.2-3 .2-1-1.2-5-1.5-5.8 2.6 1 4.6 3.2 5.1 6 .5 2.2-.4 4.3-2.4 6.2-2.4 2.2-2.3 6-2.3 6.1V32h.2v-9s-.1-3.8 2.2-6c2.4-1.9 3.2-4 2.7-6.4"/><defs><path id="SVGID_49_" d="M37.6 28.1V4.3c0-2.1 1.7-3.8 3.8-3.8h23.9c2.1 0 3.8 1.7 3.8 3.8v23.9c0 2.1-1.7 3.8-3.8 3.8H41.4c-2.1-.1-3.8-1.8-3.8-3.9M41.4 0c-2.4 0-4.3 1.9-4.3 4.3v23.9c0 2.4 1.9 4.3 4.3 4.3h23.9c2.4 0 4.3-1.9 4.3-4.3V4.3c0-2.4-1.9-4.3-4.3-4.3H41.4z"/></defs><clipPath id="SVGID_50_"><use xlink:href="#SVGID_49_" style="overflow:visible"/></clipPath><g style="clip-path:url(#SVGID_50_)"><linearGradient id="SVGID_51_" gradientUnits="userSpaceOnUse" x1="183.107" y1="65.666" x2="184.107" y2="65.666" gradientTransform="rotate(-90 1945.621 4021.2) scale(32.42)"><stop offset="0" style="stop-color:#00aeef"/><stop offset="1" style="stop-color:#0066b3"/></linearGradient><path style="fill:url(#SVGID_51_)" d="M37.1 0h32.4v32.4H37.1z"/></g><defs><path id="SVGID_52_" d="M53.3 13.3c-5.3 0-10.6-.5-15.7-1.7v16.5c0 2.1 1.7 3.8 3.8 3.8h23.9c2.1 0 3.8-1.7 3.8-3.8V11.6c-5.2 1.2-10.5 1.8-15.8 1.7"/></defs><clipPath id="SVGID_53_"><use xlink:href="#SVGID_52_" style="overflow:visible"/></clipPath><g style="clip-path:url(#SVGID_53_)"><linearGradient id="SVGID_54_" gradientUnits="userSpaceOnUse" x1="182.538" y1="65.26" x2="183.538" y2="65.26" gradientTransform="rotate(-90 1886.62 3885.08) scale(31.44)"><stop offset="0" style="stop-color:#0066b3"/><stop offset="1" style="stop-color:#00aeef"/></linearGradient><path style="fill:url(#SVGID_54_)" d="M37.6 11.6H69v20.3H37.6z"/></g><defs><path id="SVGID_55_" d="M60.8 3.2c0-.6.5-1.1 1.1-1.1.6 0 1.1.5 1.1 1.1s-.5 1.1-1.1 1.1c-.6 0-1.1-.5-1.1-1.1m3.1.8c0-1 .8-1.9 1.9-1.9s1.8.9 1.8 1.9-.8 1.9-1.9 1.9c-1 0-1.8-.9-1.8-1.9M41.4.5c-2.1 0-3.8 1.7-3.8 3.8v7.3c5.2 1.2 10.4 1.8 15.7 1.7 5.3 0 10.6-.5 15.7-1.7V4.3C69 2.2 67.3.5 65.2.5H41.4z"/></defs><clipPath id="SVGID_56_"><use xlink:href="#SVGID_55_" style="overflow:visible"/></clipPath><g style="clip-path:url(#SVGID_56_)"><linearGradient id="SVGID_57_" gradientUnits="userSpaceOnUse" x1="182.538" y1="65.26" x2="183.538" y2="65.26" gradientTransform="rotate(-90 1886.63 3885.09) scale(31.44)"><stop offset="0" style="stop-color:#1e74bb"/><stop offset="1" style="stop-color:#00b6f1"/></linearGradient><path style="fill:url(#SVGID_57_)" d="M37.6.5H69v12.8H37.6z"/></g><defs><path id="SVGID_58_" d="M63.9 4c0 1 .8 1.9 1.9 1.9S67.6 5 67.6 4s-.8-1.9-1.9-1.9c-1 0-1.8.9-1.8 1.9"/></defs><clipPath id="SVGID_59_"><use xlink:href="#SVGID_58_" style="overflow:visible"/></clipPath><g style="clip-path:url(#SVGID_59_)"><linearGradient id="SVGID_60_" gradientUnits="userSpaceOnUse" x1="182.538" y1="65.701" x2="183.538" y2="65.701" gradientTransform="rotate(-90 1885.92 3885.8) scale(31.44)"><stop offset="0" style="stop-color:#4a81c2"/><stop offset="1" style="stop-color:#00bef3"/></linearGradient><path style="fill:url(#SVGID_60_)" d="M63.9 2.1h3.8v3.8h-3.8z"/></g><defs><path id="SVGID_61_" d="M60.8 3.2c0 .6.5 1.1 1.1 1.1S63 3.8 63 3.2s-.5-1.1-1.1-1.1c-.6 0-1.1.5-1.1 1.1"/></defs><clipPath id="SVGID_62_"><use xlink:href="#SVGID_61_" style="overflow:visible"/></clipPath><g style="clip-path:url(#SVGID_62_)"><linearGradient id="SVGID_63_" gradientUnits="userSpaceOnUse" x1="182.538" y1="65.725" x2="183.538" y2="65.725" gradientTransform="matrix(0 -31.44 31.44 0 -2004.51 5771.72)"><stop offset="0" style="stop-color:#4a81c2"/><stop offset="1" style="stop-color:#00bef3"/></linearGradient><path style="fill:url(#SVGID_63_)" d="M60.8 2.1H63v2.2h-2.2z"/></g><path class="st32" d="M53.3 29.2c-7.2 0-13-5.8-13-13s5.8-13 13-13 13 5.8 13 13-5.8 13-13 13m0-26.3C46 2.9 40 8.8 40 16.2s6 13.4 13.3 13.4 13.4-6 13.4-13.3c0-7.5-6-13.4-13.4-13.4"/><defs><path id="SVGID_64_" d="M53.5 20.8h.3V25H53v-4.2h.5zM46.7 22l3.8-2.2c.2.1.4.3.6.4l.6.3v4.4c-2-.4-3.8-1.4-5-2.9m8.3-1.5.6-.3c.2-.1.4-.2.6-.4L60 22c-1.3 1.5-3.1 2.5-5 2.9v-4.4zm-9.5-.2 3.6-2.1c.1.3.3.5.4.7L45.9 21c-.2-.2-.3-.5-.4-.7m11.6-1.4c.2-.2.3-.5.4-.7l3.6 2.1c-.1.3-.3.5-.4.7l-3.6-2.1zm-4-.8H52.1L52 18v-.2l-.1-.1-.1-.2c-.5-.9-.2-2 .7-2.6.2-.1.3-.2.5-.2h.7c.2 0 .4.1.5.2.7.5 1 1.4.8 2.2l-.1.2-.1.1-.1.1-.1.1h-.5l-.1.4h-.5l-.4.1zm-8.6-1.9c0-1 .2-2 .5-2.9l3.8 2.2v1.3L45 19.1c-.3-.9-.5-1.9-.5-2.9m13.4.7v-1.3l3.8-2.2c.7 1.9.7 3.9 0 5.8l-3.8-2.3zm-12.4-4.7c.1-.2.3-.5.4-.7l3.6 2.1-.2.4-.1.2-.1.1v.1l-3.6-2.2zm12 2-.1-.2-.1-.2c-.1-.1-.2-.2-.2-.4l3.6-2.1c.2.2.3.5.4.7l-3.6 2.2zm-10.8-3.8c1.3-1.5 3.1-2.5 5-2.9v4.3l-.3.2h-.1l-.3.2-.2.1-.1.1-.2.2-3.8-2.2zm9.5 2.2-.3-.2-.1-.1-.2-.1-.2-.1h-.1l-.2-.1V7.5c1.9.4 3.7 1.4 5 2.9l-3.9 2.2zm-3.3-5.2h.8v4.2h-.8V7.4zm-9.1 8.8c0 5.2 4.3 9.5 9.5 9.5s9.5-4.3 9.5-9.5-4.3-9.5-9.5-9.5-9.5 4.3-9.5 9.5"/></defs><clipPath id="SVGID_65_"><use xlink:href="#SVGID_64_" style="overflow:visible"/></clipPath><g style="clip-path:url(#SVGID_65_)"><linearGradient id="SVGID_66_" gradientUnits="userSpaceOnUse" x1="163.609" y1="53.921" x2="164.609" y2="53.921" gradientTransform="rotate(-90 899.05 1691.2) scale(15.68)"><stop offset="0" style="stop-color:#d1d3d4"/><stop offset="1" style="stop-color:#fff"/></linearGradient><path style="fill:url(#SVGID_66_)" d="M43.8 6.7h19v19h-19z"/></g><defs><path id="SVGID_67_" d="M43.6 16.2c0-5.4 4.4-9.7 9.8-9.7s9.7 4.4 9.7 9.8-4.4 9.7-9.8 9.7c-5.3 0-9.7-4.4-9.7-9.8m-2.9.1c0 7 5.7 12.6 12.6 12.5 7 0 12.6-5.7 12.5-12.6 0-6.9-5.7-12.5-12.6-12.5-6.8-.1-12.4 5.6-12.5 12.6"/></defs><clipPath id="SVGID_68_"><use xlink:href="#SVGID_67_" style="overflow:visible"/></clipPath><g style="clip-path:url(#SVGID_68_)"><linearGradient id="SVGID_69_" gradientUnits="userSpaceOnUse" x1="172.896" y1="59.408" x2="173.896" y2="59.408" gradientTransform="matrix(0 -20.79 20.79 0 -1181.77 3622.6)"><stop offset="0" style="stop-color:#d1d3d4"/><stop offset="1" style="stop-color:#fff"/></linearGradient><path style="fill:url(#SVGID_69_)" d="M40.7 3.6h25.2v25.2H40.7z"/></g><defs><path id="SVGID_70_" d="M40.5 16.2c0-7.1 5.7-12.8 12.8-12.8s12.8 5.7 12.8 12.8S60.4 29 53.3 29c-7.1 0-12.8-5.7-12.8-12.8m-.3 0c0 7.3 5.9 13.2 13.2 13.2s13.2-5.9 13.2-13.2S60.6 3 53.3 3c-7.2 0-13.1 5.9-13.1 13.2"/></defs><clipPath id="SVGID_71_"><use xlink:href="#SVGID_70_" style="overflow:visible"/></clipPath><g style="clip-path:url(#SVGID_71_)"><linearGradient id="SVGID_72_" gradientUnits="userSpaceOnUse" x1="174.119" y1="60.219" x2="175.119" y2="60.219" gradientTransform="matrix(0 -21.73 21.73 0 -1255.24 3810.29)"><stop offset="0" style="stop-color:#d1d3d4"/><stop offset="1" style="stop-color:#fff"/></linearGradient><path style="fill:url(#SVGID_72_)" d="M40.2 3h26.3v26.3H40.2z"/></g><defs><path id="SVGID_73_" d="M90.3 12.4V7.8c0-.3.2-.5.5-.4.2 0 .4.2.4.4v4.6c0 .2-.2.4-.4.4-.2.1-.4-.1-.5-.4m-3.9-6.3c0-.6.4-1 1-1h2.1c.1-.7.6-1.1 1.3-1.1.6 0 1.2.4 1.2 1h2.1c.6 0 1 .4 1 1v.4h-8.7v-.3zm11.9-2.9c0-.6.5-1.1 1.1-1.1.6 0 1.1.5 1.1 1.1 0 .6-.5 1.1-1.1 1.1-.6 0-1.1-.5-1.1-1.1m3 .8c0-1 .8-1.9 1.9-1.9s1.9.8 1.9 1.9-.8 1.9-1.9 1.9c-1.1 0-1.9-.9-1.9-1.9M78.9.5c-2.1 0-3.8 1.7-3.8 3.8v7.3c3 .7 6 1.2 9 1.4l2-5.3c.1-.2.2-.3.4-.3s.5.2.5.4V8l-2 5.1 2.1.1 1.1-5.6c0-.2.2-.4.4-.4h.1c.2.1.4.3.3.5l-1 5.6c.9 0 1.8.1 2.8.1s1.8 0 2.8-.1l-1.1-5.4c0-.2.1-.5.3-.5h.1c.2 0 .4.2.4.4l1.2 5.6 2.1-.1L94.7 8c-.1-.2 0-.5.3-.6h.2c.2 0 .4.1.4.3l2 5.3c3-.3 6-.7 9-1.4V4.3c0-2.1-1.7-3.8-3.8-3.8H78.9z"/></defs><clipPath id="SVGID_74_"><use xlink:href="#SVGID_73_" style="overflow:visible"/></clipPath><g style="clip-path:url(#SVGID_74_)"><linearGradient id="SVGID_75_" gradientUnits="userSpaceOnUse" x1="182.538" y1="65.26" x2="183.538" y2="65.26" gradientTransform="rotate(-90 1905.37 3866.35) scale(31.44)"><stop offset="0" style="stop-color:#039a5d"/><stop offset="1" style="stop-color:#00af62"/></linearGradient><path style="fill:url(#SVGID_75_)" d="M75.1.5h31.4v12.8H75.1z"/></g><defs><path id="SVGID_76_" d="M101.3 4c0 1 .8 1.9 1.9 1.9s1.9-.8 1.9-1.9-.8-1.9-1.9-1.9c-1 0-1.9.9-1.9 1.9"/></defs><clipPath id="SVGID_77_"><use xlink:href="#SVGID_76_" style="overflow:visible"/></clipPath><g style="clip-path:url(#SVGID_77_)"><linearGradient id="SVGID_78_" gradientUnits="userSpaceOnUse" x1="182.538" y1="65.7" x2="183.538" y2="65.7" gradientTransform="rotate(-90 1904.66 3867.06) scale(31.44)"><stop offset="0" style="stop-color:#4aa370"/><stop offset="1" style="stop-color:#37b777"/></linearGradient><path style="fill:url(#SVGID_78_)" d="M101.3 2.1h3.8v3.8h-3.8z"/></g><defs><path id="SVGID_79_" d="M98.3 3.2c0 .6.5 1.1 1.1 1.1.6 0 1.1-.5 1.1-1.1 0-.6-.5-1.1-1.1-1.1-.6 0-1.1.5-1.1 1.1"/></defs><clipPath id="SVGID_80_"><use xlink:href="#SVGID_79_" style="overflow:visible"/></clipPath><g style="clip-path:url(#SVGID_80_)"><linearGradient id="SVGID_81_" gradientUnits="userSpaceOnUse" x1="182.538" y1="65.726" x2="183.538" y2="65.726" gradientTransform="rotate(-90 1902.34 3869.38) scale(31.44)"><stop offset="0" style="stop-color:#4aa370"/><stop offset="1" style="stop-color:#37b777"/></linearGradient><path style="fill:url(#SVGID_81_)" d="M98.3 2.1h2.2v2.2h-2.2z"/></g><defs><path id="SVGID_82_" d="M90.3 7.8v4.6c0 .3.2.5.5.4.2 0 .4-.2.4-.4V7.8c0-.2-.2-.4-.4-.4s-.4.2-.5.4"/></defs><clipPath id="SVGID_83_"><use xlink:href="#SVGID_82_" style="overflow:visible"/></clipPath><g style="clip-path:url(#SVGID_83_)"><linearGradient id="SVGID_84_" gradientUnits="userSpaceOnUse" x1="234.779" y1="96.725" x2="235.779" y2="96.725" gradientTransform="rotate(90 2979.93 -1175.15) scale(17.72)"><stop offset="0" style="stop-color:#fff"/><stop offset="1" style="stop-color:#d8d9da"/></linearGradient><path style="fill:url(#SVGID_84_)" d="M90.3 7.4h.9v5.5h-.9z"/></g><defs><path id="SVGID_85_" d="m88.3 7.7-1.1 5.6h.8l1.1-5.4c0-.2-.1-.5-.3-.5h-.1c-.2-.1-.4 0-.4.3"/></defs><clipPath id="SVGID_86_"><use xlink:href="#SVGID_85_" style="overflow:visible"/></clipPath><g style="clip-path:url(#SVGID_86_)"><linearGradient id="SVGID_87_" gradientUnits="userSpaceOnUse" x1="234.779" y1="96.793" x2="235.779" y2="96.793" gradientTransform="rotate(90 2978.1 -1174.76) scale(17.72)"><stop offset="0" style="stop-color:#fff"/><stop offset="1" style="stop-color:#d8d9da"/></linearGradient><path style="fill:url(#SVGID_87_)" d="M87.1 7.3h2.1v6h-2.1z"/></g><defs><path id="SVGID_88_" d="m86.1 7.7-2 5.3 1 .1L86.9 8c.1-.2 0-.5-.2-.6h-.2c-.2 0-.3.1-.4.3"/></defs><clipPath id="SVGID_89_"><use xlink:href="#SVGID_88_" style="overflow:visible"/></clipPath><g style="clip-path:url(#SVGID_89_)"><linearGradient id="SVGID_90_" gradientUnits="userSpaceOnUse" x1="234.779" y1="96.718" x2="235.779" y2="96.718" gradientTransform="matrix(0 17.72 -17.72 0 1799.38 -4153.97)"><stop offset="0" style="stop-color:#fff"/><stop offset="1" style="stop-color:#d8d9da"/></linearGradient><path style="fill:url(#SVGID_90_)" d="M84.1 7.4h3v5.7h-3z"/></g><defs><path id="SVGID_91_" d="M92.8 7.3c-.2.1-.4.3-.3.5l1.1 5.4h.9l-1.2-5.6c0-.1-.2-.3-.5-.3"/></defs><clipPath id="SVGID_92_"><use xlink:href="#SVGID_91_" style="overflow:visible"/></clipPath><g style="clip-path:url(#SVGID_92_)"><linearGradient id="SVGID_93_" gradientUnits="userSpaceOnUse" x1="234.779" y1="96.793" x2="235.779" y2="96.793" gradientTransform="matrix(0 17.72 -17.72 0 1808.61 -4152.86)"><stop offset="0" style="stop-color:#fff"/><stop offset="1" style="stop-color:#d8d9da"/></linearGradient><path style="fill:url(#SVGID_93_)" d="M92.4 7.3h2.1v6h-2.1z"/></g><defs><path id="SVGID_94_" d="M94.9 7.4c-.2.1-.3.4-.3.6l1.9 5.1.9-.1-2-5.3c-.1-.2-.2-.3-.4-.3h-.1"/></defs><clipPath id="SVGID_95_"><use xlink:href="#SVGID_94_" style="overflow:visible"/></clipPath><g style="clip-path:url(#SVGID_95_)"><linearGradient id="SVGID_96_" gradientUnits="userSpaceOnUse" x1="234.779" y1="96.718" x2="235.779" y2="96.718" gradientTransform="matrix(0 17.72 -17.72 0 1809.9 -4153.97)"><stop offset="0" style="stop-color:#fff"/><stop offset="1" style="stop-color:#d8d9da"/></linearGradient><path style="fill:url(#SVGID_96_)" d="M94.6 7.4h3v5.7h-3z"/></g><defs><path id="SVGID_97_" d="M89.6 5h-2.1c-.6 0-1 .4-1 1v.4h8.7v-.3c0-.6-.4-1-1-1H92c0-.7-.6-1.1-1.2-1.1s-1.1.4-1.2 1"/></defs><clipPath id="SVGID_98_"><use xlink:href="#SVGID_97_" style="overflow:visible"/></clipPath><g style="clip-path:url(#SVGID_98_)"><linearGradient id="SVGID_99_" gradientUnits="userSpaceOnUse" x1="234.779" y1="96.575" x2="235.779" y2="96.575" gradientTransform="matrix(0 17.72 -17.72 0 1802.12 -4153.53)"><stop offset="0" style="stop-color:#fff"/><stop offset="1" style="stop-color:#d8d9da"/></linearGradient><path style="fill:url(#SVGID_99_)" d="M86.4 3.9h8.7v2.5h-8.7z"/></g><path class="st32" d="M87.2 25.9h-2.4v2c0 .3.3.6.6.6h1.2c.3 0 .6-.3.6-.6v-2zm-.1.2v1.8c0 .2-.2.4-.4.4h-1.2c-.2 0-.4-.1-.4-.4v-1.8h2zM96.8 25.9h-2.4v2c0 .3.3.6.6.6h1.2c.3 0 .6-.2.6-.6v-2zm-.2.2v1.8c0 .2-.2.4-.4.4H95c-.2 0-.4-.2-.4-.4v-1.8h2zM86.9 20.4c-1.1 0-.7-.7-.7-.7s.6-1.1.8-1.5c.2-.3.5-.5.8-.5h6c.3 0 .6.2.8.5.2.5.8 1.5.8 1.5s.3.7-.7.7h-7.8zm7.6-3.8H87c-.6 0-1 .8-1.4 1.4l-1.3 2.7h-.2c-.3 0-.6.2-.6.6V25c0 .3.2.6.6.6h13.2c.3 0 .6-.2.6-.5v-3.8c0-.3-.2-.6-.6-.6h-.2L95.9 18c-.3-.6-.8-1.4-1.4-1.4m-7.6 4h7.8c.3 0 .6-.1.9-.3.1-.2.1-.4 0-.6 0 0-.6-1-.8-1.5-.2-.4-.6-.6-1-.6h-6c-.4 0-.8.2-1 .6-.2.5-.8 1.5-.8 1.5-.1.2-.1.4 0 .6.2.2.5.4.9.3m7.6-3.8c.5 0 .9.8 1.2 1.3l1.3 2.7.1.1h.3c.2 0 .4.2.4.4V25c0 .2-.2.4-.4.4H84.2c-.2 0-.4-.2-.4-.4v-3.8c0-.2.2-.4.4-.4h.3v-.1l1.4-2.7c.3-.5.7-1.3 1.2-1.3l7.4.1zM90.8 7.4c-.3 0-.5.2-.5.5v4.6c0 .3.2.5.5.4.2 0 .4-.2.4-.4V7.8c.1-.2-.1-.4-.4-.4m0 .1c.2 0 .3.1.3.3v4.6c0 .2-.2.3-.3.2-.1 0-.2-.1-.2-.2V7.8c-.1-.1 0-.3.2-.3M88.7 7.3c-.2 0-.4.2-.4.4l-1.2 5.9c0 .2.1.5.3.5h.1c.2 0 .4-.2.4-.4l1.2-5.9c.1-.2 0-.4-.4-.5zm0 .2.2.1v.2l-1.2 5.9c0 .1-.1.2-.3.2l-.2-.1v-.2l1.2-5.9c.1-.1.2-.2.3-.2M86.5 7.4c-.2 0-.4.1-.4.3l-6.8 18c-.1.2 0 .5.2.6h.2c.2 0 .4-.1.4-.3L87 8c.1-.2 0-.5-.3-.6h-.2zm0 .2c.2.1.3.2.3.4l-6.9 18c0 .1-.1.2-.3.2h-.1c-.1-.1-.2-.2-.2-.4l6.9-18c.1-.1.2-.2.3-.2M92.9 7.3c-.3.1-.5.3-.4.5l1.2 5.9c0 .2.2.4.4.4h.1c.2-.1.4-.3.3-.5l-1.2-5.9c0-.2-.2-.4-.4-.4m0 .2c.1 0 .2.1.3.2l1.2 5.9v.2l-.2.2c-.1 0-.3-.1-.3-.2l-1.3-5.9v-.3l.3-.1zM95.1 7.4h-.2c-.2.1-.3.4-.3.6l6.9 18c.1.2.2.3.4.3h.2c.2-.1.3-.4.3-.6l-6.9-18c0-.2-.2-.3-.4-.3m0 .2c.1 0 .2.1.3.2l6.9 18c0 .1 0 .3-.2.4h-.1c-.1 0-.2-.1-.3-.2L94.8 8v-.2l.3-.2zM90.8 3.9c-.6 0-1.1.5-1.2 1.1h-2.1c-.6 0-1 .4-1 1v.4h8.7v-.3c0-.6-.4-1-1-1H92c-.1-.7-.6-1.1-1.2-1.2m0 .2c.6 0 1 .4 1 1v.2h2.3c.5 0 .9.4.9.9v.2h-8.3v-.3c0-.5.4-.9.9-.9h2.3v-.1c-.1-.6.3-1 .9-1"/><path class="st67" d="M137.1 10.5c0-2.7-1.2-5.4-6.9-5.4h-6.4v10.8h6.6c5.7 0 6.7-2.7 6.7-5.4m5.4 20.5h-4.9l-7.1-11.2h-6.7V31h-4.1V1.4h10.9c6.5 0 10.6 3.1 10.6 8.9.2 4.1-2.6 7.8-6.6 8.7l7.9 12zM169.5 16.2c0-10.1-5.1-11.4-9.6-11.4s-9.6 1.2-9.6 11.4 5.1 11.4 9.6 11.4 9.6-1.3 9.6-11.4m4.1 0c0 12.5-7.5 15.1-13.7 15.1s-13.7-2.6-13.7-15.1S153.7 1 159.9 1s13.7 2.6 13.7 15.2M198.8 23.2c0 5-4 8.1-10.7 8.1-3.1 0-6.1-.8-8.8-2.2v-4.3c2.5 1.6 5.4 2.4 8.4 2.5 3.1 0 6.9-.7 6.9-4.2 0-7.7-15.7-4.1-15.7-13.7 0-4.1 2.7-8.4 10.3-8.4 2.6 0 5.3.6 7.6 1.9V7c-2.2-1.3-4.6-2-7.1-1.9-3.1 0-6.7.8-6.7 4.4.1 5.1 15.8 3.3 15.8 13.7M223.3 23.2c0 5-4 8.1-10.7 8.1-3.1 0-6.1-.8-8.8-2.2v-4.3c2.5 1.6 5.4 2.4 8.4 2.5 3.1 0 6.9-.7 6.9-4.2 0-7.7-15.7-4.1-15.7-13.7 0-4.1 2.7-8.4 10.3-8.4 2.7 0 5.3.6 7.6 1.9V7c-2.2-1.3-4.6-2-7.1-1.9-3.1 0-6.7.8-6.7 4.4.1 5.1 15.8 3.3 15.8 13.7M253.1 1.4 241.7 31h-4.1L226.3 1.4h4.3l9 24.4 9.1-24.4zM257.9 1.4h4.1v29.5h-4.1zM293.3 31h-5.1L277 17.7l-3.5 3.7V31h-4.1V1.4h4.1v14.3L287 1.4h5.2l-12.5 13.4zM181.8 40.1h-3.4v3.7h3.8v.5h-4.4v-8.4h4.2v.5h-3.6v3.2h3.4zM187.6 44c-.5.3-1.1.4-1.7.4-1.6 0-2.9-1.2-2.9-2.7v-.3c-.1-1.7 1.1-3.1 2.8-3.2h.3c.5 0 1.1.1 1.6.4l-.2.5c-.4-.2-.9-.4-1.4-.4-1.3 0-2.4 1.1-2.4 2.4v.3c-.1 1.3.8 2.4 2.1 2.6h.3c.5 0 1-.1 1.5-.3v.3zM193.4 38.3v6h-.6v-5.5h-2.5v1.8c0 1.8-.2 3-1 3.5-.2.2-.5.2-.8.2l-.1-.5c.2 0 .4-.1.6-.2.7-.4.8-1.5.8-3v-2.3h3.6zM195.9 38.3v3c0 .9 0 1.5-.1 2.4.4-.7.6-1.2 1.1-1.9l2.3-3.4h.6v6h-.6v-3c0-1 0-1.6.1-2.4-.5.9-.8 1.4-1.2 2-.7 1-1.5 2.2-2.2 3.3h-.6v-6h.6zM205.1 40.9h1c.8 0 1.9-.3 1.9-1.1s-.6-1-1.9-1c-.4 0-.7 0-1 .1v2zm0 2.9c.3 0 .7.1 1 0 .8 0 2.2-.2 2.2-1.2s-1.1-1.2-2.2-1.2h-1v2.4zm-.5-5.4c.5-.1 1.1-.1 1.6-.1 1 0 2.5.2 2.5 1.5 0 .7-.6 1.3-1.3 1.4.9.1 1.5.6 1.5 1.5 0 1.5-1.8 1.7-2.9 1.7h-1.4v-6zM213.6 41.1c-1.3 0-3 .2-3 1.6-.1.6.4 1.2 1 1.2h.2c.8 0 1.5-.5 1.8-1.2 0-.1.1-.2.1-.4l-.1-1.2zm.5 1.7c0 .5 0 .9.1 1.4h-.5l-.1-.9c-.4.6-1.1 1-1.9 1-.9.1-1.7-.6-1.7-1.5v-.1c0-1.4 1.2-2.2 3.6-2.2v-.2c0-.6-.1-1.8-1.5-1.8-.5 0-1.1.1-1.5.5l-.2-.4c.5-.3 1.1-.5 1.7-.5 1.7 0 2.1 1.3 2.1 2.4l-.1 2.3zM216.6 38.3v5.5h2.5v-5.5h.6v5.5h2.4v-5.5h.6v6H216v-6zM231.5 41.3c0-1.1-.4-2.5-1.9-2.5-.7 0-1.3.4-1.6 1-.2.4-.3.9-.3 1.3 0 1.1.6 2.8 2 2.8s1.8-1.4 1.8-2.6zm0-5.5c-.4.1-.8.2-1.1.3-.9.1-1.8.6-2.3 1.3-.4.7-.6 1.5-.7 2.3.3-.9 1.2-1.5 2.1-1.5 1.4 0 2.5 1 2.5 2.9s-.8 3.2-2.6 3.2c-2.1 0-2.6-2.2-2.6-4-.1-1.1.2-2.2.7-3.1.6-.9 1.5-1.5 2.6-1.6.4-.1.9-.2 1.3-.4v.6zM234.1 38.3v5.4c.4-.7.6-1.2 1.1-1.9l2.3-3.4h.6v6h-.6v-3c0-1 0-1.6.1-2.4-.5.9-.8 1.4-1.2 2-.7 1-1.5 2.2-2.2 3.3h-.6v-6h.5zM240.6 40.9h.3c1 0 1.8-.5 1.8-1.2 0-.6-.6-1.1-1.2-1.1h-.1c-.5 0-1 .2-1.4.4l-.2-.4c.5-.3 1.1-.5 1.7-.5.9-.1 1.7.5 1.8 1.4v.1c-.1.7-.7 1.3-1.4 1.4.9 0 1.6.7 1.7 1.6 0 1.2-1 1.7-2.3 1.7-.6 0-1.2-.2-1.7-.4l.2-.5c.5.3 1 .4 1.5.4 1 0 1.7-.5 1.7-1.3 0-1-1-1.3-2-1.3h-.3l-.1-.3zM245.6 38.3v2.5h3.5v-2.5h.5v6h-.5v-3h-3.5v3h-.6v-6zM255.5 40.7c.1-1-.6-1.9-1.6-2.1h-.2c-1.1.1-2 1-2 2.1h3.8zm-3.8.5c0 1.9 1.1 2.7 2.3 2.7.6 0 1.1-.1 1.6-.3l.1.5c-.6.3-1.2.4-1.9.4-1.5 0-2.8-1.2-2.8-2.7v-.3c0-2 1.1-3.2 2.7-3.2 1.3.1 2.4 1.2 2.3 2.5V41.4l-4.3-.2zM261.8 44c-.5.3-1.1.4-1.7.4-1.6 0-2.9-1.2-2.9-2.8v-.3c-.1-1.7 1.1-3.1 2.8-3.2h.3c.5 0 1.1.1 1.6.4l-.2.5c-.4-.2-.9-.4-1.4-.4-1.3 0-2.4 1-2.4 2.4v.3c-.1 1.3.8 2.4 2.1 2.6h.2c.5 0 1-.1 1.5-.3l.1.4zM265.3 40.6h3v.5h-3zM275.5 41.1c-1.3 0-3 .2-3 1.6-.1.6.4 1.2 1 1.2h.2c.8 0 1.5-.5 1.8-1.2 0-.1.1-.2.1-.4l-.1-1.2zm.6 1.7c0 .5 0 .9.1 1.4h-.5l-.1-.9c-.4.6-1.1 1-1.9 1-.9.1-1.7-.6-1.8-1.5v-.1c0-1.4 1.2-2.2 3.6-2.2v-.2c0-.6-.1-1.8-1.5-1.8-.5 0-1.1.1-1.5.5l-.2-.4c.5-.3 1.1-.5 1.7-.5 1.7 0 2 1.3 2 2.4l.1 2.3zM278.5 40.9h1c.8 0 1.9-.3 1.9-1.1s-.6-1-1.9-1c-.5 0-.7 0-1 .1v2zm0 2.9c.3 0 .7.1 1 0 .8 0 2.2-.2 2.2-1.2s-1.1-1.2-2.2-1.2h-1v2.4zm-.5-5.4c.5-.1 1.1-.1 1.6-.1 1 0 2.5.2 2.5 1.5 0 .7-.5 1.3-1.2 1.4.9.1 1.5.6 1.5 1.5 0 1.5-1.8 1.7-2.9 1.7h-1.4v-6zM287.4 38.3v.5h-2v5.5h-.6v-5.5h-1.9v-.5zM288.3 41.3c-.1 1.3.8 2.5 2.1 2.6 1.3-.1 2.3-1.3 2.2-2.6v-.1c.2-1.2-.6-2.4-1.8-2.6-1.2-.2-2.4.6-2.6 1.8.1.3.1.6.1.9m5-.1c.2 1.6-1 3-2.6 3.2h-.3c-1.5 0-2.8-1.3-2.7-2.9v-.2c-.2-1.6 1-3 2.6-3.2h.3c1.5 0 2.8 1.2 2.8 2.8-.1.1-.1.2-.1.3"/></g></g></svg>